<ttFont>
    <TTGlyph name=".notdef" xMin="123" yMin="0" xMax="1028" yMax="1581">
      <contour>
        <pt x="1028" y="0" on="1"/>
        <pt x="123" y="0" on="1"/>
        <pt x="123" y="1581" on="1"/>
        <pt x="1028" y="1581" on="1"/>
      </contour>
      <contour>
        <pt x="954" y="1520" on="1"/>
        <pt x="197" y="1520" on="1"/>
        <pt x="197" y="61" on="1"/>
        <pt x="954" y="61" on="1"/>
      </contour>
    </TTGlyph>
    <TTGlyph name=".ttfautohint" xMin="0" yMin="0" xMax="0" yMax="0">
      <contour>
        <pt x="0" y="0" on="1"/>
      </contour>
    </TTGlyph>
    <TTGlyph name="A" xMin="-189" yMin="0" xMax="1193" yMax="1460">
      <contour>
        <pt x="1098" y="105" on="0"/>
        <pt x="1157" y="43" on="0"/>
        <pt x="1193" y="41" on="1"/>
        <pt x="1185" y="0" on="1"/>
        <pt x="1080" y="6" on="0"/>
        <pt x="888" y="6" on="1"/>
        <pt x="679" y="6" on="0"/>
        <pt x="580" y="0" on="1"/>
        <pt x="589" y="41" on="1"/>
        <pt x="655" y="44" on="0"/>
        <pt x="730" y="69" on="0"/>
        <pt x="766" y="131" on="0"/>
        <pt x="766" y="190" on="1"/>
        <pt x="765" y="213" on="1"/>
        <pt x="747" y="549" on="1"/>
        <pt x="304" y="549" on="1"/>
        <pt x="123" y="294" on="1"/>
        <pt x="58" y="202" on="0"/>
        <pt x="58" y="143" on="1"/>
        <pt x="58" y="51" on="0"/>
        <pt x="229" y="41" on="1"/>
        <pt x="220" y="0" on="1"/>
        <pt x="48" y="6" on="0"/>
        <pt x="-48" y="6" on="1"/>
        <pt x="-125" y="6" on="0"/>
        <pt x="-189" y="0" on="1"/>
        <pt x="-180" y="41" on="1"/>
        <pt x="-127" y="55" on="0"/>
        <pt x="-26" y="149" on="0"/>
        <pt x="52" y="258" on="1"/>
        <pt x="906" y="1460" on="1"/>
        <pt x="940" y="1458" on="0"/>
        <pt x="959" y="1458" on="1"/>
        <pt x="980" y="1458" on="0"/>
        <pt x="1010" y="1460" on="1"/>
        <pt x="1092" y="172" on="1"/>
      </contour>
      <contour>
        <pt x="715" y="1131" on="1"/>
        <pt x="333" y="590" on="1"/>
        <pt x="745" y="590" on="1"/>
      </contour>
    </TTGlyph>
    <TTGlyph name="AE" xMin="-176" yMin="0" xMax="1950" yMax="1583">
      <contour>
        <pt x="1822" y="1444" on="0"/>
        <pt x="1950" y="1450" on="1"/>
        <pt x="1918" y="1361" on="0"/>
        <pt x="1872" y="1208" on="1"/>
        <pt x="1853" y="1140" on="0"/>
        <pt x="1845" y="1081" on="1"/>
        <pt x="1800" y="1081" on="1"/>
        <pt x="1815" y="1166" on="0"/>
        <pt x="1815" y="1226" on="1"/>
        <pt x="1815" y="1322" on="0"/>
        <pt x="1730" y="1403" on="0"/>
        <pt x="1634" y="1403" on="1"/>
        <pt x="1505" y="1403" on="1"/>
        <pt x="1434" y="1403" on="0"/>
        <pt x="1363" y="1379" on="0"/>
        <pt x="1320" y="1310" on="0"/>
        <pt x="1300" y="1233" on="1"/>
        <pt x="1172" y="750" on="1"/>
        <pt x="1331" y="750" on="1"/>
        <pt x="1389" y="750" on="0"/>
        <pt x="1466" y="811" on="0"/>
        <pt x="1513" y="902" on="0"/>
        <pt x="1542" y="979" on="1"/>
        <pt x="1587" y="979" on="1"/>
        <pt x="1559" y="894" on="0"/>
        <pt x="1531" y="780" on="1"/>
        <pt x="1518" y="729" on="1"/>
        <pt x="1496" y="654" on="0"/>
        <pt x="1464" y="479" on="1"/>
        <pt x="1419" y="479" on="1"/>
        <pt x="1419" y="489" on="0"/>
        <pt x="1424" y="542" on="1"/>
        <pt x="1430" y="586" on="0"/>
        <pt x="1430" y="606" on="1"/>
        <pt x="1430" y="651" on="0"/>
        <pt x="1384" y="705" on="0"/>
        <pt x="1323" y="709" on="1"/>
        <pt x="1161" y="709" on="1"/>
        <pt x="1030" y="217" on="1"/>
        <pt x="1013" y="151" on="0"/>
        <pt x="1013" y="118" on="1"/>
        <pt x="1013" y="88" on="0"/>
        <pt x="1040" y="58" on="0"/>
        <pt x="1096" y="47" on="0"/>
        <pt x="1147" y="47" on="1"/>
        <pt x="1296" y="47" on="1"/>
        <pt x="1395" y="47" on="0"/>
        <pt x="1522" y="115" on="0"/>
        <pt x="1615" y="269" on="0"/>
        <pt x="1663" y="410" on="1"/>
        <pt x="1708" y="410" on="1"/>
        <pt x="1689" y="360" on="0"/>
        <pt x="1665" y="262" on="1"/>
        <pt x="1630" y="135" on="0"/>
        <pt x="1612" y="0" on="1"/>
        <pt x="1473" y="6" on="0"/>
        <pt x="1149" y="6" on="1"/>
        <pt x="708" y="6" on="0"/>
        <pt x="485" y="0" on="1"/>
        <pt x="494" y="41" on="1"/>
        <pt x="568" y="44" on="0"/>
        <pt x="641" y="70" on="0"/>
        <pt x="685" y="140" on="0"/>
        <pt x="705" y="217" on="1"/>
        <pt x="836" y="709" on="1"/>
        <pt x="508" y="709" on="1"/>
        <pt x="70" y="193" on="1"/>
        <pt x="11" y="126" on="0"/>
        <pt x="11" y="96" on="1"/>
        <pt x="11" y="51" on="0"/>
        <pt x="137" y="41" on="1"/>
        <pt x="137" y="0" on="1"/>
        <pt x="81" y="6" on="0"/>
        <pt x="-39" y="6" on="1"/>
        <pt x="-127" y="6" on="0"/>
        <pt x="-176" y="0" on="1"/>
        <pt x="-176" y="41" on="1"/>
        <pt x="-113" y="44" on="0"/>
        <pt x="0" y="172" on="1"/>
        <pt x="992" y="1340" on="1"/>
        <pt x="989" y="1379" on="0"/>
        <pt x="928" y="1406" on="0"/>
        <pt x="854" y="1409" on="1"/>
        <pt x="864" y="1450" on="1"/>
        <pt x="932" y="1448" on="0"/>
        <pt x="1082" y="1446" on="1"/>
        <pt x="1198" y="1583" on="1"/>
        <pt x="1251" y="1583" on="1"/>
        <pt x="1134" y="1445" on="1"/>
        <pt x="1250" y="1444" on="0"/>
        <pt x="1453" y="1444" on="0"/>
        <pt x="1529" y="1444" on="1"/>
      </contour>
      <contour>
        <pt x="975" y="1233" on="1"/>
        <pt x="984" y="1268" on="1"/>
        <pt x="543" y="750" on="1"/>
        <pt x="847" y="750" on="1"/>
      </contour>
    </TTGlyph>
    <TTGlyph name="Aacute" xMin="-189" yMin="0" xMax="1414" yMax="1959">
      <component glyphName=".ttfautohint" x="0" y="0" flags="0x0"/>
      <component glyphName="A" x="0" y="0" flags="0x0"/>
      <component glyphName="acute.case" x="787" y="0" flags="0x0"/>
    </TTGlyph>
    <TTGlyph name="Abreve" xMin="-189" yMin="0" xMax="1488" yMax="1896">
      <component glyphName=".ttfautohint" x="0" y="0" flags="0x0"/>
      <component glyphName="A" x="0" y="0" flags="0x0"/>
      <component glyphName="breve.case" x="494" y="0" flags="0x0"/>
    </TTGlyph>
    <TTGlyph name="Acircumflex" xMin="-189" yMin="0" xMax="1391" yMax="1925">
      <component glyphName=".ttfautohint" x="0" y="0" flags="0x0"/>
      <component glyphName="A" x="0" y="0" flags="0x0"/>
      <component glyphName="circumflex.case" x="521" y="0" flags="0x0"/>
    </TTGlyph>
    <TTGlyph name="Adieresis" xMin="-189" yMin="0" xMax="1374" yMax="1878">
      <component glyphName=".ttfautohint" x="0" y="0" flags="0x0"/>
      <component glyphName="A" x="0" y="0" flags="0x0"/>
      <component glyphName="dieresis.case" x="566" y="0" flags="0x0"/>
    </TTGlyph>
    <TTGlyph name="Agrave" xMin="-189" yMin="0" xMax="1193" yMax="1944">
      <component glyphName=".ttfautohint" x="0" y="0" flags="0x0"/>
      <component glyphName="A" x="0" y="0" flags="0x0"/>
      <component glyphName="grave.case" x="568" y="0" flags="0x0"/>
    </TTGlyph>
    <TTGlyph name="Amacron" xMin="-189" yMin="0" xMax="1375" yMax="1729">
      <component glyphName=".ttfautohint" x="0" y="0" flags="0x0"/>
      <component glyphName="A" x="0" y="0" flags="0x0"/>
      <component glyphName="macron.case" x="541" y="0" flags="0x0"/>
    </TTGlyph>
    <TTGlyph name="Aogonek" xMin="-189" yMin="-385" xMax="1193" yMax="1460">
      <contour>
        <pt x="1025" y="-32" on="0"/>
        <pt x="908" y="-155" on="0"/>
        <pt x="908" y="-221" on="1"/>
        <pt x="908" y="-283" on="0"/>
        <pt x="976" y="-283" on="1"/>
        <pt x="1009" y="-283" on="0"/>
        <pt x="1090" y="-258" on="0"/>
        <pt x="1126" y="-238" on="1"/>
        <pt x="1149" y="-273" on="1"/>
        <pt x="1005" y="-385" on="0"/>
        <pt x="850" y="-385" on="1"/>
        <pt x="769" y="-385" on="0"/>
        <pt x="677" y="-320" on="0"/>
        <pt x="677" y="-263" on="1"/>
        <pt x="677" y="-173" on="0"/>
        <pt x="901" y="-37" on="0"/>
        <pt x="1064" y="4" on="1"/>
        <pt x="948" y="6" on="0"/>
        <pt x="888" y="6" on="1"/>
        <pt x="679" y="6" on="0"/>
        <pt x="580" y="0" on="1"/>
        <pt x="589" y="41" on="1"/>
        <pt x="655" y="44" on="0"/>
        <pt x="730" y="69" on="0"/>
        <pt x="766" y="131" on="0"/>
        <pt x="766" y="190" on="1"/>
        <pt x="765" y="213" on="1"/>
        <pt x="747" y="549" on="1"/>
        <pt x="304" y="549" on="1"/>
        <pt x="123" y="294" on="1"/>
        <pt x="58" y="202" on="0"/>
        <pt x="58" y="143" on="1"/>
        <pt x="58" y="51" on="0"/>
        <pt x="229" y="41" on="1"/>
        <pt x="220" y="0" on="1"/>
        <pt x="48" y="6" on="0"/>
        <pt x="-48" y="6" on="1"/>
        <pt x="-124" y="6" on="0"/>
        <pt x="-189" y="0" on="1"/>
        <pt x="-180" y="41" on="1"/>
        <pt x="-127" y="55" on="0"/>
        <pt x="-26" y="149" on="0"/>
        <pt x="52" y="258" on="1"/>
        <pt x="906" y="1460" on="1"/>
        <pt x="923" y="1458" on="0"/>
        <pt x="959" y="1458" on="1"/>
        <pt x="995" y="1458" on="0"/>
        <pt x="1010" y="1460" on="1"/>
        <pt x="1092" y="172" on="1"/>
        <pt x="1098" y="105" on="0"/>
        <pt x="1157" y="43" on="0"/>
        <pt x="1193" y="41" on="1"/>
        <pt x="1185" y="0" on="1"/>
        <pt x="1116" y="3" on="1"/>
      </contour>
      <contour>
        <pt x="715" y="1131" on="1"/>
        <pt x="333" y="590" on="1"/>
        <pt x="745" y="590" on="1"/>
      </contour>
    </TTGlyph>
    <TTGlyph name="Aring" xMin="-189" yMin="0" xMax="1222" yMax="1919">
      <component glyphName=".ttfautohint" x="0" y="0" flags="0x0"/>
      <component glyphName="A" x="0" y="0" flags="0x0"/>
      <component glyphName="ring.case" x="685" y="0" flags="0x0"/>
    </TTGlyph>
    <TTGlyph name="Atilde" xMin="-189" yMin="0" xMax="1476" yMax="1898">
      <component glyphName=".ttfautohint" x="0" y="0" flags="0x0"/>
      <component glyphName="A" x="0" y="0" flags="0x0"/>
      <component glyphName="tilde.case" x="468" y="0" flags="0x0"/>
    </TTGlyph>
    <TTGlyph name="B" xMin="-86" yMin="0" xMax="1354" yMax="1450">
      <contour>
        <pt x="953" y="754" on="0"/>
        <pt x="1160" y="669" on="0"/>
        <pt x="1264" y="530" on="0"/>
        <pt x="1264" y="443" on="1"/>
        <pt x="1264" y="302" on="0"/>
        <pt x="1091" y="102" on="0"/>
        <pt x="786" y="0" on="0"/>
        <pt x="590" y="0" on="1"/>
        <pt x="561" y="0" on="0"/>
        <pt x="471" y="2" on="1"/>
        <pt x="343" y="6" on="0"/>
        <pt x="231" y="6" on="1"/>
        <pt x="26" y="6" on="0"/>
        <pt x="-86" y="0" on="1"/>
        <pt x="-78" y="41" on="1"/>
        <pt x="-4" y="44" on="0"/>
        <pt x="69" y="70" on="0"/>
        <pt x="113" y="140" on="0"/>
        <pt x="133" y="217" on="1"/>
        <pt x="403" y="1233" on="1"/>
        <pt x="421" y="1298" on="0"/>
        <pt x="421" y="1332" on="1"/>
        <pt x="421" y="1372" on="0"/>
        <pt x="361" y="1408" on="0"/>
        <pt x="283" y="1409" on="1"/>
        <pt x="293" y="1450" on="1"/>
        <pt x="401" y="1444" on="0"/>
        <pt x="604" y="1444" on="1"/>
        <pt x="675" y="1444" on="0"/>
        <pt x="777" y="1446" on="1"/>
        <pt x="863" y="1448" on="0"/>
        <pt x="903" y="1448" on="1"/>
        <pt x="1134" y="1448" on="0"/>
        <pt x="1354" y="1306" on="0"/>
        <pt x="1354" y="1177" on="1"/>
        <pt x="1354" y="1071" on="0"/>
        <pt x="1216" y="894" on="0"/>
        <pt x="966" y="778" on="0"/>
        <pt x="803" y="761" on="1"/>
      </contour>
      <contour>
        <pt x="832" y="1409" on="0"/>
        <pt x="783" y="1385" on="0"/>
        <pt x="751" y="1324" on="0"/>
        <pt x="735" y="1264" on="1"/>
        <pt x="605" y="770" on="1"/>
        <pt x="677" y="770" on="1"/>
        <pt x="786" y="770" on="0"/>
        <pt x="948" y="893" on="0"/>
        <pt x="1032" y="1095" on="0"/>
        <pt x="1032" y="1210" on="1"/>
        <pt x="1032" y="1307" on="0"/>
        <pt x="961" y="1409" on="0"/>
        <pt x="875" y="1409" on="1"/>
      </contour>
      <contour>
        <pt x="661" y="47" on="0"/>
        <pt x="834" y="163" on="0"/>
        <pt x="922" y="360" on="0"/>
        <pt x="922" y="480" on="1"/>
        <pt x="922" y="597" on="0"/>
        <pt x="809" y="735" on="0"/>
        <pt x="686" y="735" on="1"/>
        <pt x="596" y="735" on="1"/>
        <pt x="459" y="217" on="1"/>
        <pt x="442" y="151" on="0"/>
        <pt x="442" y="123" on="1"/>
        <pt x="442" y="86" on="0"/>
        <pt x="486" y="47" on="0"/>
        <pt x="540" y="47" on="1"/>
      </contour>
    </TTGlyph>
    <TTGlyph name="C" xMin="87" yMin="-29" xMax="1527" yMax="1479">
      <contour>
        <pt x="1459" y="1273" on="0"/>
        <pt x="1396" y="979" on="1"/>
        <pt x="1351" y="979" on="1"/>
        <pt x="1367" y="1077" on="0"/>
        <pt x="1367" y="1142" on="1"/>
        <pt x="1367" y="1236" on="0"/>
        <pt x="1334" y="1296" on="1"/>
        <pt x="1261" y="1430" on="0"/>
        <pt x="1092" y="1430" on="1"/>
        <pt x="927" y="1430" on="0"/>
        <pt x="631" y="1141" on="0"/>
        <pt x="452" y="680" on="0"/>
        <pt x="452" y="438" on="1"/>
        <pt x="452" y="235" on="0"/>
        <pt x="599" y="33" on="0"/>
        <pt x="730" y="33" on="1"/>
        <pt x="808" y="33" on="0"/>
        <pt x="974" y="105" on="0"/>
        <pt x="1035" y="168" on="1"/>
        <pt x="1088" y="223" on="0"/>
        <pt x="1168" y="366" on="0"/>
        <pt x="1220" y="492" on="1"/>
        <pt x="1265" y="492" on="1"/>
        <pt x="1168" y="137" on="0"/>
        <pt x="1144" y="0" on="1"/>
        <pt x="1099" y="0" on="1"/>
        <pt x="1105" y="44" on="0"/>
        <pt x="1105" y="70" on="1"/>
        <pt x="1105" y="122" on="0"/>
        <pt x="1080" y="122" on="1"/>
        <pt x="1064" y="122" on="0"/>
        <pt x="1038" y="104" on="1"/>
        <pt x="943" y="40" on="0"/>
        <pt x="755" y="-29" on="0"/>
        <pt x="637" y="-29" on="1"/>
        <pt x="363" y="-29" on="0"/>
        <pt x="87" y="232" on="0"/>
        <pt x="87" y="478" on="1"/>
        <pt x="87" y="720" on="0"/>
        <pt x="344" y="1185" on="0"/>
        <pt x="794" y="1479" on="0"/>
        <pt x="1067" y="1479" on="1"/>
        <pt x="1146" y="1479" on="0"/>
        <pt x="1259" y="1443" on="0"/>
        <pt x="1334" y="1387" on="0"/>
        <pt x="1371" y="1346" on="1"/>
        <pt x="1386" y="1328" on="0"/>
        <pt x="1401" y="1328" on="1"/>
        <pt x="1438" y="1328" on="0"/>
        <pt x="1484" y="1450" on="1"/>
        <pt x="1527" y="1450" on="1"/>
      </contour>
    </TTGlyph>
    <TTGlyph name="Cacute" xMin="87" yMin="-29" xMax="1527" yMax="1959">
      <component glyphName=".ttfautohint" x="87" y="0" flags="0x0"/>
      <component glyphName="C" x="0" y="0" flags="0x0"/>
      <component glyphName="acute.case" x="859" y="0" flags="0x0"/>
    </TTGlyph>
    <TTGlyph name="Cacute.loclPLK" xMin="87" yMin="-29" xMax="1527" yMax="1992">
      <component glyphName=".ttfautohint" x="87" y="0" flags="0x0"/>
      <component glyphName="C" x="0" y="0" flags="0x0"/>
      <component glyphName="acute.loclPLK.case" x="916" y="0" flags="0x0"/>
    </TTGlyph>
    <TTGlyph name="Ccaron" xMin="87" yMin="-29" xMax="1611" yMax="1919">
      <component glyphName=".ttfautohint" x="87" y="0" flags="0x0"/>
      <component glyphName="C" x="0" y="0" flags="0x0"/>
      <component glyphName="caron.case" x="587" y="0" flags="0x0"/>
    </TTGlyph>
    <TTGlyph name="Ccedilla" xMin="87" yMin="-385" xMax="1527" yMax="1479">
      <contour>
        <pt x="1459" y="1273" on="0"/>
        <pt x="1396" y="979" on="1"/>
        <pt x="1351" y="979" on="1"/>
        <pt x="1367" y="1077" on="0"/>
        <pt x="1367" y="1142" on="1"/>
        <pt x="1367" y="1236" on="0"/>
        <pt x="1334" y="1296" on="1"/>
        <pt x="1261" y="1430" on="0"/>
        <pt x="1092" y="1430" on="1"/>
        <pt x="927" y="1430" on="0"/>
        <pt x="631" y="1141" on="0"/>
        <pt x="452" y="680" on="0"/>
        <pt x="452" y="438" on="1"/>
        <pt x="452" y="235" on="0"/>
        <pt x="599" y="33" on="0"/>
        <pt x="730" y="33" on="1"/>
        <pt x="808" y="33" on="0"/>
        <pt x="974" y="105" on="0"/>
        <pt x="1035" y="168" on="1"/>
        <pt x="1088" y="223" on="0"/>
        <pt x="1168" y="366" on="0"/>
        <pt x="1220" y="492" on="1"/>
        <pt x="1265" y="492" on="1"/>
        <pt x="1168" y="137" on="0"/>
        <pt x="1144" y="0" on="1"/>
        <pt x="1099" y="0" on="1"/>
        <pt x="1105" y="44" on="0"/>
        <pt x="1105" y="70" on="1"/>
        <pt x="1105" y="122" on="0"/>
        <pt x="1080" y="122" on="1"/>
        <pt x="1064" y="122" on="0"/>
        <pt x="1038" y="104" on="1"/>
        <pt x="948" y="43" on="0"/>
        <pt x="771" y="-25" on="0"/>
        <pt x="662" y="-29" on="1"/>
        <pt x="616" y="-129" on="1"/>
        <pt x="673" y="-109" on="0"/>
        <pt x="734" y="-109" on="1"/>
        <pt x="798" y="-109" on="0"/>
        <pt x="872" y="-158" on="0"/>
        <pt x="872" y="-206" on="1"/>
        <pt x="872" y="-267" on="0"/>
        <pt x="769" y="-347" on="0"/>
        <pt x="610" y="-385" on="0"/>
        <pt x="524" y="-385" on="1"/>
        <pt x="455" y="-385" on="0"/>
        <pt x="334" y="-360" on="0"/>
        <pt x="300" y="-345" on="1"/>
        <pt x="313" y="-313" on="1"/>
        <pt x="389" y="-336" on="0"/>
        <pt x="478" y="-336" on="1"/>
        <pt x="545" y="-336" on="0"/>
        <pt x="662" y="-294" on="0"/>
        <pt x="662" y="-242" on="1"/>
        <pt x="662" y="-195" on="0"/>
        <pt x="597" y="-195" on="1"/>
        <pt x="561" y="-195" on="0"/>
        <pt x="525" y="-209" on="1"/>
        <pt x="607" y="-29" on="1"/>
        <pt x="347" y="-22" on="0"/>
        <pt x="87" y="239" on="0"/>
        <pt x="87" y="478" on="1"/>
        <pt x="87" y="720" on="0"/>
        <pt x="344" y="1185" on="0"/>
        <pt x="794" y="1479" on="0"/>
        <pt x="1067" y="1479" on="1"/>
        <pt x="1146" y="1479" on="0"/>
        <pt x="1259" y="1443" on="0"/>
        <pt x="1334" y="1387" on="0"/>
        <pt x="1371" y="1346" on="1"/>
        <pt x="1386" y="1328" on="0"/>
        <pt x="1401" y="1328" on="1"/>
        <pt x="1438" y="1328" on="0"/>
        <pt x="1484" y="1450" on="1"/>
        <pt x="1527" y="1450" on="1"/>
      </contour>
    </TTGlyph>
    <TTGlyph name="Ccircumflex" xMin="87" yMin="-29" xMax="1527" yMax="1925">
      <component glyphName=".ttfautohint" x="87" y="0" flags="0x0"/>
      <component glyphName="C" x="0" y="0" flags="0x0"/>
      <component glyphName="circumflex.case" x="593" y="0" flags="0x0"/>
    </TTGlyph>
    <TTGlyph name="Cdotaccent" xMin="87" yMin="-29" xMax="1527" yMax="1883">
      <component glyphName=".ttfautohint" x="87" y="0" flags="0x0"/>
      <component glyphName="C" x="0" y="0" flags="0x0"/>
      <component glyphName="dotaccent.case" x="863" y="0" flags="0x0"/>
    </TTGlyph>
    <TTGlyph name="D" xMin="-77" yMin="0" xMax="1549" yMax="1450">
      <contour>
        <pt x="1549" y="726" on="0"/>
        <pt x="1319" y="283" on="0"/>
        <pt x="862" y="0" on="0"/>
        <pt x="539" y="0" on="1"/>
        <pt x="519" y="0" on="0"/>
        <pt x="437" y="2" on="1"/>
        <pt x="323" y="6" on="0"/>
        <pt x="230" y="6" on="1"/>
        <pt x="28" y="6" on="0"/>
        <pt x="-77" y="0" on="1"/>
        <pt x="-71" y="41" on="1"/>
        <pt x="-1" y="44" on="0"/>
        <pt x="70" y="70" on="0"/>
        <pt x="114" y="141" on="0"/>
        <pt x="134" y="217" on="1"/>
        <pt x="402" y="1233" on="1"/>
        <pt x="417" y="1291" on="0"/>
        <pt x="417" y="1321" on="1"/>
        <pt x="417" y="1364" on="0"/>
        <pt x="358" y="1405" on="0"/>
        <pt x="283" y="1409" on="1"/>
        <pt x="289" y="1450" on="1"/>
        <pt x="431" y="1443" on="0"/>
        <pt x="560" y="1443" on="1"/>
        <pt x="625" y="1444" on="1"/>
        <pt x="841" y="1450" on="0"/>
        <pt x="931" y="1450" on="1"/>
        <pt x="1230" y="1450" on="0"/>
        <pt x="1549" y="1202" on="0"/>
        <pt x="1549" y="961" on="1"/>
      </contour>
      <contour>
        <pt x="748" y="37" on="0"/>
        <pt x="1056" y="327" on="0"/>
        <pt x="1217" y="783" on="0"/>
        <pt x="1217" y="1025" on="1"/>
        <pt x="1217" y="1219" on="0"/>
        <pt x="1058" y="1413" on="0"/>
        <pt x="886" y="1413" on="1"/>
        <pt x="833" y="1413" on="0"/>
        <pt x="780" y="1387" on="0"/>
        <pt x="749" y="1318" on="0"/>
        <pt x="727" y="1237" on="1"/>
        <pt x="459" y="213" on="1"/>
        <pt x="437" y="130" on="0"/>
        <pt x="437" y="100" on="1"/>
        <pt x="437" y="65" on="0"/>
        <pt x="482" y="37" on="0"/>
        <pt x="539" y="37" on="1"/>
      </contour>
    </TTGlyph>
    <TTGlyph name="Dcaron" xMin="-77" yMin="0" xMax="1549" yMax="1919">
      <component glyphName=".ttfautohint" x="0" y="0" flags="0x0"/>
      <component glyphName="D" x="0" y="0" flags="0x0"/>
      <component glyphName="caron.case" x="472" y="0" flags="0x0"/>
    </TTGlyph>
    <TTGlyph name="Dcroat" xMin="-77" yMin="0" xMax="1549" yMax="1450">
      <component glyphName=".ttfautohint" x="0" y="0" flags="0x0"/>
      <component glyphName="Eth" x="0" y="0" flags="0x0"/>
    </TTGlyph>
    <TTGlyph name="Delta" xMin="39" yMin="0" xMax="944" yMax="1479">
      <contour>
        <pt x="719" y="6" on="0"/>
        <pt x="493" y="6" on="1"/>
        <pt x="266" y="6" on="0"/>
        <pt x="39" y="0" on="1"/>
        <pt x="516" y="1479" on="1"/>
        <pt x="548" y="1479" on="1"/>
        <pt x="944" y="0" on="1"/>
      </contour>
      <contour>
        <pt x="634" y="61" on="1"/>
        <pt x="387" y="963" on="1"/>
        <pt x="100" y="61" on="1"/>
      </contour>
    </TTGlyph>
    <TTGlyph name="E" xMin="-88" yMin="0" xMax="1375" yMax="1450">
      <contour>
        <pt x="1249" y="1444" on="0"/>
        <pt x="1375" y="1450" on="1"/>
        <pt x="1325" y="1316" on="0"/>
        <pt x="1297" y="1208" on="1"/>
        <pt x="1280" y="1142" on="0"/>
        <pt x="1270" y="1081" on="1"/>
        <pt x="1224" y="1081" on="1"/>
        <pt x="1227" y="1122" on="0"/>
        <pt x="1227" y="1156" on="1"/>
        <pt x="1227" y="1249" on="0"/>
        <pt x="1182" y="1356" on="0"/>
        <pt x="1084" y="1403" on="0"/>
        <pt x="1000" y="1403" on="1"/>
        <pt x="936" y="1403" on="1"/>
        <pt x="864" y="1403" on="0"/>
        <pt x="793" y="1379" on="0"/>
        <pt x="750" y="1310" on="0"/>
        <pt x="729" y="1233" on="1"/>
        <pt x="600" y="750" on="1"/>
        <pt x="676" y="750" on="1"/>
        <pt x="778" y="750" on="0"/>
        <pt x="916" y="893" on="0"/>
        <pt x="957" y="995" on="1"/>
        <pt x="1003" y="995" on="1"/>
        <pt x="970" y="896" on="0"/>
        <pt x="940" y="778" on="1"/>
        <pt x="927" y="729" on="1"/>
        <pt x="902" y="636" on="0"/>
        <pt x="869" y="463" on="1"/>
        <pt x="823" y="463" on="1"/>
        <pt x="825" y="493" on="0"/>
        <pt x="825" y="508" on="1"/>
        <pt x="825" y="709" on="0"/>
        <pt x="654" y="709" on="1"/>
        <pt x="589" y="709" on="1"/>
        <pt x="458" y="217" on="1"/>
        <pt x="440" y="153" on="0"/>
        <pt x="440" y="118" on="1"/>
        <pt x="440" y="88" on="0"/>
        <pt x="467" y="58" on="0"/>
        <pt x="524" y="47" on="0"/>
        <pt x="576" y="47" on="1"/>
        <pt x="652" y="47" on="1"/>
        <pt x="763" y="47" on="0"/>
        <pt x="914" y="115" on="0"/>
        <pt x="1032" y="270" on="0"/>
        <pt x="1094" y="410" on="1"/>
        <pt x="1140" y="410" on="1"/>
        <pt x="1118" y="352" on="0"/>
        <pt x="1096" y="262" on="1"/>
        <pt x="1062" y="138" on="0"/>
        <pt x="1042" y="0" on="1"/>
        <pt x="903" y="6" on="0"/>
        <pt x="577" y="6" on="1"/>
        <pt x="134" y="6" on="0"/>
        <pt x="-88" y="0" on="1"/>
        <pt x="-79" y="41" on="1"/>
        <pt x="-5" y="44" on="0"/>
        <pt x="69" y="70" on="0"/>
        <pt x="112" y="140" on="0"/>
        <pt x="132" y="217" on="1"/>
        <pt x="403" y="1233" on="1"/>
        <pt x="421" y="1303" on="0"/>
        <pt x="421" y="1332" on="1"/>
        <pt x="421" y="1362" on="0"/>
        <pt x="393" y="1394" on="0"/>
        <pt x="336" y="1407" on="0"/>
        <pt x="283" y="1409" on="1"/>
        <pt x="294" y="1450" on="1"/>
        <pt x="515" y="1444" on="0"/>
        <pt x="958" y="1444" on="1"/>
      </contour>
    </TTGlyph>
    <TTGlyph name="Eacute" xMin="-88" yMin="0" xMax="1375" yMax="1959">
      <component glyphName=".ttfautohint" x="0" y="0" flags="0x0"/>
      <component glyphName="E" x="0" y="0" flags="0x0"/>
      <component glyphName="acute.case" x="704" y="0" flags="0x0"/>
    </TTGlyph>
    <TTGlyph name="Ebreve" xMin="-88" yMin="0" xMax="1405" yMax="1896">
      <component glyphName=".ttfautohint" x="0" y="0" flags="0x0"/>
      <component glyphName="E" x="0" y="0" flags="0x0"/>
      <component glyphName="breve.case" x="411" y="0" flags="0x0"/>
    </TTGlyph>
    <TTGlyph name="Ecaron" xMin="-88" yMin="0" xMax="1456" yMax="1919">
      <component glyphName=".ttfautohint" x="0" y="0" flags="0x0"/>
      <component glyphName="E" x="0" y="0" flags="0x0"/>
      <component glyphName="caron.case" x="432" y="0" flags="0x0"/>
    </TTGlyph>
    <TTGlyph name="Ecircumflex" xMin="-88" yMin="0" xMax="1375" yMax="1925">
      <component glyphName=".ttfautohint" x="0" y="0" flags="0x0"/>
      <component glyphName="E" x="0" y="0" flags="0x0"/>
      <component glyphName="circumflex.case" x="438" y="0" flags="0x0"/>
    </TTGlyph>
    <TTGlyph name="Edieresis" xMin="-88" yMin="0" xMax="1375" yMax="1878">
      <component glyphName=".ttfautohint" x="0" y="0" flags="0x0"/>
      <component glyphName="E" x="0" y="0" flags="0x0"/>
      <component glyphName="dieresis.case" x="483" y="0" flags="0x0"/>
    </TTGlyph>
    <TTGlyph name="Edotaccent" xMin="-88" yMin="0" xMax="1375" yMax="1883">
      <component glyphName=".ttfautohint" x="0" y="0" flags="0x0"/>
      <component glyphName="E" x="0" y="0" flags="0x0"/>
      <component glyphName="dotaccent.case" x="708" y="0" flags="0x0"/>
    </TTGlyph>
    <TTGlyph name="Egrave" xMin="-88" yMin="0" xMax="1375" yMax="1944">
      <component glyphName=".ttfautohint" x="0" y="0" flags="0x0"/>
      <component glyphName="E" x="0" y="0" flags="0x0"/>
      <component glyphName="grave.case" x="485" y="0" flags="0x0"/>
    </TTGlyph>
    <TTGlyph name="Emacron" xMin="-88" yMin="0" xMax="1375" yMax="1729">
      <component glyphName=".ttfautohint" x="0" y="0" flags="0x0"/>
      <component glyphName="E" x="0" y="0" flags="0x0"/>
      <component glyphName="macron.case" x="458" y="0" flags="0x0"/>
    </TTGlyph>
    <TTGlyph name="Eng" xMin="-82" yMin="-385" xMax="1645" yMax="1450">
      <contour>
        <pt x="1575" y="1444" on="0"/>
        <pt x="1645" y="1450" on="1"/>
        <pt x="1635" y="1409" on="1"/>
        <pt x="1562" y="1406" on="0"/>
        <pt x="1486" y="1376" on="0"/>
        <pt x="1443" y="1303" on="0"/>
        <pt x="1423" y="1225" on="1"/>
        <pt x="1111" y="48" on="1"/>
        <pt x="1065" y="-166" on="0"/>
        <pt x="901" y="-385" on="0"/>
        <pt x="754" y="-385" on="1"/>
        <pt x="653" y="-385" on="0"/>
        <pt x="508" y="-308" on="0"/>
        <pt x="508" y="-229" on="1"/>
        <pt x="508" y="-186" on="0"/>
        <pt x="550" y="-116" on="0"/>
        <pt x="628" y="-75" on="0"/>
        <pt x="681" y="-75" on="1"/>
        <pt x="750" y="-75" on="0"/>
        <pt x="839" y="-142" on="0"/>
        <pt x="839" y="-200" on="1"/>
        <pt x="839" y="-247" on="0"/>
        <pt x="778" y="-321" on="0"/>
        <pt x="724" y="-344" on="1"/>
        <pt x="745" y="-351" on="0"/>
        <pt x="769" y="-351" on="1"/>
        <pt x="880" y="-351" on="0"/>
        <pt x="1013" y="-163" on="0"/>
        <pt x="1052" y="-12" on="1"/>
        <pt x="422" y="1117" on="1"/>
        <pt x="185" y="225" on="1"/>
        <pt x="167" y="156" on="0"/>
        <pt x="167" y="125" on="1"/>
        <pt x="167" y="93" on="0"/>
        <pt x="196" y="58" on="0"/>
        <pt x="258" y="43" on="0"/>
        <pt x="313" y="41" on="1"/>
        <pt x="304" y="0" on="1"/>
        <pt x="231" y="6" on="0"/>
        <pt x="111" y="6" on="1"/>
        <pt x="-13" y="6" on="0"/>
        <pt x="-82" y="0" on="1"/>
        <pt x="-73" y="41" on="1"/>
        <pt x="0" y="44" on="0"/>
        <pt x="75" y="74" on="0"/>
        <pt x="119" y="147" on="0"/>
        <pt x="139" y="225" on="1"/>
        <pt x="407" y="1233" on="1"/>
        <pt x="424" y="1295" on="0"/>
        <pt x="424" y="1328" on="1"/>
        <pt x="424" y="1360" on="0"/>
        <pt x="394" y="1393" on="0"/>
        <pt x="330" y="1407" on="0"/>
        <pt x="272" y="1409" on="1"/>
        <pt x="282" y="1450" on="1"/>
        <pt x="346" y="1444" on="0"/>
        <pt x="464" y="1444" on="1"/>
        <pt x="560" y="1444" on="0"/>
        <pt x="630" y="1450" on="1"/>
        <pt x="1175" y="458" on="1"/>
        <pt x="1377" y="1225" on="1"/>
        <pt x="1394" y="1290" on="0"/>
        <pt x="1394" y="1325" on="1"/>
        <pt x="1394" y="1357" on="0"/>
        <pt x="1366" y="1392" on="0"/>
        <pt x="1304" y="1407" on="0"/>
        <pt x="1249" y="1409" on="1"/>
        <pt x="1260" y="1450" on="1"/>
        <pt x="1330" y="1444" on="0"/>
        <pt x="1457" y="1444" on="1"/>
      </contour>
    </TTGlyph>
    <TTGlyph name="Eogonek" xMin="-88" yMin="-385" xMax="1375" yMax="1450">
      <contour>
        <pt x="1249" y="1444" on="0"/>
        <pt x="1375" y="1450" on="1"/>
        <pt x="1325" y="1316" on="0"/>
        <pt x="1297" y="1208" on="1"/>
        <pt x="1280" y="1142" on="0"/>
        <pt x="1270" y="1081" on="1"/>
        <pt x="1224" y="1081" on="1"/>
        <pt x="1227" y="1122" on="0"/>
        <pt x="1227" y="1156" on="1"/>
        <pt x="1227" y="1249" on="0"/>
        <pt x="1182" y="1356" on="0"/>
        <pt x="1084" y="1403" on="0"/>
        <pt x="1000" y="1403" on="1"/>
        <pt x="936" y="1403" on="1"/>
        <pt x="864" y="1403" on="0"/>
        <pt x="793" y="1379" on="0"/>
        <pt x="750" y="1310" on="0"/>
        <pt x="729" y="1233" on="1"/>
        <pt x="600" y="750" on="1"/>
        <pt x="676" y="750" on="1"/>
        <pt x="778" y="750" on="0"/>
        <pt x="916" y="893" on="0"/>
        <pt x="957" y="995" on="1"/>
        <pt x="1003" y="995" on="1"/>
        <pt x="970" y="896" on="0"/>
        <pt x="940" y="778" on="1"/>
        <pt x="927" y="729" on="1"/>
        <pt x="902" y="636" on="0"/>
        <pt x="869" y="463" on="1"/>
        <pt x="823" y="463" on="1"/>
        <pt x="825" y="493" on="0"/>
        <pt x="825" y="508" on="1"/>
        <pt x="825" y="709" on="0"/>
        <pt x="654" y="709" on="1"/>
        <pt x="589" y="709" on="1"/>
        <pt x="458" y="217" on="1"/>
        <pt x="440" y="153" on="0"/>
        <pt x="440" y="118" on="1"/>
        <pt x="440" y="88" on="0"/>
        <pt x="467" y="58" on="0"/>
        <pt x="524" y="47" on="0"/>
        <pt x="576" y="47" on="1"/>
        <pt x="652" y="47" on="1"/>
        <pt x="763" y="47" on="0"/>
        <pt x="914" y="115" on="0"/>
        <pt x="1032" y="270" on="0"/>
        <pt x="1094" y="410" on="1"/>
        <pt x="1140" y="410" on="1"/>
        <pt x="1118" y="352" on="0"/>
        <pt x="1096" y="262" on="1"/>
        <pt x="1062" y="138" on="0"/>
        <pt x="1042" y="0" on="1"/>
        <pt x="1022" y="1" on="1"/>
        <pt x="933" y="-35" on="0"/>
        <pt x="820" y="-156" on="0"/>
        <pt x="820" y="-221" on="1"/>
        <pt x="820" y="-283" on="0"/>
        <pt x="888" y="-283" on="1"/>
        <pt x="921" y="-283" on="0"/>
        <pt x="1002" y="-258" on="0"/>
        <pt x="1038" y="-238" on="1"/>
        <pt x="1061" y="-273" on="1"/>
        <pt x="917" y="-385" on="0"/>
        <pt x="762" y="-385" on="1"/>
        <pt x="681" y="-385" on="0"/>
        <pt x="589" y="-320" on="0"/>
        <pt x="589" y="-263" on="1"/>
        <pt x="589" y="-174" on="0"/>
        <pt x="808" y="-39" on="0"/>
        <pt x="969" y="3" on="1"/>
        <pt x="842" y="6" on="0"/>
        <pt x="577" y="6" on="1"/>
        <pt x="134" y="6" on="0"/>
        <pt x="-88" y="0" on="1"/>
        <pt x="-79" y="41" on="1"/>
        <pt x="-5" y="44" on="0"/>
        <pt x="69" y="70" on="0"/>
        <pt x="112" y="140" on="0"/>
        <pt x="132" y="217" on="1"/>
        <pt x="403" y="1233" on="1"/>
        <pt x="421" y="1303" on="0"/>
        <pt x="421" y="1332" on="1"/>
        <pt x="421" y="1362" on="0"/>
        <pt x="393" y="1394" on="0"/>
        <pt x="336" y="1407" on="0"/>
        <pt x="283" y="1409" on="1"/>
        <pt x="294" y="1450" on="1"/>
        <pt x="515" y="1444" on="0"/>
        <pt x="958" y="1444" on="1"/>
      </contour>
    </TTGlyph>
    <TTGlyph name="Eth" xMin="-77" yMin="0" xMax="1549" yMax="1450">
      <contour>
        <pt x="1230" y="1450" on="0"/>
        <pt x="1549" y="1202" on="0"/>
        <pt x="1549" y="961" on="1"/>
        <pt x="1549" y="726" on="0"/>
        <pt x="1319" y="283" on="0"/>
        <pt x="862" y="0" on="0"/>
        <pt x="539" y="0" on="1"/>
        <pt x="519" y="0" on="0"/>
        <pt x="437" y="2" on="1"/>
        <pt x="323" y="6" on="0"/>
        <pt x="230" y="6" on="1"/>
        <pt x="28" y="6" on="0"/>
        <pt x="-77" y="0" on="1"/>
        <pt x="-71" y="41" on="1"/>
        <pt x="-1" y="44" on="0"/>
        <pt x="70" y="70" on="0"/>
        <pt x="114" y="141" on="0"/>
        <pt x="134" y="217" on="1"/>
        <pt x="263" y="707" on="1"/>
        <pt x="156" y="707" on="1"/>
        <pt x="168" y="759" on="1"/>
        <pt x="277" y="759" on="1"/>
        <pt x="402" y="1233" on="1"/>
        <pt x="417" y="1291" on="0"/>
        <pt x="417" y="1321" on="1"/>
        <pt x="417" y="1364" on="0"/>
        <pt x="358" y="1405" on="0"/>
        <pt x="283" y="1409" on="1"/>
        <pt x="289" y="1450" on="1"/>
        <pt x="431" y="1443" on="0"/>
        <pt x="560" y="1443" on="1"/>
        <pt x="625" y="1444" on="1"/>
        <pt x="841" y="1450" on="0"/>
        <pt x="931" y="1450" on="1"/>
      </contour>
      <contour>
        <pt x="748" y="37" on="0"/>
        <pt x="1056" y="327" on="0"/>
        <pt x="1217" y="783" on="0"/>
        <pt x="1217" y="1025" on="1"/>
        <pt x="1217" y="1219" on="0"/>
        <pt x="1058" y="1413" on="0"/>
        <pt x="886" y="1413" on="1"/>
        <pt x="833" y="1413" on="0"/>
        <pt x="780" y="1387" on="0"/>
        <pt x="749" y="1318" on="0"/>
        <pt x="727" y="1237" on="1"/>
        <pt x="602" y="759" on="1"/>
        <pt x="988" y="759" on="1"/>
        <pt x="975" y="707" on="1"/>
        <pt x="588" y="707" on="1"/>
        <pt x="459" y="213" on="1"/>
        <pt x="437" y="130" on="0"/>
        <pt x="437" y="100" on="1"/>
        <pt x="437" y="65" on="0"/>
        <pt x="482" y="37" on="0"/>
        <pt x="539" y="37" on="1"/>
      </contour>
    </TTGlyph>
    <TTGlyph name="Euro" xMin="73" yMin="-29" xMax="1394" yMax="1479">
      <contour>
        <pt x="1350" y="1374" on="0"/>
        <pt x="1394" y="1281" on="0"/>
        <pt x="1394" y="1230" on="1"/>
        <pt x="1394" y="1175" on="0"/>
        <pt x="1346" y="1087" on="0"/>
        <pt x="1266" y="1038" on="0"/>
        <pt x="1220" y="1038" on="1"/>
        <pt x="1163" y="1038" on="0"/>
        <pt x="1093" y="1109" on="0"/>
        <pt x="1093" y="1165" on="1"/>
        <pt x="1093" y="1235" on="0"/>
        <pt x="1195" y="1348" on="0"/>
        <pt x="1268" y="1376" on="1"/>
        <pt x="1258" y="1398" on="0"/>
        <pt x="1183" y="1432" on="0"/>
        <pt x="1139" y="1432" on="1"/>
        <pt x="1045" y="1432" on="0"/>
        <pt x="862" y="1276" on="0"/>
        <pt x="706" y="1014" on="0"/>
        <pt x="650" y="854" on="1"/>
        <pt x="1009" y="854" on="1"/>
        <pt x="974" y="813" on="1"/>
        <pt x="636" y="813" on="1"/>
        <pt x="611" y="738" on="0"/>
        <pt x="590" y="649" on="1"/>
        <pt x="839" y="649" on="1"/>
        <pt x="802" y="608" on="1"/>
        <pt x="581" y="608" on="1"/>
        <pt x="550" y="456" on="0"/>
        <pt x="550" y="328" on="1"/>
        <pt x="550" y="167" on="0"/>
        <pt x="641" y="16" on="0"/>
        <pt x="741" y="16" on="1"/>
        <pt x="783" y="16" on="0"/>
        <pt x="875" y="43" on="0"/>
        <pt x="899" y="64" on="1"/>
        <pt x="864" y="83" on="0"/>
        <pt x="820" y="156" on="0"/>
        <pt x="820" y="200" on="1"/>
        <pt x="820" y="256" on="0"/>
        <pt x="870" y="347" on="0"/>
        <pt x="953" y="399" on="0"/>
        <pt x="1001" y="399" on="1"/>
        <pt x="1062" y="399" on="0"/>
        <pt x="1127" y="329" on="0"/>
        <pt x="1127" y="269" on="1"/>
        <pt x="1127" y="198" on="0"/>
        <pt x="1028" y="77" on="0"/>
        <pt x="951" y="34" on="1"/>
        <pt x="835" y="-29" on="0"/>
        <pt x="685" y="-29" on="1"/>
        <pt x="463" y="-29" on="0"/>
        <pt x="227" y="200" on="0"/>
        <pt x="227" y="433" on="1"/>
        <pt x="227" y="517" on="0"/>
        <pt x="246" y="608" on="1"/>
        <pt x="73" y="608" on="1"/>
        <pt x="85" y="649" on="1"/>
        <pt x="255" y="649" on="1"/>
        <pt x="276" y="734" on="0"/>
        <pt x="307" y="813" on="1"/>
        <pt x="128" y="813" on="1"/>
        <pt x="140" y="854" on="1"/>
        <pt x="324" y="854" on="1"/>
        <pt x="396" y="1023" on="0"/>
        <pt x="622" y="1306" on="0"/>
        <pt x="923" y="1479" on="0"/>
        <pt x="1095" y="1479" on="1"/>
        <pt x="1227" y="1479" on="0"/>
        <pt x="1310" y="1408" on="1"/>
      </contour>
    </TTGlyph>
    <TTGlyph name="Euro.smcp" xMin="44" yMin="-29" xMax="1244" yMax="1274">
      <contour>
        <pt x="1199" y="1168" on="0"/>
        <pt x="1244" y="1075" on="0"/>
        <pt x="1244" y="1025" on="1"/>
        <pt x="1244" y="971" on="0"/>
        <pt x="1195" y="883" on="0"/>
        <pt x="1115" y="833" on="0"/>
        <pt x="1069" y="833" on="1"/>
        <pt x="1012" y="833" on="0"/>
        <pt x="942" y="904" on="0"/>
        <pt x="942" y="960" on="1"/>
        <pt x="942" y="1030" on="0"/>
        <pt x="1044" y="1143" on="0"/>
        <pt x="1117" y="1171" on="1"/>
        <pt x="1107" y="1194" on="0"/>
        <pt x="1032" y="1227" on="0"/>
        <pt x="988" y="1227" on="1"/>
        <pt x="908" y="1227" on="0"/>
        <pt x="755" y="1100" on="0"/>
        <pt x="629" y="885" on="0"/>
        <pt x="585" y="752" on="1"/>
        <pt x="956" y="752" on="1"/>
        <pt x="921" y="711" on="1"/>
        <pt x="572" y="711" on="1"/>
        <pt x="547" y="627" on="0"/>
        <pt x="534" y="547" on="1"/>
        <pt x="786" y="547" on="1"/>
        <pt x="749" y="506" on="1"/>
        <pt x="527" y="506" on="1"/>
        <pt x="514" y="410" on="0"/>
        <pt x="514" y="333" on="1"/>
        <pt x="514" y="167" on="0"/>
        <pt x="589" y="16" on="0"/>
        <pt x="672" y="16" on="1"/>
        <pt x="714" y="16" on="0"/>
        <pt x="806" y="43" on="0"/>
        <pt x="830" y="64" on="1"/>
        <pt x="796" y="83" on="0"/>
        <pt x="751" y="156" on="0"/>
        <pt x="751" y="200" on="1"/>
        <pt x="751" y="256" on="0"/>
        <pt x="801" y="347" on="0"/>
        <pt x="885" y="399" on="0"/>
        <pt x="933" y="399" on="1"/>
        <pt x="994" y="399" on="0"/>
        <pt x="1058" y="329" on="0"/>
        <pt x="1058" y="269" on="1"/>
        <pt x="1058" y="198" on="0"/>
        <pt x="959" y="77" on="0"/>
        <pt x="882" y="34" on="1"/>
        <pt x="766" y="-29" on="0"/>
        <pt x="616" y="-29" on="1"/>
        <pt x="399" y="-29" on="0"/>
        <pt x="190" y="186" on="0"/>
        <pt x="190" y="425" on="1"/>
        <pt x="190" y="459" on="0"/>
        <pt x="195" y="506" on="1"/>
        <pt x="44" y="506" on="1"/>
        <pt x="57" y="547" on="1"/>
        <pt x="202" y="547" on="1"/>
        <pt x="218" y="630" on="0"/>
        <pt x="250" y="711" on="1"/>
        <pt x="100" y="711" on="1"/>
        <pt x="112" y="752" on="1"/>
        <pt x="267" y="752" on="1"/>
        <pt x="328" y="892" on="0"/>
        <pt x="529" y="1129" on="0"/>
        <pt x="794" y="1274" on="0"/>
        <pt x="944" y="1274" on="1"/>
        <pt x="1077" y="1274" on="0"/>
        <pt x="1160" y="1203" on="1"/>
      </contour>
    </TTGlyph>
    <TTGlyph name="F" xMin="-88" yMin="0" xMax="1375" yMax="1450">
      <contour>
        <pt x="1249" y="1444" on="0"/>
        <pt x="1375" y="1450" on="1"/>
        <pt x="1326" y="1317" on="0"/>
        <pt x="1295" y="1200" on="1"/>
        <pt x="1265" y="1096" on="0"/>
        <pt x="1251" y="1020" on="1"/>
        <pt x="1205" y="1020" on="1"/>
        <pt x="1213" y="1094" on="0"/>
        <pt x="1213" y="1143" on="1"/>
        <pt x="1213" y="1239" on="0"/>
        <pt x="1162" y="1353" on="0"/>
        <pt x="1057" y="1403" on="0"/>
        <pt x="971" y="1403" on="1"/>
        <pt x="924" y="1403" on="1"/>
        <pt x="856" y="1403" on="0"/>
        <pt x="789" y="1379" on="0"/>
        <pt x="748" y="1310" on="0"/>
        <pt x="729" y="1233" on="1"/>
        <pt x="598" y="741" on="1"/>
        <pt x="692" y="741" on="1"/>
        <pt x="792" y="741" on="0"/>
        <pt x="925" y="877" on="0"/>
        <pt x="972" y="987" on="1"/>
        <pt x="1018" y="987" on="1"/>
        <pt x="983" y="879" on="0"/>
        <pt x="950" y="749" on="1"/>
        <pt x="943" y="721" on="1"/>
        <pt x="913" y="597" on="0"/>
        <pt x="879" y="418" on="1"/>
        <pt x="833" y="418" on="1"/>
        <pt x="834" y="434" on="0"/>
        <pt x="834" y="464" on="1"/>
        <pt x="834" y="579" on="0"/>
        <pt x="762" y="700" on="0"/>
        <pt x="671" y="700" on="1"/>
        <pt x="587" y="700" on="1"/>
        <pt x="458" y="217" on="1"/>
        <pt x="442" y="156" on="0"/>
        <pt x="442" y="127" on="1"/>
        <pt x="442" y="93" on="0"/>
        <pt x="477" y="57" on="0"/>
        <pt x="550" y="43" on="0"/>
        <pt x="619" y="41" on="1"/>
        <pt x="610" y="0" on="1"/>
        <pt x="484" y="6" on="0"/>
        <pt x="245" y="6" on="1"/>
        <pt x="20" y="6" on="0"/>
        <pt x="-88" y="0" on="1"/>
        <pt x="-79" y="41" on="1"/>
        <pt x="-5" y="44" on="0"/>
        <pt x="69" y="70" on="0"/>
        <pt x="112" y="140" on="0"/>
        <pt x="132" y="217" on="1"/>
        <pt x="403" y="1233" on="1"/>
        <pt x="421" y="1303" on="0"/>
        <pt x="421" y="1332" on="1"/>
        <pt x="421" y="1362" on="0"/>
        <pt x="393" y="1394" on="0"/>
        <pt x="336" y="1407" on="0"/>
        <pt x="283" y="1409" on="1"/>
        <pt x="294" y="1450" on="1"/>
        <pt x="515" y="1444" on="0"/>
        <pt x="958" y="1444" on="1"/>
      </contour>
    </TTGlyph>
    <TTGlyph name="G" xMin="78" yMin="-29" xMax="1559" yMax="1479">
      <contour>
        <pt x="740" y="12" on="0"/>
        <pt x="825" y="36" on="0"/>
        <pt x="854" y="55" on="1"/>
        <pt x="888" y="77" on="0"/>
        <pt x="921" y="142" on="0"/>
        <pt x="938" y="205" on="1"/>
        <pt x="985" y="385" on="1"/>
        <pt x="1003" y="453" on="0"/>
        <pt x="1003" y="491" on="1"/>
        <pt x="1003" y="527" on="0"/>
        <pt x="969" y="564" on="0"/>
        <pt x="898" y="579" on="0"/>
        <pt x="831" y="582" on="1"/>
        <pt x="842" y="623" on="1"/>
        <pt x="960" y="616" on="0"/>
        <pt x="1190" y="616" on="1"/>
        <pt x="1389" y="616" on="0"/>
        <pt x="1479" y="623" on="1"/>
        <pt x="1468" y="582" on="1"/>
        <pt x="1419" y="578" on="0"/>
        <pt x="1371" y="553" on="0"/>
        <pt x="1338" y="485" on="0"/>
        <pt x="1317" y="406" on="1"/>
        <pt x="1208" y="0" on="1"/>
        <pt x="1167" y="0" on="1"/>
        <pt x="1168" y="9" on="0"/>
        <pt x="1168" y="25" on="1"/>
        <pt x="1168" y="68" on="0"/>
        <pt x="1139" y="117" on="0"/>
        <pt x="1110" y="117" on="1"/>
        <pt x="1080" y="117" on="0"/>
        <pt x="1015" y="91" on="0"/>
        <pt x="965" y="65" on="1"/>
        <pt x="937" y="51" on="1"/>
        <pt x="787" y="-29" on="0"/>
        <pt x="641" y="-29" on="1"/>
        <pt x="464" y="-29" on="0"/>
        <pt x="211" y="81" on="0"/>
        <pt x="78" y="291" on="0"/>
        <pt x="78" y="440" on="1"/>
        <pt x="78" y="677" on="0"/>
        <pt x="332" y="1162" on="0"/>
        <pt x="782" y="1479" on="0"/>
        <pt x="1061" y="1479" on="1"/>
        <pt x="1145" y="1479" on="0"/>
        <pt x="1267" y="1445" on="0"/>
        <pt x="1353" y="1389" on="0"/>
        <pt x="1397" y="1346" on="1"/>
        <pt x="1416" y="1327" on="0"/>
        <pt x="1432" y="1327" on="1"/>
        <pt x="1471" y="1327" on="0"/>
        <pt x="1513" y="1450" on="1"/>
        <pt x="1559" y="1450" on="1"/>
        <pt x="1492" y="1275" on="0"/>
        <pt x="1427" y="979" on="1"/>
        <pt x="1382" y="979" on="1"/>
        <pt x="1393" y="1062" on="0"/>
        <pt x="1393" y="1133" on="1"/>
        <pt x="1393" y="1225" on="0"/>
        <pt x="1364" y="1282" on="1"/>
        <pt x="1323" y="1359" on="0"/>
        <pt x="1160" y="1442" on="0"/>
        <pt x="1049" y="1442" on="1"/>
        <pt x="853" y="1442" on="0"/>
        <pt x="559" y="1086" on="0"/>
        <pt x="403" y="581" on="0"/>
        <pt x="403" y="373" on="1"/>
        <pt x="403" y="189" on="0"/>
        <pt x="548" y="12" on="0"/>
        <pt x="696" y="12" on="1"/>
      </contour>
    </TTGlyph>
    <TTGlyph name="Gacute" xMin="78" yMin="-29" xMax="1559" yMax="1959">
      <component glyphName=".ttfautohint" x="78" y="0" flags="0x0"/>
      <component glyphName="G" x="0" y="0" flags="0x0"/>
      <component glyphName="acute.case" x="883" y="0" flags="0x0"/>
    </TTGlyph>
    <TTGlyph name="Gbreve" xMin="78" yMin="-29" xMax="1584" yMax="1896">
      <component glyphName=".ttfautohint" x="78" y="0" flags="0x0"/>
      <component glyphName="G" x="0" y="0" flags="0x0"/>
      <component glyphName="breve.case" x="590" y="0" flags="0x0"/>
    </TTGlyph>
    <TTGlyph name="Gcircumflex" xMin="78" yMin="-29" xMax="1559" yMax="1925">
      <component glyphName=".ttfautohint" x="78" y="0" flags="0x0"/>
      <component glyphName="G" x="0" y="0" flags="0x0"/>
      <component glyphName="circumflex.case" x="617" y="0" flags="0x0"/>
    </TTGlyph>
    <TTGlyph name="Gcommaaccent" xMin="78" yMin="-494" xMax="1559" yMax="1479">
      <component glyphName=".ttfautohint" x="78" y="0" flags="0x0"/>
      <component glyphName="G" x="0" y="0" flags="0x0"/>
      <component glyphName="commaaccentcomb.case" x="469" y="0" flags="0x0"/>
    </TTGlyph>
    <TTGlyph name="Gdotaccent" xMin="78" yMin="-29" xMax="1559" yMax="1883">
      <component glyphName=".ttfautohint" x="78" y="0" flags="0x0"/>
      <component glyphName="G" x="0" y="0" flags="0x0"/>
      <component glyphName="dotaccent.case" x="887" y="0" flags="0x0"/>
    </TTGlyph>
    <TTGlyph name="H" xMin="-85" yMin="0" xMax="1810" yMax="1450">
      <contour>
        <pt x="1697" y="1444" on="0"/>
        <pt x="1810" y="1450" on="1"/>
        <pt x="1799" y="1409" on="1"/>
        <pt x="1724" y="1406" on="0"/>
        <pt x="1651" y="1380" on="0"/>
        <pt x="1608" y="1310" on="0"/>
        <pt x="1588" y="1233" on="1"/>
        <pt x="1318" y="217" on="1"/>
        <pt x="1301" y="151" on="0"/>
        <pt x="1301" y="118" on="1"/>
        <pt x="1301" y="88" on="0"/>
        <pt x="1328" y="56" on="0"/>
        <pt x="1386" y="43" on="0"/>
        <pt x="1439" y="41" on="1"/>
        <pt x="1431" y="0" on="1"/>
        <pt x="1323" y="6" on="0"/>
        <pt x="1095" y="6" on="1"/>
        <pt x="887" y="6" on="0"/>
        <pt x="773" y="0" on="1"/>
        <pt x="782" y="41" on="1"/>
        <pt x="856" y="44" on="0"/>
        <pt x="929" y="70" on="0"/>
        <pt x="972" y="140" on="0"/>
        <pt x="992" y="217" on="1"/>
        <pt x="1123" y="709" on="1"/>
        <pt x="589" y="709" on="1"/>
        <pt x="458" y="217" on="1"/>
        <pt x="441" y="151" on="0"/>
        <pt x="441" y="118" on="1"/>
        <pt x="441" y="88" on="0"/>
        <pt x="468" y="56" on="0"/>
        <pt x="526" y="43" on="0"/>
        <pt x="579" y="41" on="1"/>
        <pt x="571" y="0" on="1"/>
        <pt x="457" y="6" on="0"/>
        <pt x="249" y="6" on="1"/>
        <pt x="26" y="6" on="0"/>
        <pt x="-85" y="0" on="1"/>
        <pt x="-75" y="41" on="1"/>
        <pt x="-4" y="44" on="0"/>
        <pt x="68" y="70" on="0"/>
        <pt x="112" y="141" on="0"/>
        <pt x="132" y="217" on="1"/>
        <pt x="403" y="1233" on="1"/>
        <pt x="420" y="1298" on="0"/>
        <pt x="420" y="1331" on="1"/>
        <pt x="420" y="1362" on="0"/>
        <pt x="392" y="1394" on="0"/>
        <pt x="335" y="1407" on="0"/>
        <pt x="282" y="1409" on="1"/>
        <pt x="292" y="1450" on="1"/>
        <pt x="397" y="1444" on="0"/>
        <pt x="626" y="1444" on="1"/>
        <pt x="823" y="1444" on="0"/>
        <pt x="949" y="1450" on="1"/>
        <pt x="939" y="1409" on="1"/>
        <pt x="864" y="1406" on="0"/>
        <pt x="791" y="1380" on="0"/>
        <pt x="748" y="1310" on="0"/>
        <pt x="728" y="1233" on="1"/>
        <pt x="600" y="750" on="1"/>
        <pt x="1134" y="750" on="1"/>
        <pt x="1263" y="1233" on="1"/>
        <pt x="1281" y="1296" on="0"/>
        <pt x="1281" y="1331" on="1"/>
        <pt x="1281" y="1362" on="0"/>
        <pt x="1253" y="1394" on="0"/>
        <pt x="1195" y="1407" on="0"/>
        <pt x="1142" y="1409" on="1"/>
        <pt x="1152" y="1450" on="1"/>
        <pt x="1263" y="1444" on="0"/>
        <pt x="1472" y="1444" on="1"/>
      </contour>
    </TTGlyph>
    <TTGlyph name="Hbar" xMin="-82" yMin="0" xMax="1813" yMax="1450">
      <contour>
        <pt x="1727" y="1406" on="0"/>
        <pt x="1654" y="1380" on="0"/>
        <pt x="1611" y="1310" on="0"/>
        <pt x="1591" y="1233" on="1"/>
        <pt x="1554" y="1092" on="1"/>
        <pt x="1738" y="1092" on="1"/>
        <pt x="1727" y="1051" on="1"/>
        <pt x="1543" y="1051" on="1"/>
        <pt x="1321" y="217" on="1"/>
        <pt x="1304" y="151" on="0"/>
        <pt x="1304" y="118" on="1"/>
        <pt x="1304" y="88" on="0"/>
        <pt x="1331" y="56" on="0"/>
        <pt x="1389" y="43" on="0"/>
        <pt x="1442" y="41" on="1"/>
        <pt x="1434" y="0" on="1"/>
        <pt x="1326" y="6" on="0"/>
        <pt x="1098" y="6" on="1"/>
        <pt x="890" y="6" on="0"/>
        <pt x="776" y="0" on="1"/>
        <pt x="785" y="41" on="1"/>
        <pt x="859" y="44" on="0"/>
        <pt x="932" y="70" on="0"/>
        <pt x="975" y="140" on="0"/>
        <pt x="995" y="217" on="1"/>
        <pt x="1126" y="709" on="1"/>
        <pt x="592" y="709" on="1"/>
        <pt x="461" y="217" on="1"/>
        <pt x="444" y="151" on="0"/>
        <pt x="444" y="118" on="1"/>
        <pt x="444" y="88" on="0"/>
        <pt x="471" y="56" on="0"/>
        <pt x="529" y="43" on="0"/>
        <pt x="582" y="41" on="1"/>
        <pt x="574" y="0" on="1"/>
        <pt x="460" y="6" on="0"/>
        <pt x="252" y="6" on="1"/>
        <pt x="29" y="6" on="0"/>
        <pt x="-82" y="0" on="1"/>
        <pt x="-72" y="41" on="1"/>
        <pt x="-1" y="44" on="0"/>
        <pt x="71" y="70" on="0"/>
        <pt x="115" y="141" on="0"/>
        <pt x="135" y="217" on="1"/>
        <pt x="357" y="1051" on="1"/>
        <pt x="189" y="1051" on="1"/>
        <pt x="199" y="1092" on="1"/>
        <pt x="368" y="1092" on="1"/>
        <pt x="406" y="1233" on="1"/>
        <pt x="423" y="1298" on="0"/>
        <pt x="423" y="1331" on="1"/>
        <pt x="423" y="1362" on="0"/>
        <pt x="395" y="1394" on="0"/>
        <pt x="338" y="1407" on="0"/>
        <pt x="285" y="1409" on="1"/>
        <pt x="295" y="1450" on="1"/>
        <pt x="400" y="1444" on="0"/>
        <pt x="629" y="1444" on="1"/>
        <pt x="826" y="1444" on="0"/>
        <pt x="952" y="1450" on="1"/>
        <pt x="942" y="1409" on="1"/>
        <pt x="867" y="1406" on="0"/>
        <pt x="794" y="1380" on="0"/>
        <pt x="751" y="1310" on="0"/>
        <pt x="731" y="1233" on="1"/>
        <pt x="694" y="1092" on="1"/>
        <pt x="1228" y="1092" on="1"/>
        <pt x="1266" y="1233" on="1"/>
        <pt x="1284" y="1296" on="0"/>
        <pt x="1284" y="1331" on="1"/>
        <pt x="1284" y="1362" on="0"/>
        <pt x="1256" y="1394" on="0"/>
        <pt x="1198" y="1407" on="0"/>
        <pt x="1145" y="1409" on="1"/>
        <pt x="1155" y="1450" on="1"/>
        <pt x="1266" y="1444" on="0"/>
        <pt x="1475" y="1444" on="1"/>
        <pt x="1701" y="1444" on="0"/>
        <pt x="1813" y="1450" on="1"/>
        <pt x="1802" y="1409" on="1"/>
      </contour>
      <contour>
        <pt x="683" y="1051" on="1"/>
        <pt x="603" y="750" on="1"/>
        <pt x="1137" y="750" on="1"/>
        <pt x="1217" y="1051" on="1"/>
      </contour>
    </TTGlyph>
    <TTGlyph name="Hcircumflex" xMin="-85" yMin="0" xMax="1810" yMax="1925">
      <component glyphName=".ttfautohint" x="0" y="0" flags="0x0"/>
      <component glyphName="H" x="0" y="0" flags="0x0"/>
      <component glyphName="circumflex.case" x="622" y="0" flags="0x0"/>
    </TTGlyph>
    <TTGlyph name="I" xMin="-85" yMin="0" xMax="949" yMax="1450">
      <contour>
        <pt x="441" y="151" on="0"/>
        <pt x="441" y="118" on="1"/>
        <pt x="441" y="88" on="0"/>
        <pt x="468" y="56" on="0"/>
        <pt x="526" y="43" on="0"/>
        <pt x="579" y="41" on="1"/>
        <pt x="571" y="0" on="1"/>
        <pt x="453" y="6" on="0"/>
        <pt x="237" y="6" on="1"/>
        <pt x="23" y="6" on="0"/>
        <pt x="-85" y="0" on="1"/>
        <pt x="-75" y="41" on="1"/>
        <pt x="-4" y="44" on="0"/>
        <pt x="68" y="70" on="0"/>
        <pt x="112" y="141" on="0"/>
        <pt x="132" y="217" on="1"/>
        <pt x="403" y="1233" on="1"/>
        <pt x="420" y="1298" on="0"/>
        <pt x="420" y="1331" on="1"/>
        <pt x="420" y="1362" on="0"/>
        <pt x="392" y="1394" on="0"/>
        <pt x="335" y="1407" on="0"/>
        <pt x="282" y="1409" on="1"/>
        <pt x="292" y="1450" on="1"/>
        <pt x="394" y="1444" on="0"/>
        <pt x="614" y="1444" on="1"/>
        <pt x="819" y="1444" on="0"/>
        <pt x="949" y="1450" on="1"/>
        <pt x="939" y="1409" on="1"/>
        <pt x="864" y="1406" on="0"/>
        <pt x="791" y="1380" on="0"/>
        <pt x="748" y="1310" on="0"/>
        <pt x="728" y="1233" on="1"/>
        <pt x="458" y="217" on="1"/>
      </contour>
    </TTGlyph>
    <TTGlyph name="IJ" xMin="32" yMin="-385" xMax="1946" yMax="1513">
      <contour>
        <pt x="1946" y="1484" on="0"/>
        <pt x="1946" y="1469" on="1"/>
        <pt x="1946" y="1421" on="0"/>
        <pt x="1797" y="1364" on="1"/>
        <pt x="1684" y="1265" on="0"/>
        <pt x="1541" y="970" on="0"/>
        <pt x="1483" y="750" on="1"/>
        <pt x="1695" y="750" on="1"/>
        <pt x="1688" y="709" on="1"/>
        <pt x="1472" y="709" on="1"/>
        <pt x="1459" y="656" on="1"/>
        <pt x="1333" y="133" on="1"/>
        <pt x="1277" y="-99" on="0"/>
        <pt x="985" y="-385" on="0"/>
        <pt x="733" y="-385" on="1"/>
        <pt x="602" y="-385" on="0"/>
        <pt x="445" y="-309" on="0"/>
        <pt x="445" y="-227" on="1"/>
        <pt x="445" y="-162" on="0"/>
        <pt x="537" y="-75" on="0"/>
        <pt x="616" y="-75" on="1"/>
        <pt x="686" y="-75" on="0"/>
        <pt x="776" y="-143" on="0"/>
        <pt x="776" y="-202" on="1"/>
        <pt x="776" y="-249" on="0"/>
        <pt x="717" y="-322" on="0"/>
        <pt x="665" y="-344" on="1"/>
        <pt x="693" y="-351" on="0"/>
        <pt x="722" y="-351" on="1"/>
        <pt x="797" y="-351" on="0"/>
        <pt x="892" y="-242" on="0"/>
        <pt x="953" y="-64" on="0"/>
        <pt x="997" y="110" on="1"/>
        <pt x="999" y="121" on="0"/>
        <pt x="1005" y="143" on="1"/>
        <pt x="1116" y="564" on="1"/>
        <pt x="1138" y="645" on="0"/>
        <pt x="1162" y="709" on="1"/>
        <pt x="895" y="709" on="1"/>
        <pt x="902" y="750" on="1"/>
        <pt x="1178" y="750" on="1"/>
        <pt x="1234" y="882" on="0"/>
        <pt x="1395" y="1082" on="0"/>
        <pt x="1582" y="1235" on="0"/>
        <pt x="1736" y="1342" on="1"/>
        <pt x="1648" y="1316" on="0"/>
        <pt x="1515" y="1256" on="1"/>
        <pt x="1441" y="1223" on="0"/>
        <pt x="1342" y="1186" on="0"/>
        <pt x="1224" y="1161" on="0"/>
        <pt x="1156" y="1161" on="1"/>
        <pt x="1075" y="1161" on="0"/>
        <pt x="932" y="1187" on="0"/>
        <pt x="833" y="1213" on="1"/>
        <pt x="736" y="1238" on="0"/>
        <pt x="595" y="1264" on="0"/>
        <pt x="516" y="1264" on="1"/>
        <pt x="438" y="1264" on="0"/>
        <pt x="351" y="1207" on="0"/>
        <pt x="351" y="1149" on="1"/>
        <pt x="351" y="1073" on="0"/>
        <pt x="513" y="991" on="0"/>
        <pt x="645" y="991" on="1"/>
        <pt x="742" y="991" on="0"/>
        <pt x="884" y="1028" on="0"/>
        <pt x="955" y="1066" on="1"/>
        <pt x="970" y="1032" on="1"/>
        <pt x="886" y="986" on="0"/>
        <pt x="802" y="966" on="1"/>
        <pt x="575" y="217" on="1"/>
        <pt x="555" y="152" on="0"/>
        <pt x="555" y="117" on="1"/>
        <pt x="555" y="75" on="0"/>
        <pt x="618" y="43" on="0"/>
        <pt x="696" y="41" on="1"/>
        <pt x="687" y="0" on="1"/>
        <pt x="570" y="6" on="0"/>
        <pt x="353" y="6" on="1"/>
        <pt x="140" y="6" on="0"/>
        <pt x="32" y="0" on="1"/>
        <pt x="42" y="41" on="1"/>
        <pt x="112" y="44" on="0"/>
        <pt x="182" y="71" on="0"/>
        <pt x="225" y="140" on="0"/>
        <pt x="249" y="217" on="1"/>
        <pt x="475" y="963" on="1"/>
        <pt x="352" y="989" on="0"/>
        <pt x="205" y="1125" on="0"/>
        <pt x="205" y="1237" on="1"/>
        <pt x="205" y="1318" on="0"/>
        <pt x="289" y="1443" on="0"/>
        <pt x="448" y="1513" on="0"/>
        <pt x="559" y="1513" on="1"/>
        <pt x="642" y="1513" on="0"/>
        <pt x="786" y="1484" on="0"/>
        <pt x="899" y="1443" on="0"/>
        <pt x="977" y="1408" on="1"/>
        <pt x="1054" y="1374" on="0"/>
        <pt x="1161" y="1334" on="0"/>
        <pt x="1295" y="1307" on="0"/>
        <pt x="1372" y="1307" on="1"/>
        <pt x="1585" y="1307" on="0"/>
        <pt x="1778" y="1386" on="1"/>
        <pt x="1855" y="1506" on="0"/>
        <pt x="1905" y="1506" on="1"/>
        <pt x="1919" y="1506" on="0"/>
        <pt x="1932" y="1495" on="1"/>
      </contour>
    </TTGlyph>
    <TTGlyph name="Iacute" xMin="-85" yMin="0" xMax="1128" yMax="1959">
      <component glyphName=".ttfautohint" x="0" y="0" flags="0x0"/>
      <component glyphName="I" x="0" y="0" flags="0x0"/>
      <component glyphName="acute.case" x="501" y="0" flags="0x0"/>
    </TTGlyph>
    <TTGlyph name="Ibreve" xMin="-85" yMin="0" xMax="1202" yMax="1896">
      <component glyphName=".ttfautohint" x="0" y="0" flags="0x0"/>
      <component glyphName="I" x="0" y="0" flags="0x0"/>
      <component glyphName="breve.case" x="208" y="0" flags="0x0"/>
    </TTGlyph>
    <TTGlyph name="Icircumflex" xMin="-85" yMin="0" xMax="1105" yMax="1925">
      <component glyphName=".ttfautohint" x="0" y="0" flags="0x0"/>
      <component glyphName="I" x="0" y="0" flags="0x0"/>
      <component glyphName="circumflex.case" x="235" y="0" flags="0x0"/>
    </TTGlyph>
    <TTGlyph name="Idieresis" xMin="-85" yMin="0" xMax="1088" yMax="1878">
      <component glyphName=".ttfautohint" x="0" y="0" flags="0x0"/>
      <component glyphName="I" x="0" y="0" flags="0x0"/>
      <component glyphName="dieresis.case" x="280" y="0" flags="0x0"/>
    </TTGlyph>
    <TTGlyph name="Idotaccent" xMin="-85" yMin="0" xMax="949" yMax="1883">
      <component glyphName=".ttfautohint" x="0" y="0" flags="0x0"/>
      <component glyphName="I" x="0" y="0" flags="0x0"/>
      <component glyphName="dotaccent.case" x="505" y="0" flags="0x0"/>
    </TTGlyph>
    <TTGlyph name="Igrave" xMin="-85" yMin="0" xMax="949" yMax="1944">
      <component glyphName=".ttfautohint" x="0" y="0" flags="0x0"/>
      <component glyphName="I" x="0" y="0" flags="0x0"/>
      <component glyphName="grave.case" x="282" y="0" flags="0x0"/>
    </TTGlyph>
    <TTGlyph name="Imacron" xMin="-85" yMin="0" xMax="1089" yMax="1729">
      <component glyphName=".ttfautohint" x="0" y="0" flags="0x0"/>
      <component glyphName="I" x="0" y="0" flags="0x0"/>
      <component glyphName="macron.case" x="255" y="0" flags="0x0"/>
    </TTGlyph>
    <TTGlyph name="Iogonek" xMin="-85" yMin="-385" xMax="949" yMax="1450">
      <contour>
        <pt x="818" y="1444" on="0"/>
        <pt x="949" y="1450" on="1"/>
        <pt x="939" y="1409" on="1"/>
        <pt x="864" y="1406" on="0"/>
        <pt x="791" y="1380" on="0"/>
        <pt x="748" y="1310" on="0"/>
        <pt x="728" y="1233" on="1"/>
        <pt x="458" y="217" on="1"/>
        <pt x="441" y="151" on="0"/>
        <pt x="441" y="118" on="1"/>
        <pt x="441" y="88" on="0"/>
        <pt x="468" y="56" on="0"/>
        <pt x="526" y="43" on="0"/>
        <pt x="579" y="41" on="1"/>
        <pt x="571" y="0" on="1"/>
        <pt x="551" y="1" on="1"/>
        <pt x="461" y="-35" on="0"/>
        <pt x="348" y="-156" on="0"/>
        <pt x="348" y="-221" on="1"/>
        <pt x="348" y="-283" on="0"/>
        <pt x="416" y="-283" on="1"/>
        <pt x="449" y="-283" on="0"/>
        <pt x="530" y="-258" on="0"/>
        <pt x="566" y="-238" on="1"/>
        <pt x="589" y="-273" on="1"/>
        <pt x="445" y="-385" on="0"/>
        <pt x="290" y="-385" on="1"/>
        <pt x="209" y="-385" on="0"/>
        <pt x="117" y="-320" on="0"/>
        <pt x="117" y="-263" on="1"/>
        <pt x="117" y="-174" on="0"/>
        <pt x="337" y="-39" on="0"/>
        <pt x="498" y="3" on="1"/>
        <pt x="386" y="6" on="0"/>
        <pt x="237" y="6" on="1"/>
        <pt x="23" y="6" on="0"/>
        <pt x="-85" y="0" on="1"/>
        <pt x="-75" y="41" on="1"/>
        <pt x="-4" y="44" on="0"/>
        <pt x="68" y="70" on="0"/>
        <pt x="112" y="141" on="0"/>
        <pt x="132" y="217" on="1"/>
        <pt x="403" y="1233" on="1"/>
        <pt x="420" y="1298" on="0"/>
        <pt x="420" y="1331" on="1"/>
        <pt x="420" y="1362" on="0"/>
        <pt x="392" y="1394" on="0"/>
        <pt x="335" y="1407" on="0"/>
        <pt x="282" y="1409" on="1"/>
        <pt x="292" y="1450" on="1"/>
        <pt x="394" y="1444" on="0"/>
        <pt x="614" y="1444" on="1"/>
      </contour>
    </TTGlyph>
    <TTGlyph name="Itilde" xMin="-85" yMin="0" xMax="1190" yMax="1898">
      <component glyphName=".ttfautohint" x="0" y="0" flags="0x0"/>
      <component glyphName="I" x="0" y="0" flags="0x0"/>
      <component glyphName="tilde.case" x="182" y="0" flags="0x0"/>
    </TTGlyph>
    <TTGlyph name="J" xMin="55" yMin="-385" xMax="1613" yMax="1513">
      <contour>
        <pt x="1613" y="1484" on="0"/>
        <pt x="1613" y="1470" on="1"/>
        <pt x="1613" y="1420" on="0"/>
        <pt x="1463" y="1364" on="1"/>
        <pt x="1341" y="1267" on="0"/>
        <pt x="1173" y="961" on="0"/>
        <pt x="1110" y="750" on="1"/>
        <pt x="1314" y="750" on="1"/>
        <pt x="1307" y="709" on="1"/>
        <pt x="1098" y="709" on="1"/>
        <pt x="1090" y="683" on="0"/>
        <pt x="1076" y="629" on="1"/>
        <pt x="949" y="133" on="1"/>
        <pt x="889" y="-100" on="0"/>
        <pt x="594" y="-385" on="0"/>
        <pt x="342" y="-385" on="1"/>
        <pt x="212" y="-385" on="0"/>
        <pt x="55" y="-309" on="0"/>
        <pt x="55" y="-229" on="1"/>
        <pt x="55" y="-186" on="0"/>
        <pt x="97" y="-116" on="0"/>
        <pt x="175" y="-75" on="0"/>
        <pt x="228" y="-75" on="1"/>
        <pt x="297" y="-75" on="0"/>
        <pt x="386" y="-141" on="0"/>
        <pt x="387" y="-198" on="1"/>
        <pt x="387" y="-296" on="0"/>
        <pt x="274" y="-344" on="1"/>
        <pt x="302" y="-351" on="0"/>
        <pt x="331" y="-351" on="1"/>
        <pt x="406" y="-351" on="0"/>
        <pt x="503" y="-242" on="0"/>
        <pt x="567" y="-64" on="0"/>
        <pt x="614" y="111" on="1"/>
        <pt x="623" y="143" on="1"/>
        <pt x="732" y="537" on="1"/>
        <pt x="757" y="629" on="0"/>
        <pt x="792" y="709" on="1"/>
        <pt x="515" y="709" on="1"/>
        <pt x="521" y="750" on="1"/>
        <pt x="810" y="750" on="1"/>
        <pt x="871" y="879" on="0"/>
        <pt x="1045" y="1082" on="0"/>
        <pt x="1252" y="1245" on="0"/>
        <pt x="1401" y="1342" on="1"/>
        <pt x="1324" y="1316" on="0"/>
        <pt x="1202" y="1256" on="1"/>
        <pt x="1136" y="1223" on="0"/>
        <pt x="1047" y="1186" on="0"/>
        <pt x="941" y="1161" on="0"/>
        <pt x="881" y="1161" on="1"/>
        <pt x="820" y="1161" on="0"/>
        <pt x="713" y="1189" on="0"/>
        <pt x="640" y="1216" on="1"/>
        <pt x="577" y="1240" on="0"/>
        <pt x="488" y="1264" on="0"/>
        <pt x="442" y="1264" on="1"/>
        <pt x="385" y="1264" on="0"/>
        <pt x="318" y="1205" on="0"/>
        <pt x="318" y="1149" on="1"/>
        <pt x="318" y="1010" on="0"/>
        <pt x="548" y="989" on="1"/>
        <pt x="544" y="950" on="1"/>
        <pt x="382" y="963" on="0"/>
        <pt x="188" y="1110" on="0"/>
        <pt x="187" y="1241" on="1"/>
        <pt x="185" y="1322" on="0"/>
        <pt x="251" y="1445" on="0"/>
        <pt x="382" y="1513" on="0"/>
        <pt x="477" y="1513" on="1"/>
        <pt x="539" y="1513" on="0"/>
        <pt x="644" y="1485" on="0"/>
        <pt x="729" y="1444" on="0"/>
        <pt x="786" y="1410" on="1"/>
        <pt x="847" y="1375" on="0"/>
        <pt x="929" y="1335" on="0"/>
        <pt x="1036" y="1307" on="0"/>
        <pt x="1098" y="1307" on="1"/>
        <pt x="1277" y="1307" on="0"/>
        <pt x="1445" y="1386" on="1"/>
        <pt x="1522" y="1506" on="0"/>
        <pt x="1572" y="1506" on="1"/>
        <pt x="1586" y="1506" on="0"/>
        <pt x="1600" y="1495" on="1"/>
      </contour>
    </TTGlyph>
    <TTGlyph name="Jcircumflex" xMin="55" yMin="-385" xMax="1613" yMax="1925">
      <component glyphName=".ttfautohint" x="55" y="0" flags="0x0"/>
      <component glyphName="J" x="0" y="0" flags="0x0"/>
      <component glyphName="circumflex.case" x="642" y="0" flags="0x0"/>
    </TTGlyph>
    <TTGlyph name="K" xMin="-85" yMin="-29" xMax="1588" yMax="1479">
      <contour>
        <pt x="1483" y="1479" on="0"/>
        <pt x="1588" y="1378" on="0"/>
        <pt x="1588" y="1297" on="1"/>
        <pt x="1588" y="1249" on="0"/>
        <pt x="1545" y="1155" on="0"/>
        <pt x="1461" y="1093" on="0"/>
        <pt x="1402" y="1093" on="1"/>
        <pt x="1343" y="1093" on="0"/>
        <pt x="1265" y="1166" on="0"/>
        <pt x="1265" y="1228" on="1"/>
        <pt x="1265" y="1289" on="0"/>
        <pt x="1349" y="1404" on="0"/>
        <pt x="1418" y="1434" on="1"/>
        <pt x="1404" y="1441" on="0"/>
        <pt x="1384" y="1441" on="1"/>
        <pt x="1349" y="1440" on="0"/>
        <pt x="1301" y="1418" on="0"/>
        <pt x="1279" y="1395" on="1"/>
        <pt x="1246" y="1358" on="0"/>
        <pt x="1200" y="1247" on="0"/>
        <pt x="1169" y="1150" on="1"/>
        <pt x="1134" y="1037" on="0"/>
        <pt x="1073" y="895" on="0"/>
        <pt x="967" y="780" on="0"/>
        <pt x="886" y="762" on="1"/>
        <pt x="993" y="750" on="0"/>
        <pt x="1120" y="688" on="0"/>
        <pt x="1178" y="577" on="0"/>
        <pt x="1178" y="488" on="1"/>
        <pt x="1178" y="448" on="0"/>
        <pt x="1174" y="411" on="1"/>
        <pt x="1151" y="196" on="1"/>
        <pt x="1150" y="191" on="0"/>
        <pt x="1150" y="181" on="1"/>
        <pt x="1150" y="121" on="0"/>
        <pt x="1203" y="121" on="1"/>
        <pt x="1241" y="121" on="0"/>
        <pt x="1294" y="181" on="0"/>
        <pt x="1316" y="244" on="1"/>
        <pt x="1351" y="348" on="1"/>
        <pt x="1392" y="348" on="1"/>
        <pt x="1339" y="190" on="1"/>
        <pt x="1301" y="80" on="0"/>
        <pt x="1158" y="-29" on="0"/>
        <pt x="1064" y="-29" on="1"/>
        <pt x="950" y="-29" on="0"/>
        <pt x="827" y="84" on="0"/>
        <pt x="827" y="182" on="1"/>
        <pt x="827" y="196" on="0"/>
        <pt x="831" y="230" on="1"/>
        <pt x="871" y="517" on="1"/>
        <pt x="876" y="557" on="0"/>
        <pt x="876" y="600" on="1"/>
        <pt x="876" y="652" on="0"/>
        <pt x="852" y="714" on="0"/>
        <pt x="824" y="735" on="1"/>
        <pt x="740" y="713" on="0"/>
        <pt x="699" y="713" on="1"/>
        <pt x="647" y="713" on="0"/>
        <pt x="647" y="746" on="1"/>
        <pt x="647" y="753" on="0"/>
        <pt x="648" y="756" on="1"/>
        <pt x="651" y="777" on="0"/>
        <pt x="678" y="797" on="0"/>
        <pt x="707" y="797" on="1"/>
        <pt x="750" y="797" on="0"/>
        <pt x="826" y="776" on="1"/>
        <pt x="918" y="789" on="0"/>
        <pt x="1034" y="901" on="0"/>
        <pt x="1097" y="1046" on="0"/>
        <pt x="1131" y="1161" on="1"/>
        <pt x="1162" y="1264" on="0"/>
        <pt x="1210" y="1380" on="0"/>
        <pt x="1248" y="1419" on="1"/>
        <pt x="1309" y="1479" on="0"/>
        <pt x="1395" y="1479" on="1"/>
      </contour>
      <contour>
        <pt x="441" y="151" on="0"/>
        <pt x="441" y="118" on="1"/>
        <pt x="441" y="88" on="0"/>
        <pt x="468" y="56" on="0"/>
        <pt x="526" y="43" on="0"/>
        <pt x="579" y="41" on="1"/>
        <pt x="571" y="0" on="1"/>
        <pt x="457" y="6" on="0"/>
        <pt x="249" y="6" on="1"/>
        <pt x="26" y="6" on="0"/>
        <pt x="-85" y="0" on="1"/>
        <pt x="-75" y="41" on="1"/>
        <pt x="-4" y="44" on="0"/>
        <pt x="68" y="70" on="0"/>
        <pt x="112" y="141" on="0"/>
        <pt x="132" y="217" on="1"/>
        <pt x="403" y="1233" on="1"/>
        <pt x="420" y="1298" on="0"/>
        <pt x="420" y="1331" on="1"/>
        <pt x="420" y="1362" on="0"/>
        <pt x="392" y="1394" on="0"/>
        <pt x="335" y="1407" on="0"/>
        <pt x="282" y="1409" on="1"/>
        <pt x="292" y="1450" on="1"/>
        <pt x="397" y="1444" on="0"/>
        <pt x="626" y="1444" on="1"/>
        <pt x="823" y="1444" on="0"/>
        <pt x="949" y="1450" on="1"/>
        <pt x="939" y="1409" on="1"/>
        <pt x="864" y="1406" on="0"/>
        <pt x="791" y="1380" on="0"/>
        <pt x="748" y="1310" on="0"/>
        <pt x="728" y="1233" on="1"/>
        <pt x="458" y="217" on="1"/>
      </contour>
    </TTGlyph>
    <TTGlyph name="Kcommaaccent" xMin="-85" yMin="-494" xMax="1588" yMax="1479">
      <component glyphName=".ttfautohint" x="0" y="0" flags="0x0"/>
      <component glyphName="K" x="0" y="0" flags="0x0"/>
      <component glyphName="commaaccentcomb.case" x="389" y="0" flags="0x0"/>
    </TTGlyph>
    <TTGlyph name="L" xMin="-88" yMin="0" xMax="1151" yMax="1450">
      <contour>
        <pt x="1129" y="371" on="0"/>
        <pt x="1101" y="262" on="1"/>
        <pt x="1067" y="138" on="0"/>
        <pt x="1047" y="0" on="1"/>
        <pt x="908" y="6" on="0"/>
        <pt x="582" y="6" on="1"/>
        <pt x="134" y="6" on="0"/>
        <pt x="-88" y="0" on="1"/>
        <pt x="-79" y="41" on="1"/>
        <pt x="-5" y="44" on="0"/>
        <pt x="69" y="70" on="0"/>
        <pt x="112" y="140" on="0"/>
        <pt x="132" y="217" on="1"/>
        <pt x="403" y="1233" on="1"/>
        <pt x="421" y="1303" on="0"/>
        <pt x="421" y="1332" on="1"/>
        <pt x="421" y="1362" on="0"/>
        <pt x="393" y="1394" on="0"/>
        <pt x="336" y="1407" on="0"/>
        <pt x="283" y="1409" on="1"/>
        <pt x="294" y="1450" on="1"/>
        <pt x="400" y="1444" on="0"/>
        <pt x="631" y="1444" on="1"/>
        <pt x="825" y="1444" on="0"/>
        <pt x="950" y="1450" on="1"/>
        <pt x="940" y="1409" on="1"/>
        <pt x="865" y="1406" on="0"/>
        <pt x="792" y="1380" on="0"/>
        <pt x="749" y="1310" on="0"/>
        <pt x="728" y="1233" on="1"/>
        <pt x="457" y="217" on="1"/>
        <pt x="439" y="153" on="0"/>
        <pt x="439" y="117" on="1"/>
        <pt x="439" y="88" on="0"/>
        <pt x="466" y="58" on="0"/>
        <pt x="523" y="47" on="0"/>
        <pt x="575" y="47" on="1"/>
        <pt x="657" y="47" on="1"/>
        <pt x="803" y="47" on="0"/>
        <pt x="1024" y="225" on="0"/>
        <pt x="1105" y="430" on="1"/>
        <pt x="1151" y="430" on="1"/>
      </contour>
    </TTGlyph>
    <TTGlyph name="Lacute" xMin="-88" yMin="0" xMax="1151" yMax="1959">
      <component glyphName=".ttfautohint" x="0" y="0" flags="0x0"/>
      <component glyphName="L" x="0" y="0" flags="0x0"/>
      <component glyphName="acute.case" x="465" y="0" flags="0x0"/>
    </TTGlyph>
    <TTGlyph name="Lcaron" xMin="-88" yMin="0" xMax="1279" yMax="1473">
      <component glyphName=".ttfautohint" x="0" y="0" flags="0x0"/>
      <component glyphName="L" x="0" y="0" flags="0x0"/>
      <component glyphName="hacek.case" x="776" y="0" flags="0x0"/>
    </TTGlyph>
    <TTGlyph name="Lcommaaccent" xMin="-88" yMin="-494" xMax="1151" yMax="1450">
      <component glyphName=".ttfautohint" x="0" y="0" flags="0x0"/>
      <component glyphName="L" x="0" y="0" flags="0x0"/>
      <component glyphName="commaaccentcomb.case" x="369" y="0" flags="0x0"/>
    </TTGlyph>
    <TTGlyph name="Ldot" xMin="-88" yMin="0" xMax="1270" yMax="1450">
      <component glyphName=".ttfautohint" x="0" y="0" flags="0x0"/>
      <component glyphName="L" x="0" y="0" flags="0x0"/>
      <component glyphName="period" x="936" y="625" flags="0x0"/>
    </TTGlyph>
    <TTGlyph name="Lslash" xMin="-85" yMin="0" xMax="1154" yMax="1450">
      <contour>
        <pt x="1132" y="371" on="0"/>
        <pt x="1104" y="262" on="1"/>
        <pt x="1070" y="138" on="0"/>
        <pt x="1050" y="0" on="1"/>
        <pt x="911" y="6" on="0"/>
        <pt x="585" y="6" on="1"/>
        <pt x="137" y="6" on="0"/>
        <pt x="-85" y="0" on="1"/>
        <pt x="-76" y="41" on="1"/>
        <pt x="-2" y="44" on="0"/>
        <pt x="72" y="70" on="0"/>
        <pt x="115" y="140" on="0"/>
        <pt x="135" y="217" on="1"/>
        <pt x="216" y="522" on="1"/>
        <pt x="33" y="430" on="1"/>
        <pt x="45" y="477" on="1"/>
        <pt x="229" y="569" on="1"/>
        <pt x="406" y="1233" on="1"/>
        <pt x="424" y="1303" on="0"/>
        <pt x="424" y="1332" on="1"/>
        <pt x="424" y="1362" on="0"/>
        <pt x="396" y="1394" on="0"/>
        <pt x="339" y="1407" on="0"/>
        <pt x="286" y="1409" on="1"/>
        <pt x="297" y="1450" on="1"/>
        <pt x="404" y="1444" on="0"/>
        <pt x="634" y="1444" on="1"/>
        <pt x="828" y="1444" on="0"/>
        <pt x="953" y="1450" on="1"/>
        <pt x="943" y="1409" on="1"/>
        <pt x="868" y="1406" on="0"/>
        <pt x="795" y="1380" on="0"/>
        <pt x="752" y="1310" on="0"/>
        <pt x="731" y="1233" on="1"/>
        <pt x="599" y="738" on="1"/>
        <pt x="1059" y="969" on="1"/>
        <pt x="1047" y="922" on="1"/>
        <pt x="586" y="690" on="1"/>
        <pt x="460" y="217" on="1"/>
        <pt x="442" y="153" on="0"/>
        <pt x="442" y="117" on="1"/>
        <pt x="442" y="88" on="0"/>
        <pt x="469" y="58" on="0"/>
        <pt x="526" y="47" on="0"/>
        <pt x="578" y="47" on="1"/>
        <pt x="660" y="47" on="1"/>
        <pt x="806" y="47" on="0"/>
        <pt x="1027" y="225" on="0"/>
        <pt x="1108" y="430" on="1"/>
        <pt x="1154" y="430" on="1"/>
      </contour>
    </TTGlyph>
    <TTGlyph name="M" xMin="-86" yMin="-10" xMax="2029" yMax="1450">
      <contour>
        <pt x="1897" y="1444" on="0"/>
        <pt x="2029" y="1450" on="1"/>
        <pt x="2019" y="1409" on="1"/>
        <pt x="1944" y="1406" on="0"/>
        <pt x="1870" y="1380" on="0"/>
        <pt x="1828" y="1310" on="0"/>
        <pt x="1808" y="1233" on="1"/>
        <pt x="1537" y="217" on="1"/>
        <pt x="1520" y="152" on="0"/>
        <pt x="1520" y="119" on="1"/>
        <pt x="1520" y="88" on="0"/>
        <pt x="1548" y="56" on="0"/>
        <pt x="1605" y="43" on="0"/>
        <pt x="1658" y="41" on="1"/>
        <pt x="1650" y="0" on="1"/>
        <pt x="1521" y="6" on="0"/>
        <pt x="1322" y="6" on="1"/>
        <pt x="1099" y="6" on="0"/>
        <pt x="995" y="0" on="1"/>
        <pt x="1003" y="41" on="1"/>
        <pt x="1078" y="44" on="0"/>
        <pt x="1151" y="70" on="0"/>
        <pt x="1194" y="140" on="0"/>
        <pt x="1214" y="217" on="1"/>
        <pt x="1511" y="1321" on="1"/>
        <pt x="661" y="-10" on="1"/>
        <pt x="616" y="-10" on="1"/>
        <pt x="451" y="1246" on="1"/>
        <pt x="192" y="263" on="1"/>
        <pt x="176" y="204" on="0"/>
        <pt x="176" y="164" on="1"/>
        <pt x="176" y="106" on="0"/>
        <pt x="253" y="44" on="0"/>
        <pt x="346" y="41" on="1"/>
        <pt x="337" y="0" on="1"/>
        <pt x="265" y="6" on="0"/>
        <pt x="108" y="6" on="1"/>
        <pt x="-17" y="6" on="0"/>
        <pt x="-86" y="0" on="1"/>
        <pt x="-77" y="41" on="1"/>
        <pt x="-9" y="44" on="0"/>
        <pt x="77" y="99" on="0"/>
        <pt x="127" y="191" on="0"/>
        <pt x="146" y="263" on="1"/>
        <pt x="405" y="1233" on="1"/>
        <pt x="422" y="1298" on="0"/>
        <pt x="422" y="1331" on="1"/>
        <pt x="422" y="1362" on="0"/>
        <pt x="394" y="1394" on="0"/>
        <pt x="337" y="1407" on="0"/>
        <pt x="284" y="1409" on="1"/>
        <pt x="294" y="1450" on="1"/>
        <pt x="389" y="1444" on="0"/>
        <pt x="575" y="1444" on="1"/>
        <pt x="683" y="1444" on="0"/>
        <pt x="760" y="1450" on="1"/>
        <pt x="876" y="404" on="1"/>
        <pt x="1539" y="1444" on="1"/>
        <pt x="1699" y="1444" on="1"/>
      </contour>
    </TTGlyph>
    <TTGlyph name="N" xMin="-163" yMin="-152" xMax="1910" yMax="1544">
      <contour>
        <pt x="1778" y="1544" on="0"/>
        <pt x="1865" y="1498" on="0"/>
        <pt x="1910" y="1420" on="0"/>
        <pt x="1910" y="1371" on="1"/>
        <pt x="1910" y="1319" on="0"/>
        <pt x="1862" y="1233" on="0"/>
        <pt x="1777" y="1183" on="0"/>
        <pt x="1724" y="1183" on="1"/>
        <pt x="1657" y="1183" on="0"/>
        <pt x="1584" y="1251" on="0"/>
        <pt x="1584" y="1306" on="1"/>
        <pt x="1584" y="1373" on="0"/>
        <pt x="1671" y="1477" on="0"/>
        <pt x="1738" y="1496" on="1"/>
        <pt x="1726" y="1506" on="0"/>
        <pt x="1704" y="1506" on="1"/>
        <pt x="1606" y="1505" on="0"/>
        <pt x="1533" y="1397" on="1"/>
        <pt x="1442" y="1261" on="0"/>
        <pt x="1246" y="579" on="0"/>
        <pt x="1121" y="-10" on="1"/>
        <pt x="1076" y="-10" on="1"/>
        <pt x="568" y="1102" on="1"/>
        <pt x="481" y="670" on="0"/>
        <pt x="322" y="74" on="0"/>
        <pt x="249" y="-23" on="1"/>
        <pt x="202" y="-83" on="0"/>
        <pt x="103" y="-152" on="0"/>
        <pt x="29" y="-152" on="1"/>
        <pt x="-32" y="-152" on="0"/>
        <pt x="-118" y="-106" on="0"/>
        <pt x="-163" y="-26" on="0"/>
        <pt x="-163" y="23" on="1"/>
        <pt x="-163" y="75" on="0"/>
        <pt x="-115" y="161" on="0"/>
        <pt x="-30" y="210" on="0"/>
        <pt x="23" y="210" on="1"/>
        <pt x="89" y="210" on="0"/>
        <pt x="163" y="142" on="0"/>
        <pt x="163" y="87" on="1"/>
        <pt x="163" y="19" on="0"/>
        <pt x="76" y="-84" on="0"/>
        <pt x="9" y="-104" on="1"/>
        <pt x="19" y="-113" on="0"/>
        <pt x="42" y="-113" on="1"/>
        <pt x="146" y="-113" on="0"/>
        <pt x="216" y="-2" on="1"/>
        <pt x="295" y="121" on="0"/>
        <pt x="461" y="762" on="0"/>
        <pt x="560" y="1278" on="1"/>
        <pt x="564" y="1302" on="0"/>
        <pt x="564" y="1324" on="1"/>
        <pt x="564" y="1358" on="0"/>
        <pt x="535" y="1393" on="0"/>
        <pt x="469" y="1407" on="0"/>
        <pt x="406" y="1409" on="1"/>
        <pt x="417" y="1450" on="1"/>
        <pt x="481" y="1444" on="0"/>
        <pt x="599" y="1444" on="1"/>
        <pt x="694" y="1444" on="0"/>
        <pt x="765" y="1450" on="1"/>
        <pt x="1188" y="475" on="1"/>
        <pt x="1359" y="1215" on="0"/>
        <pt x="1496" y="1413" on="1"/>
        <pt x="1586" y="1544" on="0"/>
        <pt x="1717" y="1544" on="1"/>
      </contour>
    </TTGlyph>
    <TTGlyph name="Nacute" xMin="-163" yMin="-152" xMax="1910" yMax="1959">
      <component glyphName=".ttfautohint" x="0" y="0" flags="0x0"/>
      <component glyphName="N" x="0" y="0" flags="0x0"/>
      <component glyphName="acute.case" x="949" y="0" flags="0x0"/>
    </TTGlyph>
    <TTGlyph name="Nacute.loclPLK" xMin="-163" yMin="-152" xMax="1910" yMax="1992">
      <component glyphName=".ttfautohint" x="0" y="0" flags="0x0"/>
      <component glyphName="N" x="0" y="0" flags="0x0"/>
      <component glyphName="acute.loclPLK.case" x="1006" y="0" flags="0x0"/>
    </TTGlyph>
    <TTGlyph name="Ncaron" xMin="-163" yMin="-152" xMax="1910" yMax="1919">
      <component glyphName=".ttfautohint" x="0" y="0" flags="0x0"/>
      <component glyphName="N" x="0" y="0" flags="0x0"/>
      <component glyphName="caron.case" x="677" y="0" flags="0x0"/>
    </TTGlyph>
    <TTGlyph name="Ncommaaccent" xMin="-163" yMin="-494" xMax="1910" yMax="1544">
      <component glyphName=".ttfautohint" x="0" y="0" flags="0x0"/>
      <component glyphName="N" x="0" y="0" flags="0x0"/>
      <component glyphName="commaaccentcomb.case" x="447" y="0" flags="0x0"/>
    </TTGlyph>
    <TTGlyph name="Ntilde" xMin="-163" yMin="-152" xMax="1910" yMax="1898">
      <component glyphName=".ttfautohint" x="0" y="0" flags="0x0"/>
      <component glyphName="N" x="0" y="0" flags="0x0"/>
      <component glyphName="tilde.case" x="630" y="0" flags="0x0"/>
    </TTGlyph>
    <TTGlyph name="O" xMin="86" yMin="-29" xMax="1571" yMax="1479">
      <contour>
        <pt x="86" y="695" on="0"/>
        <pt x="323" y="1169" on="0"/>
        <pt x="747" y="1479" on="0"/>
        <pt x="1014" y="1479" on="1"/>
        <pt x="1187" y="1479" on="0"/>
        <pt x="1438" y="1363" on="0"/>
        <pt x="1571" y="1141" on="0"/>
        <pt x="1571" y="985" on="1"/>
        <pt x="1571" y="754" on="0"/>
        <pt x="1332" y="281" on="0"/>
        <pt x="906" y="-29" on="0"/>
        <pt x="641" y="-29" on="1"/>
        <pt x="468" y="-29" on="0"/>
        <pt x="218" y="87" on="0"/>
        <pt x="86" y="308" on="0"/>
        <pt x="86" y="463" on="1"/>
      </contour>
      <contour>
        <pt x="856" y="1442" on="0"/>
        <pt x="597" y="1147" on="0"/>
        <pt x="438" y="679" on="0"/>
        <pt x="438" y="436" on="1"/>
        <pt x="438" y="305" on="0"/>
        <pt x="494" y="111" on="0"/>
        <pt x="594" y="8" on="0"/>
        <pt x="659" y="8" on="1"/>
        <pt x="799" y="8" on="0"/>
        <pt x="1057" y="303" on="0"/>
        <pt x="1217" y="771" on="0"/>
        <pt x="1217" y="1014" on="1"/>
        <pt x="1217" y="1145" on="0"/>
        <pt x="1160" y="1339" on="0"/>
        <pt x="1060" y="1442" on="0"/>
        <pt x="995" y="1442" on="1"/>
      </contour>
    </TTGlyph>
    <TTGlyph name="OE" xMin="88" yMin="-29" xMax="2133" yMax="1479">
      <contour>
        <pt x="2009" y="1444" on="0"/>
        <pt x="2133" y="1450" on="1"/>
        <pt x="2091" y="1341" on="0"/>
        <pt x="2055" y="1208" on="1"/>
        <pt x="2034" y="1135" on="0"/>
        <pt x="2029" y="1081" on="1"/>
        <pt x="1984" y="1081" on="1"/>
        <pt x="1999" y="1167" on="0"/>
        <pt x="1999" y="1226" on="1"/>
        <pt x="1999" y="1322" on="0"/>
        <pt x="1914" y="1403" on="0"/>
        <pt x="1818" y="1403" on="1"/>
        <pt x="1697" y="1403" on="1"/>
        <pt x="1626" y="1403" on="0"/>
        <pt x="1555" y="1379" on="0"/>
        <pt x="1512" y="1310" on="0"/>
        <pt x="1492" y="1233" on="1"/>
        <pt x="1364" y="750" on="1"/>
        <pt x="1515" y="750" on="1"/>
        <pt x="1573" y="750" on="0"/>
        <pt x="1650" y="811" on="0"/>
        <pt x="1697" y="902" on="0"/>
        <pt x="1726" y="979" on="1"/>
        <pt x="1771" y="979" on="1"/>
        <pt x="1748" y="910" on="0"/>
        <pt x="1717" y="791" on="1"/>
        <pt x="1701" y="729" on="1"/>
        <pt x="1676" y="637" on="0"/>
        <pt x="1648" y="479" on="1"/>
        <pt x="1603" y="479" on="1"/>
        <pt x="1603" y="490" on="0"/>
        <pt x="1608" y="542" on="1"/>
        <pt x="1613" y="579" on="0"/>
        <pt x="1613" y="605" on="1"/>
        <pt x="1613" y="651" on="0"/>
        <pt x="1568" y="705" on="0"/>
        <pt x="1507" y="709" on="1"/>
        <pt x="1353" y="709" on="1"/>
        <pt x="1222" y="217" on="1"/>
        <pt x="1204" y="147" on="0"/>
        <pt x="1204" y="117" on="1"/>
        <pt x="1204" y="88" on="0"/>
        <pt x="1231" y="58" on="0"/>
        <pt x="1287" y="47" on="0"/>
        <pt x="1339" y="47" on="1"/>
        <pt x="1480" y="47" on="1"/>
        <pt x="1579" y="47" on="0"/>
        <pt x="1706" y="115" on="0"/>
        <pt x="1799" y="269" on="0"/>
        <pt x="1846" y="410" on="1"/>
        <pt x="1892" y="410" on="1"/>
        <pt x="1880" y="382" on="0"/>
        <pt x="1858" y="298" on="1"/>
        <pt x="1849" y="262" on="1"/>
        <pt x="1814" y="145" on="0"/>
        <pt x="1795" y="0" on="1"/>
        <pt x="1658" y="6" on="0"/>
        <pt x="1341" y="6" on="1"/>
        <pt x="1014" y="6" on="0"/>
        <pt x="841" y="3" on="1"/>
        <pt x="728" y="-29" on="0"/>
        <pt x="626" y="-29" on="1"/>
        <pt x="458" y="-29" on="0"/>
        <pt x="216" y="87" on="0"/>
        <pt x="88" y="308" on="0"/>
        <pt x="88" y="463" on="1"/>
        <pt x="88" y="695" on="0"/>
        <pt x="321" y="1169" on="0"/>
        <pt x="738" y="1479" on="0"/>
        <pt x="999" y="1479" on="1"/>
        <pt x="1099" y="1479" on="0"/>
        <pt x="1190" y="1445" on="1"/>
        <pt x="1282" y="1444" on="0"/>
        <pt x="1487" y="1444" on="1"/>
        <pt x="1726" y="1444" on="1"/>
      </contour>
      <contour>
        <pt x="1181" y="1289" on="0"/>
        <pt x="1181" y="1324" on="1"/>
        <pt x="1181" y="1391" on="0"/>
        <pt x="1095" y="1442" on="0"/>
        <pt x="1006" y="1442" on="1"/>
        <pt x="859" y="1442" on="0"/>
        <pt x="597" y="1148" on="0"/>
        <pt x="440" y="681" on="0"/>
        <pt x="440" y="436" on="1"/>
        <pt x="440" y="303" on="0"/>
        <pt x="494" y="110" on="0"/>
        <pt x="595" y="8" on="0"/>
        <pt x="664" y="8" on="1"/>
        <pt x="754" y="8" on="0"/>
        <pt x="859" y="72" on="0"/>
        <pt x="880" y="154" on="1"/>
        <pt x="1167" y="1233" on="1"/>
      </contour>
    </TTGlyph>
    <TTGlyph name="Oacute" xMin="86" yMin="-29" xMax="1571" yMax="1959">
      <component glyphName=".ttfautohint" x="86" y="0" flags="0x0"/>
      <component glyphName="O" x="0" y="0" flags="0x0"/>
      <component glyphName="acute.case" x="895" y="0" flags="0x0"/>
    </TTGlyph>
    <TTGlyph name="Oacute.loclPLK" xMin="86" yMin="-29" xMax="1571" yMax="1992">
      <component glyphName=".ttfautohint" x="86" y="0" flags="0x0"/>
      <component glyphName="O" x="0" y="0" flags="0x0"/>
      <component glyphName="acute.loclPLK.case" x="952" y="0" flags="0x0"/>
    </TTGlyph>
    <TTGlyph name="Obreve" xMin="86" yMin="-29" xMax="1596" yMax="1896">
      <component glyphName=".ttfautohint" x="86" y="0" flags="0x0"/>
      <component glyphName="O" x="0" y="0" flags="0x0"/>
      <component glyphName="breve.case" x="602" y="0" flags="0x0"/>
    </TTGlyph>
    <TTGlyph name="Ocircumflex" xMin="86" yMin="-29" xMax="1571" yMax="1925">
      <component glyphName=".ttfautohint" x="86" y="0" flags="0x0"/>
      <component glyphName="O" x="0" y="0" flags="0x0"/>
      <component glyphName="circumflex.case" x="629" y="0" flags="0x0"/>
    </TTGlyph>
    <TTGlyph name="Odieresis" xMin="86" yMin="-29" xMax="1571" yMax="1878">
      <component glyphName=".ttfautohint" x="86" y="0" flags="0x0"/>
      <component glyphName="O" x="0" y="0" flags="0x0"/>
      <component glyphName="dieresis.case" x="674" y="0" flags="0x0"/>
    </TTGlyph>
    <TTGlyph name="Ograve" xMin="86" yMin="-29" xMax="1571" yMax="1944">
      <component glyphName=".ttfautohint" x="86" y="0" flags="0x0"/>
      <component glyphName="O" x="0" y="0" flags="0x0"/>
      <component glyphName="grave.case" x="676" y="0" flags="0x0"/>
    </TTGlyph>
    <TTGlyph name="Ohungarumlaut" xMin="86" yMin="-29" xMax="1624" yMax="1939">
      <component glyphName=".ttfautohint" x="86" y="0" flags="0x0"/>
      <component glyphName="O" x="0" y="0" flags="0x0"/>
      <component glyphName="hungarumlaut.case" x="646" y="0" flags="0x0"/>
    </TTGlyph>
    <TTGlyph name="Omacron" xMin="86" yMin="-29" xMax="1571" yMax="1729">
      <component glyphName=".ttfautohint" x="86" y="0" flags="0x0"/>
      <component glyphName="O" x="0" y="0" flags="0x0"/>
      <component glyphName="macron.case" x="649" y="0" flags="0x0"/>
    </TTGlyph>
    <TTGlyph name="Omega" xMin="229" yMin="0" xMax="1531" yMax="1479">
      <contour>
        <pt x="1087" y="1479" on="0"/>
        <pt x="1379" y="1356" on="0"/>
        <pt x="1531" y="1126" on="0"/>
        <pt x="1531" y="967" on="1"/>
        <pt x="1531" y="852" on="0"/>
        <pt x="1456" y="652" on="0"/>
        <pt x="1343" y="487" on="0"/>
        <pt x="1243" y="362" on="1"/>
        <pt x="1165" y="265" on="0"/>
        <pt x="1062" y="126" on="0"/>
        <pt x="1015" y="47" on="1"/>
        <pt x="1124" y="47" on="1"/>
        <pt x="1221" y="47" on="0"/>
        <pt x="1357" y="118" on="0"/>
        <pt x="1446" y="279" on="0"/>
        <pt x="1468" y="414" on="1"/>
        <pt x="1516" y="414" on="1"/>
        <pt x="1509" y="361" on="0"/>
        <pt x="1509" y="266" on="1"/>
        <pt x="1509" y="145" on="0"/>
        <pt x="1524" y="0" on="1"/>
        <pt x="1446" y="6" on="0"/>
        <pt x="1257" y="6" on="1"/>
        <pt x="1183" y="6" on="0"/>
        <pt x="1093" y="3" on="1"/>
        <pt x="964" y="0" on="1"/>
        <pt x="964" y="33" on="1"/>
        <pt x="1059" y="199" on="0"/>
        <pt x="1216" y="663" on="0"/>
        <pt x="1216" y="926" on="1"/>
        <pt x="1216" y="1180" on="0"/>
        <pt x="1059" y="1442" on="0"/>
        <pt x="880" y="1442" on="1"/>
        <pt x="701" y="1442" on="0"/>
        <pt x="544" y="1180" on="0"/>
        <pt x="544" y="926" on="1"/>
        <pt x="544" y="663" on="0"/>
        <pt x="701" y="197" on="0"/>
        <pt x="796" y="33" on="1"/>
        <pt x="796" y="0" on="1"/>
        <pt x="666" y="3" on="1"/>
        <pt x="576" y="6" on="0"/>
        <pt x="503" y="6" on="1"/>
        <pt x="314" y="6" on="0"/>
        <pt x="236" y="0" on="1"/>
        <pt x="250" y="148" on="0"/>
        <pt x="250" y="266" on="1"/>
        <pt x="250" y="357" on="0"/>
        <pt x="244" y="414" on="1"/>
        <pt x="291" y="414" on="1"/>
        <pt x="313" y="279" on="0"/>
        <pt x="402" y="118" on="0"/>
        <pt x="538" y="47" on="0"/>
        <pt x="635" y="47" on="1"/>
        <pt x="745" y="47" on="1"/>
        <pt x="698" y="126" on="0"/>
        <pt x="595" y="265" on="0"/>
        <pt x="517" y="362" on="1"/>
        <pt x="417" y="487" on="0"/>
        <pt x="304" y="652" on="0"/>
        <pt x="229" y="852" on="0"/>
        <pt x="229" y="967" on="1"/>
        <pt x="229" y="1126" on="0"/>
        <pt x="381" y="1356" on="0"/>
        <pt x="673" y="1479" on="0"/>
        <pt x="880" y="1479" on="1"/>
      </contour>
    </TTGlyph>
    <TTGlyph name="Oslash" xMin="-5" yMin="-150" xMax="1647" yMax="1583">
      <contour>
        <pt x="1571" y="1206" on="0"/>
        <pt x="1571" y="985" on="1"/>
        <pt x="1571" y="754" on="0"/>
        <pt x="1332" y="281" on="0"/>
        <pt x="906" y="-29" on="0"/>
        <pt x="641" y="-29" on="1"/>
        <pt x="398" y="-29" on="0"/>
        <pt x="254" y="83" on="1"/>
        <pt x="29" y="-150" on="1"/>
        <pt x="-5" y="-121" on="1"/>
        <pt x="219" y="112" on="1"/>
        <pt x="86" y="242" on="0"/>
        <pt x="86" y="463" on="1"/>
        <pt x="86" y="695" on="0"/>
        <pt x="323" y="1169" on="0"/>
        <pt x="747" y="1479" on="0"/>
        <pt x="1014" y="1479" on="1"/>
        <pt x="1262" y="1479" on="0"/>
        <pt x="1407" y="1363" on="1"/>
        <pt x="1617" y="1583" on="1"/>
        <pt x="1647" y="1556" on="1"/>
        <pt x="1439" y="1335" on="1"/>
      </contour>
      <contour>
        <pt x="856" y="1442" on="0"/>
        <pt x="597" y="1147" on="0"/>
        <pt x="438" y="679" on="0"/>
        <pt x="438" y="436" on="1"/>
        <pt x="438" y="365" on="0"/>
        <pt x="447" y="303" on="1"/>
        <pt x="1205" y="1169" on="1"/>
        <pt x="1183" y="1299" on="0"/>
        <pt x="1072" y="1442" on="0"/>
        <pt x="995" y="1442" on="1"/>
      </contour>
      <contour>
        <pt x="799" y="8" on="0"/>
        <pt x="1057" y="303" on="0"/>
        <pt x="1217" y="771" on="0"/>
        <pt x="1217" y="1014" on="1"/>
        <pt x="1217" y="1061" on="0"/>
        <pt x="1212" y="1114" on="1"/>
        <pt x="456" y="247" on="1"/>
        <pt x="481" y="133" on="0"/>
        <pt x="587" y="8" on="0"/>
        <pt x="659" y="8" on="1"/>
      </contour>
    </TTGlyph>
    <TTGlyph name="Otilde" xMin="86" yMin="-29" xMax="1584" yMax="1898">
      <component glyphName=".ttfautohint" x="86" y="0" flags="0x0"/>
      <component glyphName="O" x="0" y="0" flags="0x0"/>
      <component glyphName="tilde.case" x="576" y="0" flags="0x0"/>
    </TTGlyph>
    <TTGlyph name="P" xMin="-86" yMin="0" xMax="1399" yMax="1450">
      <contour>
        <pt x="441" y="159" on="0"/>
        <pt x="441" y="127" on="1"/>
        <pt x="441" y="84" on="0"/>
        <pt x="502" y="45" on="0"/>
        <pt x="578" y="41" on="1"/>
        <pt x="569" y="0" on="1"/>
        <pt x="446" y="6" on="0"/>
        <pt x="254" y="6" on="1"/>
        <pt x="22" y="6" on="0"/>
        <pt x="-86" y="0" on="1"/>
        <pt x="-78" y="41" on="1"/>
        <pt x="-4" y="44" on="0"/>
        <pt x="69" y="70" on="0"/>
        <pt x="113" y="140" on="0"/>
        <pt x="133" y="217" on="1"/>
        <pt x="403" y="1233" on="1"/>
        <pt x="419" y="1302" on="0"/>
        <pt x="419" y="1329" on="1"/>
        <pt x="419" y="1370" on="0"/>
        <pt x="360" y="1406" on="0"/>
        <pt x="283" y="1409" on="1"/>
        <pt x="293" y="1450" on="1"/>
        <pt x="398" y="1444" on="0"/>
        <pt x="618" y="1444" on="1"/>
        <pt x="667" y="1444" on="0"/>
        <pt x="765" y="1446" on="1"/>
        <pt x="865" y="1448" on="0"/>
        <pt x="918" y="1448" on="1"/>
        <pt x="1399" y="1448" on="0"/>
        <pt x="1399" y="1139" on="1"/>
        <pt x="1399" y="979" on="0"/>
        <pt x="1186" y="726" on="0"/>
        <pt x="801" y="582" on="0"/>
        <pt x="554" y="582" on="1"/>
        <pt x="457" y="217" on="1"/>
      </contour>
      <contour>
        <pt x="573" y="623" on="1"/>
        <pt x="744" y="623" on="0"/>
        <pt x="961" y="787" on="0"/>
        <pt x="1057" y="1042" on="0"/>
        <pt x="1057" y="1185" on="1"/>
        <pt x="1057" y="1297" on="0"/>
        <pt x="962" y="1409" on="0"/>
        <pt x="858" y="1409" on="1"/>
        <pt x="816" y="1409" on="0"/>
        <pt x="774" y="1380" on="0"/>
        <pt x="748" y="1314" on="0"/>
        <pt x="727" y="1233" on="1"/>
        <pt x="565" y="623" on="1"/>
      </contour>
    </TTGlyph>
    <TTGlyph name="Q" xMin="-79" yMin="-385" xMax="1670" yMax="1479">
      <contour>
        <pt x="1444" y="211" on="0"/>
        <pt x="1538" y="122" on="0"/>
        <pt x="1538" y="40" on="1"/>
        <pt x="1538" y="-63" on="0"/>
        <pt x="1385" y="-261" on="0"/>
        <pt x="1122" y="-385" on="0"/>
        <pt x="967" y="-385" on="1"/>
        <pt x="847" y="-385" on="0"/>
        <pt x="648" y="-308" on="0"/>
        <pt x="497" y="-197" on="0"/>
        <pt x="408" y="-114" on="1"/>
        <pt x="249" y="-168" on="0"/>
        <pt x="134" y="-168" on="1"/>
        <pt x="35" y="-168" on="0"/>
        <pt x="-79" y="-84" on="0"/>
        <pt x="-79" y="-3" on="1"/>
        <pt x="-79" y="62" on="0"/>
        <pt x="-4" y="168" on="0"/>
        <pt x="127" y="227" on="0"/>
        <pt x="208" y="227" on="1"/>
        <pt x="284" y="227" on="0"/>
        <pt x="432" y="175" on="0"/>
        <pt x="565" y="96" on="0"/>
        <pt x="657" y="33" on="1"/>
        <pt x="844" y="130" on="0"/>
        <pt x="1146" y="436" on="0"/>
        <pt x="1322" y="820" on="0"/>
        <pt x="1322" y="1026" on="1"/>
        <pt x="1322" y="1222" on="0"/>
        <pt x="1163" y="1442" on="0"/>
        <pt x="1014" y="1442" on="1"/>
        <pt x="875" y="1442" on="0"/>
        <pt x="657" y="1257" on="0"/>
        <pt x="538" y="964" on="0"/>
        <pt x="538" y="811" on="1"/>
        <pt x="538" y="686" on="0"/>
        <pt x="638" y="557" on="0"/>
        <pt x="748" y="557" on="1"/>
        <pt x="830" y="557" on="0"/>
        <pt x="971" y="630" on="0"/>
        <pt x="1065" y="749" on="0"/>
        <pt x="1081" y="817" on="1"/>
        <pt x="1093" y="865" on="0"/>
        <pt x="1090" y="915" on="1"/>
        <pt x="1069" y="854" on="0"/>
        <pt x="965" y="792" on="0"/>
        <pt x="908" y="792" on="1"/>
        <pt x="842" y="792" on="0"/>
        <pt x="762" y="878" on="0"/>
        <pt x="762" y="945" on="1"/>
        <pt x="762" y="998" on="0"/>
        <pt x="814" y="1084" on="0"/>
        <pt x="903" y="1133" on="0"/>
        <pt x="956" y="1133" on="1"/>
        <pt x="1041" y="1133" on="0"/>
        <pt x="1140" y="1010" on="0"/>
        <pt x="1140" y="907" on="1"/>
        <pt x="1140" y="790" on="0"/>
        <pt x="1011" y="603" on="0"/>
        <pt x="781" y="498" on="0"/>
        <pt x="636" y="498" on="1"/>
        <pt x="505" y="498" on="0"/>
        <pt x="305" y="585" on="0"/>
        <pt x="194" y="749" on="0"/>
        <pt x="194" y="862" on="1"/>
        <pt x="194" y="1034" on="0"/>
        <pt x="437" y="1317" on="0"/>
        <pt x="835" y="1479" on="0"/>
        <pt x="1057" y="1479" on="1"/>
        <pt x="1237" y="1479" on="0"/>
        <pt x="1515" y="1376" on="0"/>
        <pt x="1670" y="1188" on="0"/>
        <pt x="1670" y="1063" on="1"/>
        <pt x="1670" y="888" on="0"/>
        <pt x="1386" y="492" on="0"/>
        <pt x="937" y="134" on="0"/>
        <pt x="692" y="8" on="1"/>
        <pt x="794" y="-62" on="0"/>
        <pt x="944" y="-151" on="0"/>
        <pt x="1118" y="-210" on="0"/>
        <pt x="1211" y="-210" on="1"/>
        <pt x="1399" y="-210" on="0"/>
        <pt x="1474" y="-65" on="1"/>
        <pt x="1419" y="-110" on="0"/>
        <pt x="1344" y="-110" on="1"/>
        <pt x="1274" y="-110" on="0"/>
        <pt x="1185" y="-30" on="0"/>
        <pt x="1185" y="39" on="1"/>
        <pt x="1185" y="87" on="0"/>
        <pt x="1232" y="166" on="0"/>
        <pt x="1316" y="211" on="0"/>
        <pt x="1369" y="211" on="1"/>
      </contour>
      <contour>
        <pt x="237" y="-133" on="0"/>
        <pt x="378" y="-86" on="1"/>
        <pt x="317" y="-29" on="0"/>
        <pt x="230" y="40" on="0"/>
        <pt x="135" y="84" on="0"/>
        <pt x="86" y="84" on="1"/>
        <pt x="32" y="84" on="0"/>
        <pt x="-35" y="30" on="0"/>
        <pt x="-35" y="-16" on="1"/>
        <pt x="-35" y="-72" on="0"/>
        <pt x="63" y="-133" on="0"/>
        <pt x="151" y="-133" on="1"/>
      </contour>
    </TTGlyph>
    <TTGlyph name="R" xMin="-86" yMin="-29" xMax="1399" yMax="1450">
      <contour>
        <pt x="1389" y="248" on="1"/>
        <pt x="1380" y="221" on="1"/>
        <pt x="1342" y="93" on="0"/>
        <pt x="1193" y="-29" on="0"/>
        <pt x="1068" y="-29" on="1"/>
        <pt x="944" y="-29" on="0"/>
        <pt x="817" y="78" on="0"/>
        <pt x="817" y="169" on="1"/>
        <pt x="817" y="189" on="0"/>
        <pt x="820" y="210" on="1"/>
        <pt x="850" y="442" on="1"/>
        <pt x="855" y="482" on="0"/>
        <pt x="855" y="509" on="1"/>
        <pt x="855" y="573" on="0"/>
        <pt x="807" y="652" on="0"/>
        <pt x="690" y="694" on="0"/>
        <pt x="585" y="696" on="1"/>
        <pt x="458" y="217" on="1"/>
        <pt x="438" y="141" on="0"/>
        <pt x="438" y="117" on="1"/>
        <pt x="438" y="79" on="0"/>
        <pt x="499" y="44" on="0"/>
        <pt x="578" y="41" on="1"/>
        <pt x="569" y="0" on="1"/>
        <pt x="446" y="6" on="0"/>
        <pt x="249" y="6" on="1"/>
        <pt x="22" y="6" on="0"/>
        <pt x="-86" y="0" on="1"/>
        <pt x="-78" y="41" on="1"/>
        <pt x="-4" y="44" on="0"/>
        <pt x="69" y="70" on="0"/>
        <pt x="113" y="140" on="0"/>
        <pt x="133" y="217" on="1"/>
        <pt x="402" y="1233" on="1"/>
        <pt x="420" y="1298" on="0"/>
        <pt x="420" y="1329" on="1"/>
        <pt x="420" y="1369" on="0"/>
        <pt x="360" y="1405" on="0"/>
        <pt x="283" y="1409" on="1"/>
        <pt x="293" y="1450" on="1"/>
        <pt x="398" y="1444" on="0"/>
        <pt x="603" y="1444" on="1"/>
        <pt x="674" y="1444" on="0"/>
        <pt x="780" y="1446" on="1"/>
        <pt x="870" y="1448" on="0"/>
        <pt x="910" y="1448" on="1"/>
        <pt x="1159" y="1448" on="0"/>
        <pt x="1399" y="1308" on="0"/>
        <pt x="1399" y="1163" on="1"/>
        <pt x="1399" y="1043" on="0"/>
        <pt x="1249" y="852" on="0"/>
        <pt x="974" y="728" on="0"/>
        <pt x="790" y="708" on="1"/>
        <pt x="792" y="708" on="1"/>
        <pt x="915" y="697" on="0"/>
        <pt x="1078" y="653" on="0"/>
        <pt x="1174" y="556" on="0"/>
        <pt x="1174" y="471" on="1"/>
        <pt x="1174" y="450" on="0"/>
        <pt x="1171" y="426" on="1"/>
        <pt x="1144" y="215" on="1"/>
        <pt x="1141" y="190" on="0"/>
        <pt x="1141" y="168" on="1"/>
        <pt x="1141" y="72" on="0"/>
        <pt x="1206" y="72" on="1"/>
        <pt x="1245" y="72" on="0"/>
        <pt x="1305" y="144" on="0"/>
        <pt x="1331" y="219" on="1"/>
        <pt x="1341" y="248" on="1"/>
      </contour>
      <contour>
        <pt x="610" y="733" on="1"/>
        <pt x="745" y="733" on="0"/>
        <pt x="953" y="841" on="0"/>
        <pt x="1069" y="1049" on="0"/>
        <pt x="1069" y="1194" on="1"/>
        <pt x="1069" y="1304" on="0"/>
        <pt x="975" y="1409" on="0"/>
        <pt x="879" y="1409" on="1"/>
        <pt x="837" y="1409" on="0"/>
        <pt x="786" y="1386" on="0"/>
        <pt x="752" y="1329" on="0"/>
        <pt x="738" y="1275" on="1"/>
        <pt x="595" y="733" on="1"/>
      </contour>
    </TTGlyph>
    <TTGlyph name="Racute" xMin="-86" yMin="-29" xMax="1399" yMax="1959">
      <component glyphName=".ttfautohint" x="0" y="0" flags="0x0"/>
      <component glyphName="R" x="0" y="0" flags="0x0"/>
      <component glyphName="acute.case" x="692" y="0" flags="0x0"/>
    </TTGlyph>
    <TTGlyph name="Rcaron" xMin="-86" yMin="-29" xMax="1444" yMax="1919">
      <component glyphName=".ttfautohint" x="0" y="0" flags="0x0"/>
      <component glyphName="R" x="0" y="0" flags="0x0"/>
      <component glyphName="caron.case" x="420" y="0" flags="0x0"/>
    </TTGlyph>
    <TTGlyph name="Rcommaaccent" xMin="-86" yMin="-494" xMax="1399" yMax="1450">
      <component glyphName=".ttfautohint" x="0" y="0" flags="0x0"/>
      <component glyphName="R" x="0" y="0" flags="0x0"/>
      <component glyphName="commaaccentcomb.case" x="440" y="0" flags="0x0"/>
    </TTGlyph>
    <TTGlyph name="S" xMin="-58" yMin="-29" xMax="1269" yMax="1479">
      <contour>
        <pt x="1191" y="1265" on="0"/>
        <pt x="1149" y="1047" on="1"/>
        <pt x="1108" y="1047" on="1"/>
        <pt x="1120" y="1104" on="0"/>
        <pt x="1120" y="1161" on="1"/>
        <pt x="1120" y="1241" on="0"/>
        <pt x="1053" y="1363" on="0"/>
        <pt x="921" y="1430" on="0"/>
        <pt x="827" y="1430" on="1"/>
        <pt x="717" y="1430" on="0"/>
        <pt x="579" y="1319" on="0"/>
        <pt x="579" y="1207" on="1"/>
        <pt x="579" y="1141" on="0"/>
        <pt x="640" y="1014" on="0"/>
        <pt x="730" y="904" on="0"/>
        <pt x="807" y="823" on="1"/>
        <pt x="891" y="733" on="0"/>
        <pt x="990" y="611" on="0"/>
        <pt x="1060" y="462" on="0"/>
        <pt x="1060" y="380" on="1"/>
        <pt x="1060" y="243" on="0"/>
        <pt x="885" y="59" on="0"/>
        <pt x="625" y="-29" on="0"/>
        <pt x="496" y="-29" on="1"/>
        <pt x="404" y="-29" on="0"/>
        <pt x="278" y="-5" on="0"/>
        <pt x="195" y="33" on="0"/>
        <pt x="141" y="66" on="1"/>
        <pt x="94" y="96" on="0"/>
        <pt x="70" y="96" on="1"/>
        <pt x="44" y="96" on="0"/>
        <pt x="11" y="51" on="0"/>
        <pt x="-17" y="-14" on="1"/>
        <pt x="-58" y="-14" on="1"/>
        <pt x="10" y="148" on="0"/>
        <pt x="82" y="477" on="1"/>
        <pt x="122" y="477" on="1"/>
        <pt x="104" y="408" on="0"/>
        <pt x="104" y="331" on="1"/>
        <pt x="104" y="177" on="0"/>
        <pt x="275" y="16" on="0"/>
        <pt x="438" y="16" on="1"/>
        <pt x="702" y="16" on="0"/>
        <pt x="702" y="231" on="1"/>
        <pt x="702" y="312" on="0"/>
        <pt x="643" y="453" on="0"/>
        <pt x="557" y="566" on="0"/>
        <pt x="485" y="647" on="1"/>
        <pt x="412" y="730" on="0"/>
        <pt x="326" y="844" on="0"/>
        <pt x="266" y="987" on="0"/>
        <pt x="266" y="1069" on="1"/>
        <pt x="266" y="1200" on="0"/>
        <pt x="416" y="1386" on="0"/>
        <pt x="648" y="1479" on="0"/>
        <pt x="769" y="1479" on="1"/>
        <pt x="877" y="1479" on="0"/>
        <pt x="1026" y="1429" on="0"/>
        <pt x="1093" y="1388" on="1"/>
        <pt x="1147" y="1356" on="0"/>
        <pt x="1161" y="1356" on="1"/>
        <pt x="1177" y="1356" on="0"/>
        <pt x="1208" y="1407" on="0"/>
        <pt x="1228" y="1464" on="1"/>
        <pt x="1269" y="1464" on="1"/>
      </contour>
    </TTGlyph>
    <TTGlyph name="Sacute" xMin="-58" yMin="-29" xMax="1276" yMax="1959">
      <component glyphName=".ttfautohint" x="0" y="0" flags="0x0"/>
      <component glyphName="S" x="0" y="0" flags="0x0"/>
      <component glyphName="acute.case" x="649" y="0" flags="0x0"/>
    </TTGlyph>
    <TTGlyph name="Sacute.loclPLK" xMin="-58" yMin="-29" xMax="1269" yMax="1992">
      <component glyphName=".ttfautohint" x="0" y="0" flags="0x0"/>
      <component glyphName="S" x="0" y="0" flags="0x0"/>
      <component glyphName="acute.loclPLK.case" x="706" y="0" flags="0x0"/>
    </TTGlyph>
    <TTGlyph name="Scaron" xMin="-58" yMin="-29" xMax="1401" yMax="1919">
      <component glyphName=".ttfautohint" x="0" y="0" flags="0x0"/>
      <component glyphName="S" x="0" y="0" flags="0x0"/>
      <component glyphName="caron.case" x="377" y="0" flags="0x0"/>
    </TTGlyph>
    <TTGlyph name="Scedilla" xMin="-58" yMin="-385" xMax="1269" yMax="1479">
      <contour>
        <pt x="1191" y="1265" on="0"/>
        <pt x="1149" y="1047" on="1"/>
        <pt x="1108" y="1047" on="1"/>
        <pt x="1120" y="1104" on="0"/>
        <pt x="1120" y="1161" on="1"/>
        <pt x="1120" y="1241" on="0"/>
        <pt x="1053" y="1363" on="0"/>
        <pt x="921" y="1430" on="0"/>
        <pt x="827" y="1430" on="1"/>
        <pt x="717" y="1430" on="0"/>
        <pt x="579" y="1319" on="0"/>
        <pt x="579" y="1207" on="1"/>
        <pt x="579" y="1141" on="0"/>
        <pt x="640" y="1014" on="0"/>
        <pt x="730" y="904" on="0"/>
        <pt x="807" y="823" on="1"/>
        <pt x="891" y="733" on="0"/>
        <pt x="990" y="611" on="0"/>
        <pt x="1060" y="462" on="0"/>
        <pt x="1060" y="380" on="1"/>
        <pt x="1060" y="243" on="0"/>
        <pt x="885" y="59" on="0"/>
        <pt x="625" y="-29" on="0"/>
        <pt x="496" y="-29" on="1"/>
        <pt x="481" y="-29" on="1"/>
        <pt x="436" y="-129" on="1"/>
        <pt x="493" y="-109" on="0"/>
        <pt x="554" y="-109" on="1"/>
        <pt x="618" y="-109" on="0"/>
        <pt x="692" y="-158" on="0"/>
        <pt x="692" y="-206" on="1"/>
        <pt x="692" y="-267" on="0"/>
        <pt x="589" y="-347" on="0"/>
        <pt x="430" y="-385" on="0"/>
        <pt x="344" y="-385" on="1"/>
        <pt x="275" y="-385" on="0"/>
        <pt x="154" y="-360" on="0"/>
        <pt x="120" y="-345" on="1"/>
        <pt x="133" y="-313" on="1"/>
        <pt x="209" y="-336" on="0"/>
        <pt x="298" y="-336" on="1"/>
        <pt x="365" y="-336" on="0"/>
        <pt x="482" y="-294" on="0"/>
        <pt x="482" y="-242" on="1"/>
        <pt x="482" y="-195" on="0"/>
        <pt x="417" y="-195" on="1"/>
        <pt x="381" y="-195" on="0"/>
        <pt x="345" y="-209" on="1"/>
        <pt x="427" y="-27" on="1"/>
        <pt x="358" y="-23" on="0"/>
        <pt x="259" y="2" on="0"/>
        <pt x="188" y="37" on="0"/>
        <pt x="141" y="66" on="1"/>
        <pt x="94" y="96" on="0"/>
        <pt x="70" y="96" on="1"/>
        <pt x="44" y="96" on="0"/>
        <pt x="11" y="51" on="0"/>
        <pt x="-17" y="-14" on="1"/>
        <pt x="-58" y="-14" on="1"/>
        <pt x="10" y="148" on="0"/>
        <pt x="82" y="477" on="1"/>
        <pt x="122" y="477" on="1"/>
        <pt x="104" y="408" on="0"/>
        <pt x="104" y="331" on="1"/>
        <pt x="104" y="177" on="0"/>
        <pt x="275" y="16" on="0"/>
        <pt x="438" y="16" on="1"/>
        <pt x="702" y="16" on="0"/>
        <pt x="702" y="231" on="1"/>
        <pt x="702" y="312" on="0"/>
        <pt x="643" y="453" on="0"/>
        <pt x="557" y="566" on="0"/>
        <pt x="485" y="647" on="1"/>
        <pt x="412" y="730" on="0"/>
        <pt x="326" y="844" on="0"/>
        <pt x="266" y="987" on="0"/>
        <pt x="266" y="1069" on="1"/>
        <pt x="266" y="1200" on="0"/>
        <pt x="416" y="1386" on="0"/>
        <pt x="648" y="1479" on="0"/>
        <pt x="769" y="1479" on="1"/>
        <pt x="877" y="1479" on="0"/>
        <pt x="1026" y="1429" on="0"/>
        <pt x="1093" y="1388" on="1"/>
        <pt x="1147" y="1356" on="0"/>
        <pt x="1161" y="1356" on="1"/>
        <pt x="1177" y="1356" on="0"/>
        <pt x="1208" y="1407" on="0"/>
        <pt x="1228" y="1464" on="1"/>
        <pt x="1269" y="1464" on="1"/>
      </contour>
    </TTGlyph>
    <TTGlyph name="Scircumflex" xMin="-58" yMin="-29" xMax="1269" yMax="1925">
      <component glyphName=".ttfautohint" x="0" y="0" flags="0x0"/>
      <component glyphName="S" x="0" y="0" flags="0x0"/>
      <component glyphName="circumflex.case" x="383" y="0" flags="0x0"/>
    </TTGlyph>
    <TTGlyph name="Scommaaccent" xMin="-58" yMin="-494" xMax="1269" yMax="1479">
      <component glyphName=".ttfautohint" x="0" y="0" flags="0x0"/>
      <component glyphName="S" x="0" y="0" flags="0x0"/>
      <component glyphName="commaaccentcomb.case" x="254" y="0" flags="0x0"/>
    </TTGlyph>
    <TTGlyph name="T" xMin="177" yMin="0" xMax="1757" yMax="1758">
      <contour>
        <pt x="1648" y="1758" on="0"/>
        <pt x="1719" y="1718" on="0"/>
        <pt x="1757" y="1651" on="0"/>
        <pt x="1757" y="1613" on="1"/>
        <pt x="1757" y="1486" on="0"/>
        <pt x="1615" y="1420" on="1"/>
        <pt x="1490" y="1360" on="0"/>
        <pt x="1273" y="1360" on="1"/>
        <pt x="1223" y="1360" on="0"/>
        <pt x="1153" y="1365" on="1"/>
        <pt x="855" y="238" on="1"/>
        <pt x="839" y="181" on="0"/>
        <pt x="839" y="142" on="1"/>
        <pt x="839" y="106" on="0"/>
        <pt x="872" y="64" on="0"/>
        <pt x="945" y="44" on="0"/>
        <pt x="1008" y="41" on="1"/>
        <pt x="1000" y="0" on="1"/>
        <pt x="871" y="6" on="0"/>
        <pt x="621" y="6" on="1"/>
        <pt x="378" y="6" on="0"/>
        <pt x="261" y="0" on="1"/>
        <pt x="269" y="41" on="1"/>
        <pt x="356" y="44" on="0"/>
        <pt x="453" y="80" on="0"/>
        <pt x="508" y="160" on="0"/>
        <pt x="529" y="238" on="1"/>
        <pt x="837" y="1394" on="1"/>
        <pt x="674" y="1409" on="0"/>
        <pt x="591" y="1409" on="1"/>
        <pt x="425" y="1409" on="0"/>
        <pt x="360" y="1374" on="1"/>
        <pt x="414" y="1359" on="0"/>
        <pt x="484" y="1269" on="0"/>
        <pt x="484" y="1208" on="1"/>
        <pt x="484" y="1161" on="0"/>
        <pt x="443" y="1083" on="0"/>
        <pt x="370" y="1037" on="0"/>
        <pt x="324" y="1037" on="1"/>
        <pt x="255" y="1037" on="0"/>
        <pt x="177" y="1129" on="0"/>
        <pt x="177" y="1197" on="1"/>
        <pt x="177" y="1255" on="0"/>
        <pt x="238" y="1363" on="0"/>
        <pt x="310" y="1398" on="1"/>
        <pt x="409" y="1446" on="0"/>
        <pt x="584" y="1446" on="1"/>
        <pt x="721" y="1446" on="0"/>
        <pt x="965" y="1422" on="1"/>
        <pt x="1183" y="1401" on="0"/>
        <pt x="1291" y="1401" on="1"/>
        <pt x="1430" y="1401" on="0"/>
        <pt x="1508" y="1428" on="1"/>
        <pt x="1438" y="1496" on="0"/>
        <pt x="1438" y="1590" on="1"/>
        <pt x="1438" y="1664" on="0"/>
        <pt x="1527" y="1758" on="0"/>
        <pt x="1600" y="1758" on="1"/>
      </contour>
    </TTGlyph>
    <TTGlyph name="Tbar" xMin="179" yMin="0" xMax="1759" yMax="1758">
      <contour>
        <pt x="1650" y="1758" on="0"/>
        <pt x="1721" y="1718" on="0"/>
        <pt x="1759" y="1651" on="0"/>
        <pt x="1759" y="1613" on="1"/>
        <pt x="1759" y="1486" on="0"/>
        <pt x="1617" y="1420" on="1"/>
        <pt x="1492" y="1360" on="0"/>
        <pt x="1275" y="1360" on="1"/>
        <pt x="1225" y="1360" on="0"/>
        <pt x="1155" y="1365" on="1"/>
        <pt x="992" y="750" on="1"/>
        <pt x="1285" y="750" on="1"/>
        <pt x="1274" y="709" on="1"/>
        <pt x="982" y="709" on="1"/>
        <pt x="857" y="238" on="1"/>
        <pt x="841" y="181" on="0"/>
        <pt x="841" y="142" on="1"/>
        <pt x="841" y="106" on="0"/>
        <pt x="874" y="64" on="0"/>
        <pt x="947" y="44" on="0"/>
        <pt x="1010" y="41" on="1"/>
        <pt x="1002" y="0" on="1"/>
        <pt x="873" y="6" on="0"/>
        <pt x="623" y="6" on="1"/>
        <pt x="380" y="6" on="0"/>
        <pt x="263" y="0" on="1"/>
        <pt x="271" y="41" on="1"/>
        <pt x="358" y="44" on="0"/>
        <pt x="455" y="80" on="0"/>
        <pt x="510" y="160" on="0"/>
        <pt x="531" y="238" on="1"/>
        <pt x="656" y="709" on="1"/>
        <pt x="365" y="709" on="1"/>
        <pt x="375" y="750" on="1"/>
        <pt x="667" y="750" on="1"/>
        <pt x="839" y="1394" on="1"/>
        <pt x="676" y="1409" on="0"/>
        <pt x="593" y="1409" on="1"/>
        <pt x="427" y="1409" on="0"/>
        <pt x="362" y="1374" on="1"/>
        <pt x="416" y="1359" on="0"/>
        <pt x="486" y="1269" on="0"/>
        <pt x="486" y="1208" on="1"/>
        <pt x="486" y="1161" on="0"/>
        <pt x="445" y="1083" on="0"/>
        <pt x="372" y="1037" on="0"/>
        <pt x="326" y="1037" on="1"/>
        <pt x="257" y="1037" on="0"/>
        <pt x="179" y="1129" on="0"/>
        <pt x="179" y="1197" on="1"/>
        <pt x="179" y="1255" on="0"/>
        <pt x="240" y="1363" on="0"/>
        <pt x="312" y="1398" on="1"/>
        <pt x="411" y="1446" on="0"/>
        <pt x="586" y="1446" on="1"/>
        <pt x="723" y="1446" on="0"/>
        <pt x="967" y="1422" on="1"/>
        <pt x="1185" y="1401" on="0"/>
        <pt x="1293" y="1401" on="1"/>
        <pt x="1432" y="1401" on="0"/>
        <pt x="1510" y="1428" on="1"/>
        <pt x="1440" y="1496" on="0"/>
        <pt x="1440" y="1590" on="1"/>
        <pt x="1440" y="1664" on="0"/>
        <pt x="1529" y="1758" on="0"/>
        <pt x="1602" y="1758" on="1"/>
      </contour>
    </TTGlyph>
    <TTGlyph name="Tcaron" xMin="177" yMin="0" xMax="1757" yMax="1919">
      <component glyphName=".ttfautohint" x="177" y="0" flags="0x0"/>
      <component glyphName="T" x="0" y="0" flags="0x0"/>
      <component glyphName="caron.case" x="542" y="0" flags="0x0"/>
    </TTGlyph>
    <TTGlyph name="Tcedilla" xMin="177" yMin="-385" xMax="1757" yMax="1758">
      <contour>
        <pt x="1648" y="1758" on="0"/>
        <pt x="1719" y="1718" on="0"/>
        <pt x="1757" y="1651" on="0"/>
        <pt x="1757" y="1613" on="1"/>
        <pt x="1757" y="1486" on="0"/>
        <pt x="1615" y="1420" on="1"/>
        <pt x="1490" y="1360" on="0"/>
        <pt x="1273" y="1360" on="1"/>
        <pt x="1223" y="1360" on="0"/>
        <pt x="1153" y="1365" on="1"/>
        <pt x="855" y="238" on="1"/>
        <pt x="839" y="181" on="0"/>
        <pt x="839" y="142" on="1"/>
        <pt x="839" y="106" on="0"/>
        <pt x="872" y="64" on="0"/>
        <pt x="945" y="44" on="0"/>
        <pt x="1008" y="41" on="1"/>
        <pt x="1000" y="0" on="1"/>
        <pt x="880" y="6" on="0"/>
        <pt x="651" y="6" on="1"/>
        <pt x="590" y="-129" on="1"/>
        <pt x="647" y="-109" on="0"/>
        <pt x="708" y="-109" on="1"/>
        <pt x="772" y="-109" on="0"/>
        <pt x="846" y="-158" on="0"/>
        <pt x="846" y="-206" on="1"/>
        <pt x="846" y="-267" on="0"/>
        <pt x="743" y="-347" on="0"/>
        <pt x="584" y="-385" on="0"/>
        <pt x="498" y="-385" on="1"/>
        <pt x="429" y="-385" on="0"/>
        <pt x="308" y="-360" on="0"/>
        <pt x="274" y="-345" on="1"/>
        <pt x="287" y="-313" on="1"/>
        <pt x="363" y="-336" on="0"/>
        <pt x="452" y="-336" on="1"/>
        <pt x="519" y="-336" on="0"/>
        <pt x="636" y="-294" on="0"/>
        <pt x="636" y="-242" on="1"/>
        <pt x="636" y="-195" on="0"/>
        <pt x="571" y="-195" on="1"/>
        <pt x="535" y="-195" on="0"/>
        <pt x="499" y="-209" on="1"/>
        <pt x="596" y="6" on="1"/>
        <pt x="371" y="6" on="0"/>
        <pt x="261" y="0" on="1"/>
        <pt x="269" y="41" on="1"/>
        <pt x="356" y="44" on="0"/>
        <pt x="453" y="80" on="0"/>
        <pt x="508" y="160" on="0"/>
        <pt x="529" y="238" on="1"/>
        <pt x="837" y="1394" on="1"/>
        <pt x="674" y="1409" on="0"/>
        <pt x="591" y="1409" on="1"/>
        <pt x="425" y="1409" on="0"/>
        <pt x="360" y="1374" on="1"/>
        <pt x="414" y="1359" on="0"/>
        <pt x="484" y="1269" on="0"/>
        <pt x="484" y="1208" on="1"/>
        <pt x="484" y="1161" on="0"/>
        <pt x="443" y="1083" on="0"/>
        <pt x="370" y="1037" on="0"/>
        <pt x="324" y="1037" on="1"/>
        <pt x="255" y="1037" on="0"/>
        <pt x="177" y="1129" on="0"/>
        <pt x="177" y="1197" on="1"/>
        <pt x="177" y="1255" on="0"/>
        <pt x="238" y="1363" on="0"/>
        <pt x="310" y="1398" on="1"/>
        <pt x="409" y="1446" on="0"/>
        <pt x="584" y="1446" on="1"/>
        <pt x="721" y="1446" on="0"/>
        <pt x="965" y="1422" on="1"/>
        <pt x="1183" y="1401" on="0"/>
        <pt x="1291" y="1401" on="1"/>
        <pt x="1430" y="1401" on="0"/>
        <pt x="1508" y="1428" on="1"/>
        <pt x="1438" y="1496" on="0"/>
        <pt x="1438" y="1590" on="1"/>
        <pt x="1438" y="1664" on="0"/>
        <pt x="1527" y="1758" on="0"/>
        <pt x="1600" y="1758" on="1"/>
      </contour>
    </TTGlyph>
    <TTGlyph name="Thorn" xMin="-85" yMin="0" xMax="1350" yMax="1450">
      <contour>
        <pt x="441" y="151" on="0"/>
        <pt x="441" y="118" on="1"/>
        <pt x="441" y="88" on="0"/>
        <pt x="468" y="56" on="0"/>
        <pt x="526" y="43" on="0"/>
        <pt x="579" y="41" on="1"/>
        <pt x="571" y="0" on="1"/>
        <pt x="452" y="6" on="0"/>
        <pt x="237" y="6" on="1"/>
        <pt x="23" y="6" on="0"/>
        <pt x="-85" y="0" on="1"/>
        <pt x="-75" y="41" on="1"/>
        <pt x="-4" y="44" on="0"/>
        <pt x="68" y="70" on="0"/>
        <pt x="112" y="141" on="0"/>
        <pt x="132" y="217" on="1"/>
        <pt x="403" y="1233" on="1"/>
        <pt x="420" y="1298" on="0"/>
        <pt x="420" y="1331" on="1"/>
        <pt x="420" y="1362" on="0"/>
        <pt x="392" y="1394" on="0"/>
        <pt x="335" y="1407" on="0"/>
        <pt x="282" y="1409" on="1"/>
        <pt x="292" y="1450" on="1"/>
        <pt x="394" y="1444" on="0"/>
        <pt x="614" y="1444" on="1"/>
        <pt x="818" y="1444" on="0"/>
        <pt x="949" y="1450" on="1"/>
        <pt x="939" y="1409" on="1"/>
        <pt x="864" y="1406" on="0"/>
        <pt x="791" y="1380" on="0"/>
        <pt x="748" y="1310" on="0"/>
        <pt x="728" y="1233" on="1"/>
        <pt x="706" y="1151" on="1"/>
        <pt x="814" y="1153" on="0"/>
        <pt x="869" y="1153" on="1"/>
        <pt x="1029" y="1153" on="0"/>
        <pt x="1244" y="1077" on="0"/>
        <pt x="1350" y="938" on="0"/>
        <pt x="1350" y="844" on="1"/>
        <pt x="1350" y="684" on="0"/>
        <pt x="1136" y="431" on="0"/>
        <pt x="752" y="287" on="0"/>
        <pt x="504" y="287" on="1"/>
        <pt x="477" y="287" on="1"/>
        <pt x="458" y="217" on="1"/>
      </contour>
      <contour>
        <pt x="742" y="1114" on="0"/>
        <pt x="696" y="1112" on="1"/>
        <pt x="487" y="328" on="1"/>
        <pt x="525" y="328" on="1"/>
        <pt x="688" y="328" on="0"/>
        <pt x="905" y="479" on="0"/>
        <pt x="1008" y="728" on="0"/>
        <pt x="1008" y="877" on="1"/>
        <pt x="1008" y="988" on="0"/>
        <pt x="895" y="1114" on="0"/>
        <pt x="785" y="1114" on="1"/>
      </contour>
    </TTGlyph>
    <TTGlyph name="U" xMin="155" yMin="-29" xMax="1604" yMax="1450">
      <contour>
        <pt x="1348" y="1232" on="0"/>
        <pt x="1348" y="1288" on="1"/>
        <pt x="1348" y="1348" on="0"/>
        <pt x="1279" y="1400" on="0"/>
        <pt x="1193" y="1409" on="1"/>
        <pt x="1205" y="1450" on="1"/>
        <pt x="1280" y="1444" on="0"/>
        <pt x="1424" y="1444" on="1"/>
        <pt x="1537" y="1444" on="0"/>
        <pt x="1604" y="1450" on="1"/>
        <pt x="1593" y="1409" on="1"/>
        <pt x="1524" y="1400" on="0"/>
        <pt x="1446" y="1349" on="0"/>
        <pt x="1395" y="1243" on="0"/>
        <pt x="1368" y="1139" on="1"/>
        <pt x="1228" y="596" on="1"/>
        <pt x="1155" y="313" on="0"/>
        <pt x="1027" y="162" on="1"/>
        <pt x="952" y="74" on="0"/>
        <pt x="732" y="-29" on="0"/>
        <pt x="607" y="-29" on="1"/>
        <pt x="459" y="-29" on="0"/>
        <pt x="258" y="55" on="0"/>
        <pt x="208" y="132" on="1"/>
        <pt x="155" y="209" on="0"/>
        <pt x="155" y="325" on="1"/>
        <pt x="155" y="429" on="0"/>
        <pt x="198" y="590" on="1"/>
        <pt x="368" y="1233" on="1"/>
        <pt x="385" y="1298" on="0"/>
        <pt x="385" y="1331" on="1"/>
        <pt x="385" y="1362" on="0"/>
        <pt x="357" y="1394" on="0"/>
        <pt x="300" y="1407" on="0"/>
        <pt x="247" y="1409" on="1"/>
        <pt x="259" y="1450" on="1"/>
        <pt x="364" y="1444" on="0"/>
        <pt x="597" y="1444" on="1"/>
        <pt x="789" y="1444" on="0"/>
        <pt x="915" y="1450" on="1"/>
        <pt x="902" y="1409" on="1"/>
        <pt x="827" y="1406" on="0"/>
        <pt x="754" y="1380" on="0"/>
        <pt x="711" y="1310" on="0"/>
        <pt x="691" y="1233" on="1"/>
        <pt x="511" y="555" on="1"/>
        <pt x="462" y="373" on="0"/>
        <pt x="462" y="258" on="1"/>
        <pt x="462" y="150" on="0"/>
        <pt x="552" y="43" on="0"/>
        <pt x="646" y="43" on="1"/>
        <pt x="861" y="43" on="0"/>
        <pt x="1109" y="321" on="0"/>
        <pt x="1175" y="573" on="1"/>
        <pt x="1317" y="1114" on="1"/>
      </contour>
    </TTGlyph>
    <TTGlyph name="Uacute" xMin="155" yMin="-29" xMax="1604" yMax="1959">
      <component glyphName=".ttfautohint" x="155" y="0" flags="0x0"/>
      <component glyphName="U" x="0" y="0" flags="0x0"/>
      <component glyphName="acute.case" x="830" y="0" flags="0x0"/>
    </TTGlyph>
    <TTGlyph name="Ubreve" xMin="155" yMin="-29" xMax="1604" yMax="1896">
      <component glyphName=".ttfautohint" x="155" y="0" flags="0x0"/>
      <component glyphName="U" x="0" y="0" flags="0x0"/>
      <component glyphName="breve.case" x="537" y="0" flags="0x0"/>
    </TTGlyph>
    <TTGlyph name="Ucircumflex" xMin="155" yMin="-29" xMax="1604" yMax="1925">
      <component glyphName=".ttfautohint" x="155" y="0" flags="0x0"/>
      <component glyphName="U" x="0" y="0" flags="0x0"/>
      <component glyphName="circumflex.case" x="564" y="0" flags="0x0"/>
    </TTGlyph>
    <TTGlyph name="Udieresis" xMin="155" yMin="-29" xMax="1604" yMax="1878">
      <component glyphName=".ttfautohint" x="155" y="0" flags="0x0"/>
      <component glyphName="U" x="0" y="0" flags="0x0"/>
      <component glyphName="dieresis.case" x="609" y="0" flags="0x0"/>
    </TTGlyph>
    <TTGlyph name="Ugrave" xMin="155" yMin="-29" xMax="1604" yMax="1944">
      <component glyphName=".ttfautohint" x="155" y="0" flags="0x0"/>
      <component glyphName="U" x="0" y="0" flags="0x0"/>
      <component glyphName="grave.case" x="611" y="0" flags="0x0"/>
    </TTGlyph>
    <TTGlyph name="Uhungarumlaut" xMin="155" yMin="-29" xMax="1604" yMax="1939">
      <component glyphName=".ttfautohint" x="155" y="0" flags="0x0"/>
      <component glyphName="U" x="0" y="0" flags="0x0"/>
      <component glyphName="hungarumlaut.case" x="581" y="0" flags="0x0"/>
    </TTGlyph>
    <TTGlyph name="Umacron" xMin="155" yMin="-29" xMax="1604" yMax="1729">
      <component glyphName=".ttfautohint" x="155" y="0" flags="0x0"/>
      <component glyphName="U" x="0" y="0" flags="0x0"/>
      <component glyphName="macron.case" x="584" y="0" flags="0x0"/>
    </TTGlyph>
    <TTGlyph name="Uogonek" xMin="155" yMin="-385" xMax="1604" yMax="1450">
      <contour>
        <pt x="1536" y="1444" on="0"/>
        <pt x="1604" y="1450" on="1"/>
        <pt x="1593" y="1409" on="1"/>
        <pt x="1524" y="1400" on="0"/>
        <pt x="1446" y="1349" on="0"/>
        <pt x="1395" y="1243" on="0"/>
        <pt x="1368" y="1139" on="1"/>
        <pt x="1228" y="596" on="1"/>
        <pt x="1155" y="313" on="0"/>
        <pt x="1027" y="162" on="1"/>
        <pt x="929" y="47" on="0"/>
        <pt x="780" y="-2" on="1"/>
        <pt x="693" y="-38" on="0"/>
        <pt x="584" y="-157" on="0"/>
        <pt x="584" y="-221" on="1"/>
        <pt x="584" y="-283" on="0"/>
        <pt x="652" y="-283" on="1"/>
        <pt x="685" y="-283" on="0"/>
        <pt x="766" y="-258" on="0"/>
        <pt x="802" y="-238" on="1"/>
        <pt x="825" y="-273" on="1"/>
        <pt x="681" y="-385" on="0"/>
        <pt x="526" y="-385" on="1"/>
        <pt x="445" y="-385" on="0"/>
        <pt x="353" y="-320" on="0"/>
        <pt x="353" y="-263" on="1"/>
        <pt x="353" y="-190" on="0"/>
        <pt x="507" y="-72" on="0"/>
        <pt x="630" y="-29" on="1"/>
        <pt x="607" y="-29" on="1"/>
        <pt x="459" y="-29" on="0"/>
        <pt x="258" y="55" on="0"/>
        <pt x="208" y="132" on="1"/>
        <pt x="155" y="209" on="0"/>
        <pt x="155" y="325" on="1"/>
        <pt x="155" y="429" on="0"/>
        <pt x="198" y="590" on="1"/>
        <pt x="368" y="1233" on="1"/>
        <pt x="385" y="1298" on="0"/>
        <pt x="385" y="1331" on="1"/>
        <pt x="385" y="1362" on="0"/>
        <pt x="357" y="1394" on="0"/>
        <pt x="300" y="1407" on="0"/>
        <pt x="247" y="1409" on="1"/>
        <pt x="259" y="1450" on="1"/>
        <pt x="364" y="1444" on="0"/>
        <pt x="597" y="1444" on="1"/>
        <pt x="789" y="1444" on="0"/>
        <pt x="915" y="1450" on="1"/>
        <pt x="902" y="1409" on="1"/>
        <pt x="827" y="1406" on="0"/>
        <pt x="754" y="1380" on="0"/>
        <pt x="711" y="1310" on="0"/>
        <pt x="691" y="1233" on="1"/>
        <pt x="511" y="555" on="1"/>
        <pt x="462" y="373" on="0"/>
        <pt x="462" y="258" on="1"/>
        <pt x="462" y="150" on="0"/>
        <pt x="552" y="43" on="0"/>
        <pt x="646" y="43" on="1"/>
        <pt x="861" y="43" on="0"/>
        <pt x="1109" y="321" on="0"/>
        <pt x="1175" y="573" on="1"/>
        <pt x="1317" y="1114" on="1"/>
        <pt x="1348" y="1232" on="0"/>
        <pt x="1348" y="1288" on="1"/>
        <pt x="1348" y="1348" on="0"/>
        <pt x="1279" y="1400" on="0"/>
        <pt x="1193" y="1409" on="1"/>
        <pt x="1205" y="1450" on="1"/>
        <pt x="1280" y="1444" on="0"/>
        <pt x="1424" y="1444" on="1"/>
      </contour>
    </TTGlyph>
    <TTGlyph name="Uring" xMin="155" yMin="-29" xMax="1604" yMax="1919">
      <component glyphName=".ttfautohint" x="155" y="0" flags="0x0"/>
      <component glyphName="U" x="0" y="0" flags="0x0"/>
      <component glyphName="ring.case" x="728" y="0" flags="0x0"/>
    </TTGlyph>
    <TTGlyph name="Utilde" xMin="155" yMin="-29" xMax="1604" yMax="1898">
      <component glyphName=".ttfautohint" x="155" y="0" flags="0x0"/>
      <component glyphName="U" x="0" y="0" flags="0x0"/>
      <component glyphName="tilde.case" x="511" y="0" flags="0x0"/>
    </TTGlyph>
    <TTGlyph name="V" xMin="189" yMin="-10" xMax="1598" yMax="1450">
      <contour>
        <pt x="1534" y="1444" on="0"/>
        <pt x="1598" y="1450" on="1"/>
        <pt x="1588" y="1409" on="1"/>
        <pt x="1521" y="1391" on="0"/>
        <pt x="1412" y="1300" on="0"/>
        <pt x="1343" y="1192" on="1"/>
        <pt x="562" y="-10" on="1"/>
        <pt x="545" y="-9" on="0"/>
        <pt x="510" y="-9" on="1"/>
        <pt x="475" y="-9" on="0"/>
        <pt x="458" y="-10" on="1"/>
        <pt x="296" y="1278" on="1"/>
        <pt x="287" y="1345" on="0"/>
        <pt x="225" y="1407" on="0"/>
        <pt x="189" y="1409" on="1"/>
        <pt x="199" y="1450" on="1"/>
        <pt x="301" y="1444" on="0"/>
        <pt x="494" y="1444" on="1"/>
        <pt x="699" y="1444" on="0"/>
        <pt x="807" y="1450" on="1"/>
        <pt x="796" y="1409" on="1"/>
        <pt x="734" y="1406" on="0"/>
        <pt x="664" y="1386" on="0"/>
        <pt x="629" y="1334" on="0"/>
        <pt x="629" y="1284" on="1"/>
        <pt x="629" y="1263" on="0"/>
        <pt x="632" y="1237" on="1"/>
        <pt x="735" y="328" on="1"/>
        <pt x="1275" y="1156" on="1"/>
        <pt x="1336" y="1250" on="0"/>
        <pt x="1336" y="1308" on="1"/>
        <pt x="1336" y="1357" on="0"/>
        <pt x="1249" y="1404" on="0"/>
        <pt x="1166" y="1409" on="1"/>
        <pt x="1176" y="1450" on="1"/>
        <pt x="1257" y="1444" on="0"/>
        <pt x="1444" y="1444" on="1"/>
      </contour>
    </TTGlyph>
    <TTGlyph name="W" xMin="176" yMin="-10" xMax="2234" yMax="1450">
      <contour>
        <pt x="2170" y="1444" on="0"/>
        <pt x="2234" y="1450" on="1"/>
        <pt x="2223" y="1409" on="1"/>
        <pt x="2176" y="1396" on="0"/>
        <pt x="2102" y="1355" on="0"/>
        <pt x="2024" y="1268" on="0"/>
        <pt x="1983" y="1192" on="1"/>
        <pt x="1337" y="-10" on="1"/>
        <pt x="1231" y="-10" on="1"/>
        <pt x="1105" y="904" on="1"/>
        <pt x="552" y="-10" on="1"/>
        <pt x="447" y="-10" on="1"/>
        <pt x="285" y="1278" on="1"/>
        <pt x="276" y="1347" on="0"/>
        <pt x="214" y="1407" on="0"/>
        <pt x="176" y="1409" on="1"/>
        <pt x="186" y="1450" on="1"/>
        <pt x="288" y="1444" on="0"/>
        <pt x="473" y="1444" on="1"/>
        <pt x="648" y="1444" on="0"/>
        <pt x="739" y="1450" on="1"/>
        <pt x="729" y="1409" on="1"/>
        <pt x="689" y="1406" on="0"/>
        <pt x="643" y="1386" on="0"/>
        <pt x="620" y="1335" on="0"/>
        <pt x="620" y="1287" on="1"/>
        <pt x="620" y="1255" on="0"/>
        <pt x="622" y="1237" on="1"/>
        <pt x="721" y="348" on="1"/>
        <pt x="1096" y="965" on="1"/>
        <pt x="1053" y="1278" on="1"/>
        <pt x="1044" y="1347" on="0"/>
        <pt x="995" y="1407" on="0"/>
        <pt x="965" y="1409" on="1"/>
        <pt x="974" y="1450" on="1"/>
        <pt x="1070" y="1444" on="0"/>
        <pt x="1241" y="1444" on="1"/>
        <pt x="1454" y="1444" on="0"/>
        <pt x="1560" y="1450" on="1"/>
        <pt x="1550" y="1409" on="1"/>
        <pt x="1488" y="1406" on="0"/>
        <pt x="1419" y="1386" on="0"/>
        <pt x="1386" y="1337" on="0"/>
        <pt x="1386" y="1290" on="1"/>
        <pt x="1386" y="1264" on="0"/>
        <pt x="1390" y="1237" on="1"/>
        <pt x="1500" y="381" on="1"/>
        <pt x="1921" y="1156" on="1"/>
        <pt x="1972" y="1252" on="0"/>
        <pt x="1972" y="1308" on="1"/>
        <pt x="1972" y="1359" on="0"/>
        <pt x="1887" y="1404" on="0"/>
        <pt x="1801" y="1409" on="1"/>
        <pt x="1811" y="1450" on="1"/>
        <pt x="1892" y="1444" on="0"/>
        <pt x="2079" y="1444" on="1"/>
      </contour>
    </TTGlyph>
    <TTGlyph name="Wacute" xMin="176" yMin="-10" xMax="2234" yMax="1955">
      <component glyphName=".ttfautohint" x="176" y="0" flags="0x0"/>
      <component glyphName="W" x="0" y="0" flags="0x0"/>
      <component glyphName="acute.case" x="1111" y="-4" flags="0x0"/>
    </TTGlyph>
    <TTGlyph name="Wcircumflex" xMin="176" yMin="-10" xMax="2234" yMax="1921">
      <component glyphName=".ttfautohint" x="176" y="0" flags="0x0"/>
      <component glyphName="W" x="0" y="0" flags="0x0"/>
      <component glyphName="circumflex.case" x="845" y="-4" flags="0x0"/>
    </TTGlyph>
    <TTGlyph name="Wdieresis" xMin="176" yMin="-10" xMax="2234" yMax="1874">
      <component glyphName=".ttfautohint" x="176" y="0" flags="0x0"/>
      <component glyphName="W" x="0" y="0" flags="0x0"/>
      <component glyphName="dieresis.case" x="890" y="-4" flags="0x0"/>
    </TTGlyph>
    <TTGlyph name="Wgrave" xMin="176" yMin="-10" xMax="2234" yMax="1940">
      <component glyphName=".ttfautohint" x="176" y="0" flags="0x0"/>
      <component glyphName="W" x="0" y="0" flags="0x0"/>
      <component glyphName="grave.case" x="892" y="-4" flags="0x0"/>
    </TTGlyph>
    <TTGlyph name="X" xMin="-82" yMin="-29" xMax="1648" yMax="1479">
      <contour>
        <pt x="1552" y="1479" on="0"/>
        <pt x="1648" y="1375" on="0"/>
        <pt x="1648" y="1295" on="1"/>
        <pt x="1648" y="1239" on="0"/>
        <pt x="1602" y="1146" on="0"/>
        <pt x="1519" y="1093" on="0"/>
        <pt x="1466" y="1093" on="1"/>
        <pt x="1404" y="1093" on="0"/>
        <pt x="1334" y="1166" on="0"/>
        <pt x="1334" y="1226" on="1"/>
        <pt x="1334" y="1295" on="0"/>
        <pt x="1419" y="1407" on="0"/>
        <pt x="1488" y="1431" on="1"/>
        <pt x="1476" y="1441" on="0"/>
        <pt x="1454" y="1441" on="1"/>
        <pt x="1387" y="1441" on="0"/>
        <pt x="1320" y="1393" on="1"/>
        <pt x="1242" y="1331" on="0"/>
        <pt x="1045" y="1043" on="0"/>
        <pt x="951" y="838" on="1"/>
        <pt x="1021" y="256" on="1"/>
        <pt x="1038" y="116" on="0"/>
        <pt x="1137" y="116" on="1"/>
        <pt x="1186" y="116" on="0"/>
        <pt x="1252" y="176" on="0"/>
        <pt x="1275" y="244" on="1"/>
        <pt x="1310" y="348" on="1"/>
        <pt x="1351" y="348" on="1"/>
        <pt x="1298" y="190" on="1"/>
        <pt x="1256" y="75" on="0"/>
        <pt x="1116" y="-29" on="0"/>
        <pt x="1013" y="-29" on="1"/>
        <pt x="904" y="-29" on="0"/>
        <pt x="772" y="51" on="0"/>
        <pt x="709" y="191" on="0"/>
        <pt x="696" y="291" on="1"/>
        <pt x="667" y="528" on="1"/>
        <pt x="589" y="378" on="0"/>
        <pt x="383" y="113" on="0"/>
        <pt x="290" y="41" on="1"/>
        <pt x="196" y="-29" on="0"/>
        <pt x="99" y="-29" on="1"/>
        <pt x="14" y="-29" on="0"/>
        <pt x="-82" y="75" on="0"/>
        <pt x="-82" y="155" on="1"/>
        <pt x="-82" y="211" on="0"/>
        <pt x="-36" y="304" on="0"/>
        <pt x="47" y="357" on="0"/>
        <pt x="100" y="357" on="1"/>
        <pt x="163" y="357" on="0"/>
        <pt x="232" y="283" on="0"/>
        <pt x="232" y="222" on="1"/>
        <pt x="232" y="154" on="0"/>
        <pt x="147" y="42" on="0"/>
        <pt x="78" y="19" on="1"/>
        <pt x="90" y="9" on="0"/>
        <pt x="113" y="9" on="1"/>
        <pt x="177" y="10" on="0"/>
        <pt x="248" y="57" on="1"/>
        <pt x="336" y="118" on="0"/>
        <pt x="558" y="398" on="0"/>
        <pt x="659" y="594" on="1"/>
        <pt x="585" y="1200" on="1"/>
        <pt x="569" y="1343" on="0"/>
        <pt x="471" y="1343" on="1"/>
        <pt x="423" y="1343" on="0"/>
        <pt x="356" y="1277" on="0"/>
        <pt x="331" y="1206" on="1"/>
        <pt x="296" y="1102" on="1"/>
        <pt x="255" y="1102" on="1"/>
        <pt x="308" y="1260" on="1"/>
        <pt x="350" y="1375" on="0"/>
        <pt x="499" y="1479" on="0"/>
        <pt x="609" y="1479" on="1"/>
        <pt x="756" y="1479" on="0"/>
        <pt x="893" y="1315" on="0"/>
        <pt x="913" y="1159" on="1"/>
        <pt x="943" y="904" on="1"/>
        <pt x="1017" y="1062" on="0"/>
        <pt x="1199" y="1335" on="0"/>
        <pt x="1280" y="1406" on="1"/>
        <pt x="1373" y="1479" on="0"/>
        <pt x="1467" y="1479" on="1"/>
      </contour>
    </TTGlyph>
    <TTGlyph name="Y" xMin="169" yMin="0" xMax="1669" yMax="1479">
      <contour>
        <pt x="1538" y="1479" on="0"/>
        <pt x="1624" y="1431" on="0"/>
        <pt x="1669" y="1350" on="0"/>
        <pt x="1669" y="1301" on="1"/>
        <pt x="1669" y="1250" on="0"/>
        <pt x="1621" y="1166" on="0"/>
        <pt x="1536" y="1117" on="0"/>
        <pt x="1483" y="1117" on="1"/>
        <pt x="1416" y="1117" on="0"/>
        <pt x="1342" y="1185" on="0"/>
        <pt x="1342" y="1242" on="1"/>
        <pt x="1342" y="1308" on="0"/>
        <pt x="1429" y="1411" on="0"/>
        <pt x="1496" y="1431" on="1"/>
        <pt x="1484" y="1441" on="0"/>
        <pt x="1463" y="1441" on="1"/>
        <pt x="1403" y="1440" on="0"/>
        <pt x="1339" y="1393" on="1"/>
        <pt x="1281" y="1351" on="0"/>
        <pt x="1135" y="1158" on="0"/>
        <pt x="980" y="858" on="0"/>
        <pt x="915" y="667" on="1"/>
        <pt x="802" y="217" on="1"/>
        <pt x="789" y="162" on="0"/>
        <pt x="789" y="134" on="1"/>
        <pt x="789" y="97" on="0"/>
        <pt x="822" y="59" on="0"/>
        <pt x="888" y="44" on="0"/>
        <pt x="947" y="41" on="1"/>
        <pt x="937" y="0" on="1"/>
        <pt x="823" y="6" on="0"/>
        <pt x="585" y="6" on="1"/>
        <pt x="363" y="6" on="0"/>
        <pt x="255" y="0" on="1"/>
        <pt x="265" y="41" on="1"/>
        <pt x="340" y="44" on="0"/>
        <pt x="414" y="70" on="0"/>
        <pt x="458" y="141" on="0"/>
        <pt x="476" y="217" on="1"/>
        <pt x="588" y="658" on="1"/>
        <pt x="557" y="937" on="0"/>
        <pt x="441" y="1328" on="0"/>
        <pt x="353" y="1328" on="1"/>
        <pt x="318" y="1328" on="0"/>
        <pt x="273" y="1277" on="0"/>
        <pt x="258" y="1232" on="1"/>
        <pt x="214" y="1102" on="1"/>
        <pt x="169" y="1102" on="1"/>
        <pt x="222" y="1260" on="1"/>
        <pt x="260" y="1376" on="0"/>
        <pt x="405" y="1479" on="0"/>
        <pt x="510" y="1479" on="1"/>
        <pt x="644" y="1479" on="0"/>
        <pt x="797" y="1313" on="0"/>
        <pt x="872" y="1009" on="0"/>
        <pt x="901" y="748" on="1"/>
        <pt x="969" y="939" on="0"/>
        <pt x="1141" y="1247" on="0"/>
        <pt x="1236" y="1352" on="1"/>
        <pt x="1354" y="1479" on="0"/>
        <pt x="1479" y="1479" on="1"/>
      </contour>
    </TTGlyph>
    <TTGlyph name="Yacute" xMin="169" yMin="0" xMax="1669" yMax="1959">
      <component glyphName=".ttfautohint" x="169" y="0" flags="0x0"/>
      <component glyphName="Y" x="0" y="0" flags="0x0"/>
      <component glyphName="acute.case" x="814" y="0" flags="0x0"/>
    </TTGlyph>
    <TTGlyph name="Ycircumflex" xMin="169" yMin="0" xMax="1669" yMax="1925">
      <component glyphName=".ttfautohint" x="169" y="0" flags="0x0"/>
      <component glyphName="Y" x="0" y="0" flags="0x0"/>
      <component glyphName="circumflex.case" x="548" y="0" flags="0x0"/>
    </TTGlyph>
    <TTGlyph name="Ydieresis" xMin="169" yMin="0" xMax="1669" yMax="1878">
      <component glyphName=".ttfautohint" x="169" y="0" flags="0x0"/>
      <component glyphName="Y" x="0" y="0" flags="0x0"/>
      <component glyphName="dieresis.case" x="593" y="0" flags="0x0"/>
    </TTGlyph>
    <TTGlyph name="Ygrave" xMin="169" yMin="0" xMax="1669" yMax="1944">
      <component glyphName=".ttfautohint" x="169" y="0" flags="0x0"/>
      <component glyphName="Y" x="0" y="0" flags="0x0"/>
      <component glyphName="grave.case" x="595" y="0" flags="0x0"/>
    </TTGlyph>
    <TTGlyph name="Z" xMin="-65" yMin="-29" xMax="1478" yMax="1479">
      <contour>
        <pt x="1478" y="1450" on="0"/>
        <pt x="1478" y="1433" on="1"/>
        <pt x="1478" y="1405" on="0"/>
        <pt x="1402" y="1336" on="0"/>
        <pt x="1325" y="1307" on="1"/>
        <pt x="758" y="750" on="1"/>
        <pt x="1069" y="750" on="1"/>
        <pt x="1053" y="709" on="1"/>
        <pt x="717" y="709" on="1"/>
        <pt x="137" y="139" on="1"/>
        <pt x="352" y="324" on="0"/>
        <pt x="554" y="324" on="1"/>
        <pt x="626" y="324" on="0"/>
        <pt x="738" y="297" on="0"/>
        <pt x="810" y="272" on="1"/>
        <pt x="863" y="253" on="0"/>
        <pt x="939" y="233" on="0"/>
        <pt x="979" y="233" on="1"/>
        <pt x="1070" y="233" on="0"/>
        <pt x="1070" y="316" on="1"/>
        <pt x="1070" y="403" on="0"/>
        <pt x="922" y="433" on="1"/>
        <pt x="930" y="473" on="1"/>
        <pt x="1043" y="455" on="0"/>
        <pt x="1196" y="340" on="0"/>
        <pt x="1196" y="236" on="1"/>
        <pt x="1196" y="160" on="0"/>
        <pt x="1123" y="39" on="0"/>
        <pt x="989" y="-29" on="0"/>
        <pt x="899" y="-29" on="1"/>
        <pt x="820" y="-29" on="0"/>
        <pt x="698" y="17" on="0"/>
        <pt x="618" y="63" on="1"/>
        <pt x="564" y="94" on="0"/>
        <pt x="490" y="129" on="0"/>
        <pt x="397" y="154" on="0"/>
        <pt x="344" y="154" on="1"/>
        <pt x="289" y="154" on="0"/>
        <pt x="195" y="127" on="0"/>
        <pt x="127" y="98" on="1"/>
        <pt x="91" y="45" on="0"/>
        <pt x="7" y="-21" on="0"/>
        <pt x="-24" y="-21" on="1"/>
        <pt x="-40" y="-21" on="0"/>
        <pt x="-53" y="-10" on="1"/>
        <pt x="-65" y="0" on="0"/>
        <pt x="-65" y="17" on="1"/>
        <pt x="-65" y="45" on="0"/>
        <pt x="11" y="114" on="0"/>
        <pt x="88" y="143" on="1"/>
        <pt x="664" y="709" on="1"/>
        <pt x="332" y="709" on="1"/>
        <pt x="346" y="750" on="1"/>
        <pt x="705" y="750" on="1"/>
        <pt x="1276" y="1311" on="1"/>
        <pt x="1061" y="1126" on="0"/>
        <pt x="860" y="1126" on="1"/>
        <pt x="788" y="1126" on="0"/>
        <pt x="676" y="1153" on="0"/>
        <pt x="604" y="1178" on="1"/>
        <pt x="551" y="1197" on="0"/>
        <pt x="475" y="1217" on="0"/>
        <pt x="435" y="1217" on="1"/>
        <pt x="392" y="1217" on="0"/>
        <pt x="344" y="1175" on="0"/>
        <pt x="344" y="1134" on="1"/>
        <pt x="344" y="1047" on="0"/>
        <pt x="493" y="1017" on="1"/>
        <pt x="483" y="977" on="1"/>
        <pt x="370" y="995" on="0"/>
        <pt x="217" y="1110" on="0"/>
        <pt x="217" y="1214" on="1"/>
        <pt x="217" y="1290" on="0"/>
        <pt x="290" y="1411" on="0"/>
        <pt x="424" y="1479" on="0"/>
        <pt x="514" y="1479" on="1"/>
        <pt x="593" y="1479" on="0"/>
        <pt x="715" y="1433" on="0"/>
        <pt x="795" y="1387" on="1"/>
        <pt x="849" y="1356" on="0"/>
        <pt x="923" y="1321" on="0"/>
        <pt x="1016" y="1296" on="0"/>
        <pt x="1069" y="1296" on="1"/>
        <pt x="1124" y="1296" on="0"/>
        <pt x="1218" y="1323" on="0"/>
        <pt x="1286" y="1352" on="1"/>
        <pt x="1323" y="1405" on="0"/>
        <pt x="1405" y="1471" on="0"/>
        <pt x="1436" y="1471" on="1"/>
        <pt x="1452" y="1471" on="0"/>
        <pt x="1466" y="1460" on="1"/>
      </contour>
    </TTGlyph>
    <TTGlyph name="Zacute" xMin="-65" yMin="-29" xMax="1478" yMax="1959">
      <component glyphName=".ttfautohint" x="0" y="0" flags="0x0"/>
      <component glyphName="Z" x="0" y="0" flags="0x0"/>
      <component glyphName="acute.case" x="724" y="0" flags="0x0"/>
    </TTGlyph>
    <TTGlyph name="Zacute.loclPLK" xMin="-65" yMin="-29" xMax="1478" yMax="1992">
      <component glyphName=".ttfautohint" x="0" y="0" flags="0x0"/>
      <component glyphName="Z" x="0" y="0" flags="0x0"/>
      <component glyphName="acute.loclPLK.case" x="781" y="0" flags="0x0"/>
    </TTGlyph>
    <TTGlyph name="Zcaron" xMin="-65" yMin="-29" xMax="1478" yMax="1919">
      <component glyphName=".ttfautohint" x="0" y="0" flags="0x0"/>
      <component glyphName="Z" x="0" y="0" flags="0x0"/>
      <component glyphName="caron.case" x="452" y="0" flags="0x0"/>
    </TTGlyph>
    <TTGlyph name="Zdotaccent" xMin="-65" yMin="-29" xMax="1478" yMax="1883">
      <component glyphName=".ttfautohint" x="0" y="0" flags="0x0"/>
      <component glyphName="Z" x="0" y="0" flags="0x0"/>
      <component glyphName="dotaccent.case" x="728" y="0" flags="0x0"/>
    </TTGlyph>
    <TTGlyph name="a" xMin="-186" yMin="0" xMax="1187" yMax="1260">
      <contour>
        <pt x="1095" y="105" on="0"/>
        <pt x="1151" y="43" on="0"/>
        <pt x="1187" y="41" on="1"/>
        <pt x="1177" y="0" on="1"/>
        <pt x="1072" y="6" on="0"/>
        <pt x="880" y="6" on="1"/>
        <pt x="672" y="6" on="0"/>
        <pt x="573" y="0" on="1"/>
        <pt x="583" y="41" on="1"/>
        <pt x="646" y="44" on="0"/>
        <pt x="722" y="66" on="0"/>
        <pt x="762" y="121" on="0"/>
        <pt x="762" y="172" on="1"/>
        <pt x="762" y="191" on="0"/>
        <pt x="759" y="213" on="1"/>
        <pt x="728" y="467" on="1"/>
        <pt x="272" y="467" on="1"/>
        <pt x="120" y="278" on="1"/>
        <pt x="56" y="200" on="0"/>
        <pt x="56" y="146" on="1"/>
        <pt x="56" y="59" on="0"/>
        <pt x="219" y="41" on="1"/>
        <pt x="214" y="0" on="1"/>
        <pt x="81" y="6" on="0"/>
        <pt x="-35" y="6" on="1"/>
        <pt x="-126" y="6" on="0"/>
        <pt x="-186" y="0" on="1"/>
        <pt x="-181" y="41" on="1"/>
        <pt x="-126" y="61" on="0"/>
        <pt x="-25" y="159" on="0"/>
        <pt x="58" y="263" on="1"/>
        <pt x="856" y="1260" on="1"/>
        <pt x="890" y="1258" on="0"/>
        <pt x="908" y="1258" on="1"/>
        <pt x="926" y="1258" on="0"/>
        <pt x="960" y="1260" on="1"/>
        <pt x="1087" y="172" on="1"/>
      </contour>
      <contour>
        <pt x="669" y="961" on="1"/>
        <pt x="305" y="508" on="1"/>
        <pt x="723" y="508" on="1"/>
      </contour>
    </TTGlyph>
    <TTGlyph name="aacute" xMin="-186" yMin="0" xMax="1340" yMax="1754">
      <component glyphName=".ttfautohint" x="0" y="0" flags="0x0"/>
      <component glyphName="a" x="0" y="0" flags="0x0"/>
      <component glyphName="acute.smcp" x="713" y="0" flags="0x0"/>
    </TTGlyph>
    <TTGlyph name="abreve" xMin="-186" yMin="0" xMax="1390" yMax="1691">
      <component glyphName=".ttfautohint" x="0" y="0" flags="0x0"/>
      <component glyphName="a" x="0" y="0" flags="0x0"/>
      <component glyphName="breve.smcp" x="396" y="0" flags="0x0"/>
    </TTGlyph>
    <TTGlyph name="acircumflex" xMin="-186" yMin="0" xMax="1329" yMax="1720">
      <component glyphName=".ttfautohint" x="0" y="0" flags="0x0"/>
      <component glyphName="a" x="0" y="0" flags="0x0"/>
      <component glyphName="circumflex.smcp" x="441" y="0" flags="0x0"/>
    </TTGlyph>
    <TTGlyph name="acute" xMin="260" yMin="1227" xMax="754" yMax="1724">
      <contour>
        <pt x="316" y="1325" on="0"/>
        <pt x="414" y="1488" on="1"/>
        <pt x="457" y="1562" on="0"/>
        <pt x="508" y="1639" on="0"/>
        <pt x="540" y="1671" on="1"/>
        <pt x="563" y="1696" on="0"/>
        <pt x="623" y="1724" on="0"/>
        <pt x="652" y="1724" on="1"/>
        <pt x="695" y="1724" on="0"/>
        <pt x="727" y="1695" on="1"/>
        <pt x="754" y="1668" on="0"/>
        <pt x="754" y="1632" on="1"/>
        <pt x="754" y="1577" on="0"/>
        <pt x="695" y="1520" on="1"/>
        <pt x="666" y="1491" on="0"/>
        <pt x="595" y="1440" on="0"/>
        <pt x="524" y="1395" on="1"/>
        <pt x="380" y="1304" on="0"/>
        <pt x="281" y="1227" on="1"/>
        <pt x="260" y="1246" on="1"/>
      </contour>
    </TTGlyph>
    <TTGlyph name="acute.case" xMin="41" yMin="1581" xMax="627" yMax="1959">
      <contour>
        <pt x="137" y="1681" on="0"/>
        <pt x="256" y="1794" on="1"/>
        <pt x="320" y="1854" on="0"/>
        <pt x="390" y="1913" on="0"/>
        <pt x="430" y="1935" on="1"/>
        <pt x="473" y="1959" on="0"/>
        <pt x="518" y="1959" on="1"/>
        <pt x="588" y="1959" on="0"/>
        <pt x="617" y="1903" on="1"/>
        <pt x="627" y="1883" on="0"/>
        <pt x="627" y="1862" on="1"/>
        <pt x="627" y="1828" on="0"/>
        <pt x="576" y="1767" on="0"/>
        <pt x="535" y="1744" on="1"/>
        <pt x="500" y="1724" on="0"/>
        <pt x="415" y="1696" on="0"/>
        <pt x="339" y="1674" on="1"/>
        <pt x="161" y="1622" on="0"/>
        <pt x="55" y="1581" on="1"/>
        <pt x="41" y="1605" on="1"/>
      </contour>
    </TTGlyph>
    <TTGlyph name="acute.loclPLK" xMin="171" yMin="1223" xMax="502" yMax="1702">
      <contour>
        <pt x="203" y="1342" on="0"/>
        <pt x="225" y="1463" on="1"/>
        <pt x="238" y="1530" on="0"/>
        <pt x="257" y="1600" on="0"/>
        <pt x="274" y="1628" on="1"/>
        <pt x="292" y="1662" on="0"/>
        <pt x="355" y="1702" on="0"/>
        <pt x="390" y="1702" on="1"/>
        <pt x="422" y="1702" on="0"/>
        <pt x="451" y="1686" on="1"/>
        <pt x="502" y="1656" on="0"/>
        <pt x="502" y="1599" on="1"/>
        <pt x="502" y="1559" on="0"/>
        <pt x="476" y="1513" on="1"/>
        <pt x="460" y="1487" on="0"/>
        <pt x="414" y="1439" on="0"/>
        <pt x="369" y="1398" on="1"/>
        <pt x="264" y="1300" on="0"/>
        <pt x="196" y="1223" on="1"/>
        <pt x="171" y="1235" on="1"/>
      </contour>
    </TTGlyph>
    <TTGlyph name="acute.loclPLK.case" xMin="54" yMin="1554" xMax="402" yMax="1992">
      <contour>
        <pt x="84" y="1647" on="0"/>
        <pt x="119" y="1774" on="1"/>
        <pt x="135" y="1836" on="0"/>
        <pt x="159" y="1902" on="0"/>
        <pt x="177" y="1927" on="1"/>
        <pt x="197" y="1956" on="0"/>
        <pt x="256" y="1992" on="0"/>
        <pt x="289" y="1992" on="1"/>
        <pt x="323" y="1992" on="0"/>
        <pt x="358" y="1968" on="1"/>
        <pt x="402" y="1938" on="0"/>
        <pt x="402" y="1888" on="1"/>
        <pt x="402" y="1843" on="0"/>
        <pt x="367" y="1793" on="1"/>
        <pt x="351" y="1772" on="0"/>
        <pt x="307" y="1736" on="0"/>
        <pt x="260" y="1701" on="1"/>
        <pt x="152" y="1624" on="0"/>
        <pt x="77" y="1554" on="1"/>
        <pt x="54" y="1569" on="1"/>
      </contour>
    </TTGlyph>
    <TTGlyph name="acute.loclPLK.smcp" xMin="54" yMin="1350" xMax="402" yMax="1787">
      <contour>
        <pt x="84" y="1442" on="0"/>
        <pt x="119" y="1569" on="1"/>
        <pt x="135" y="1631" on="0"/>
        <pt x="159" y="1697" on="0"/>
        <pt x="177" y="1722" on="1"/>
        <pt x="197" y="1751" on="0"/>
        <pt x="256" y="1787" on="0"/>
        <pt x="289" y="1787" on="1"/>
        <pt x="323" y="1787" on="0"/>
        <pt x="358" y="1763" on="1"/>
        <pt x="402" y="1733" on="0"/>
        <pt x="402" y="1683" on="1"/>
        <pt x="402" y="1638" on="0"/>
        <pt x="367" y="1588" on="1"/>
        <pt x="351" y="1567" on="0"/>
        <pt x="305" y="1529" on="0"/>
        <pt x="259" y="1496" on="1"/>
        <pt x="151" y="1419" on="0"/>
        <pt x="77" y="1350" on="1"/>
        <pt x="54" y="1364" on="1"/>
      </contour>
    </TTGlyph>
    <TTGlyph name="acute.smcp" xMin="41" yMin="1376" xMax="627" yMax="1754">
      <contour>
        <pt x="137" y="1476" on="0"/>
        <pt x="256" y="1589" on="1"/>
        <pt x="320" y="1649" on="0"/>
        <pt x="390" y="1708" on="0"/>
        <pt x="430" y="1730" on="1"/>
        <pt x="473" y="1754" on="0"/>
        <pt x="518" y="1754" on="1"/>
        <pt x="588" y="1754" on="0"/>
        <pt x="617" y="1698" on="1"/>
        <pt x="627" y="1678" on="0"/>
        <pt x="627" y="1657" on="1"/>
        <pt x="627" y="1592" on="0"/>
        <pt x="535" y="1539" on="1"/>
        <pt x="500" y="1519" on="0"/>
        <pt x="415" y="1491" on="0"/>
        <pt x="339" y="1469" on="1"/>
        <pt x="161" y="1417" on="0"/>
        <pt x="55" y="1376" on="1"/>
        <pt x="41" y="1400" on="1"/>
      </contour>
    </TTGlyph>
    <TTGlyph name="adieresis" xMin="-186" yMin="0" xMax="1327" yMax="1673">
      <component glyphName=".ttfautohint" x="0" y="0" flags="0x0"/>
      <component glyphName="a" x="0" y="0" flags="0x0"/>
      <component glyphName="dieresis.smcp" x="535" y="0" flags="0x0"/>
    </TTGlyph>
    <TTGlyph name="ae" xMin="-167" yMin="0" xMax="1898" yMax="1354">
      <contour>
        <pt x="1770" y="1239" on="0"/>
        <pt x="1898" y="1245" on="1"/>
        <pt x="1879" y="1192" on="0"/>
        <pt x="1834" y="1049" on="1"/>
        <pt x="1820" y="1004" on="1"/>
        <pt x="1803" y="942" on="0"/>
        <pt x="1794" y="877" on="1"/>
        <pt x="1749" y="877" on="1"/>
        <pt x="1764" y="962" on="0"/>
        <pt x="1764" y="1021" on="1"/>
        <pt x="1764" y="1117" on="0"/>
        <pt x="1679" y="1198" on="0"/>
        <pt x="1583" y="1198" on="1"/>
        <pt x="1454" y="1198" on="1"/>
        <pt x="1382" y="1198" on="0"/>
        <pt x="1312" y="1175" on="0"/>
        <pt x="1269" y="1105" on="0"/>
        <pt x="1249" y="1028" on="1"/>
        <pt x="1147" y="647" on="1"/>
        <pt x="1300" y="647" on="1"/>
        <pt x="1358" y="647" on="0"/>
        <pt x="1435" y="708" on="0"/>
        <pt x="1482" y="799" on="0"/>
        <pt x="1511" y="877" on="1"/>
        <pt x="1556" y="877" on="1"/>
        <pt x="1533" y="808" on="0"/>
        <pt x="1502" y="689" on="1"/>
        <pt x="1486" y="627" on="1"/>
        <pt x="1464" y="545" on="0"/>
        <pt x="1433" y="377" on="1"/>
        <pt x="1388" y="377" on="1"/>
        <pt x="1388" y="388" on="0"/>
        <pt x="1393" y="440" on="1"/>
        <pt x="1398" y="477" on="0"/>
        <pt x="1398" y="503" on="1"/>
        <pt x="1398" y="549" on="0"/>
        <pt x="1353" y="602" on="0"/>
        <pt x="1292" y="606" on="1"/>
        <pt x="1136" y="606" on="1"/>
        <pt x="1032" y="217" on="1"/>
        <pt x="1014" y="147" on="0"/>
        <pt x="1014" y="117" on="1"/>
        <pt x="1014" y="88" on="0"/>
        <pt x="1041" y="58" on="0"/>
        <pt x="1097" y="47" on="0"/>
        <pt x="1149" y="47" on="1"/>
        <pt x="1298" y="47" on="1"/>
        <pt x="1397" y="47" on="0"/>
        <pt x="1524" y="115" on="0"/>
        <pt x="1616" y="269" on="0"/>
        <pt x="1665" y="410" on="1"/>
        <pt x="1710" y="410" on="1"/>
        <pt x="1693" y="368" on="0"/>
        <pt x="1667" y="262" on="1"/>
        <pt x="1635" y="154" on="0"/>
        <pt x="1613" y="0" on="1"/>
        <pt x="1474" y="6" on="0"/>
        <pt x="1151" y="6" on="1"/>
        <pt x="710" y="6" on="0"/>
        <pt x="487" y="0" on="1"/>
        <pt x="495" y="41" on="1"/>
        <pt x="569" y="44" on="0"/>
        <pt x="642" y="70" on="0"/>
        <pt x="686" y="140" on="0"/>
        <pt x="706" y="217" on="1"/>
        <pt x="810" y="606" on="1"/>
        <pt x="445" y="606" on="1"/>
        <pt x="79" y="193" on="1"/>
        <pt x="20" y="126" on="0"/>
        <pt x="20" y="96" on="1"/>
        <pt x="20" y="51" on="0"/>
        <pt x="146" y="41" on="1"/>
        <pt x="146" y="0" on="1"/>
        <pt x="90" y="6" on="0"/>
        <pt x="-30" y="6" on="1"/>
        <pt x="-118" y="6" on="0"/>
        <pt x="-167" y="0" on="1"/>
        <pt x="-167" y="41" on="1"/>
        <pt x="-104" y="44" on="0"/>
        <pt x="9" y="172" on="1"/>
        <pt x="906" y="1188" on="1"/>
        <pt x="878" y="1201" on="0"/>
        <pt x="802" y="1204" on="1"/>
        <pt x="813" y="1245" on="1"/>
        <pt x="954" y="1242" on="1"/>
        <pt x="1053" y="1354" on="1"/>
        <pt x="1107" y="1354" on="1"/>
        <pt x="1007" y="1241" on="1"/>
        <pt x="1189" y="1239" on="0"/>
        <pt x="1478" y="1239" on="1"/>
      </contour>
      <contour>
        <pt x="923" y="1028" on="1"/>
        <pt x="940" y="1094" on="0"/>
        <pt x="940" y="1127" on="1"/>
        <pt x="940" y="1146" on="0"/>
        <pt x="935" y="1159" on="1"/>
        <pt x="481" y="647" on="1"/>
        <pt x="821" y="647" on="1"/>
      </contour>
    </TTGlyph>
    <TTGlyph name="agrave" xMin="-186" yMin="0" xMax="1187" yMax="1739">
      <component glyphName=".ttfautohint" x="0" y="0" flags="0x0"/>
      <component glyphName="a" x="0" y="0" flags="0x0"/>
      <component glyphName="grave.smcp" x="509" y="0" flags="0x0"/>
    </TTGlyph>
    <TTGlyph name="amacron" xMin="-186" yMin="0" xMax="1324" yMax="1524">
      <component glyphName=".ttfautohint" x="0" y="0" flags="0x0"/>
      <component glyphName="a" x="0" y="0" flags="0x0"/>
      <component glyphName="macron.smcp" x="490" y="0" flags="0x0"/>
    </TTGlyph>
    <TTGlyph name="ampersand" xMin="59" yMin="-29" xMax="1867" yMax="1479">
      <contour>
        <pt x="1717" y="1479" on="0"/>
        <pt x="1867" y="1349" on="0"/>
        <pt x="1867" y="1206" on="1"/>
        <pt x="1867" y="1101" on="0"/>
        <pt x="1780" y="947" on="0"/>
        <pt x="1611" y="836" on="0"/>
        <pt x="1479" y="789" on="1"/>
        <pt x="1450" y="778" on="0"/>
        <pt x="1352" y="743" on="1"/>
        <pt x="1439" y="648" on="0"/>
        <pt x="1439" y="509" on="1"/>
        <pt x="1439" y="375" on="0"/>
        <pt x="1270" y="127" on="0"/>
        <pt x="935" y="-29" on="0"/>
        <pt x="698" y="-29" on="1"/>
        <pt x="512" y="-29" on="0"/>
        <pt x="223" y="74" on="0"/>
        <pt x="59" y="277" on="0"/>
        <pt x="59" y="421" on="1"/>
        <pt x="59" y="552" on="0"/>
        <pt x="195" y="775" on="0"/>
        <pt x="444" y="932" on="0"/>
        <pt x="610" y="967" on="1"/>
        <pt x="520" y="998" on="0"/>
        <pt x="430" y="1111" on="0"/>
        <pt x="430" y="1180" on="1"/>
        <pt x="430" y="1261" on="0"/>
        <pt x="546" y="1378" on="0"/>
        <pt x="730" y="1438" on="0"/>
        <pt x="829" y="1438" on="1"/>
        <pt x="954" y="1438" on="0"/>
        <pt x="1087" y="1348" on="0"/>
        <pt x="1087" y="1273" on="1"/>
        <pt x="1087" y="1227" on="0"/>
        <pt x="1040" y="1162" on="0"/>
        <pt x="967" y="1130" on="0"/>
        <pt x="929" y="1130" on="1"/>
        <pt x="930" y="1167" on="1"/>
        <pt x="978" y="1167" on="0"/>
        <pt x="1042" y="1223" on="0"/>
        <pt x="1042" y="1268" on="1"/>
        <pt x="1042" y="1317" on="0"/>
        <pt x="961" y="1375" on="0"/>
        <pt x="895" y="1375" on="1"/>
        <pt x="822" y="1375" on="0"/>
        <pt x="694" y="1301" on="0"/>
        <pt x="617" y="1168" on="0"/>
        <pt x="617" y="1084" on="1"/>
        <pt x="617" y="1026" on="0"/>
        <pt x="639" y="979" on="1"/>
        <pt x="712" y="991" on="0"/>
        <pt x="768" y="991" on="1"/>
        <pt x="842" y="991" on="0"/>
        <pt x="842" y="948" on="1"/>
        <pt x="842" y="927" on="0"/>
        <pt x="804" y="905" on="0"/>
        <pt x="778" y="905" on="1"/>
        <pt x="730" y="905" on="0"/>
        <pt x="637" y="950" on="1"/>
        <pt x="565" y="923" on="0"/>
        <pt x="450" y="797" on="0"/>
        <pt x="385" y="623" on="0"/>
        <pt x="385" y="527" on="1"/>
        <pt x="385" y="342" on="0"/>
        <pt x="631" y="147" on="0"/>
        <pt x="849" y="147" on="1"/>
        <pt x="994" y="147" on="0"/>
        <pt x="1244" y="233" on="0"/>
        <pt x="1397" y="405" on="0"/>
        <pt x="1397" y="528" on="1"/>
        <pt x="1397" y="650" on="0"/>
        <pt x="1321" y="732" on="1"/>
        <pt x="1321" y="732" on="0"/>
        <pt x="1150" y="675" on="1"/>
        <pt x="978" y="617" on="0"/>
        <pt x="956" y="609" on="1"/>
        <pt x="764" y="547" on="0"/>
        <pt x="764" y="435" on="1"/>
        <pt x="764" y="378" on="0"/>
        <pt x="848" y="321" on="0"/>
        <pt x="910" y="321" on="1"/>
        <pt x="990" y="321" on="0"/>
        <pt x="1100" y="402" on="0"/>
        <pt x="1124" y="448" on="1"/>
        <pt x="1155" y="432" on="1"/>
        <pt x="1126" y="372" on="0"/>
        <pt x="998" y="282" on="0"/>
        <pt x="902" y="282" on="1"/>
        <pt x="837" y="282" on="0"/>
        <pt x="726" y="329" on="0"/>
        <pt x="656" y="434" on="0"/>
        <pt x="656" y="515" on="1"/>
        <pt x="656" y="761" on="0"/>
        <pt x="1014" y="877" on="1"/>
        <pt x="1031" y="882" on="0"/>
        <pt x="1074" y="896" on="0"/>
        <pt x="1099" y="904" on="1"/>
        <pt x="1419" y="1008" on="0"/>
        <pt x="1552" y="1057" on="1"/>
        <pt x="1631" y="1087" on="0"/>
        <pt x="1731" y="1137" on="0"/>
        <pt x="1801" y="1217" on="0"/>
        <pt x="1801" y="1275" on="1"/>
        <pt x="1801" y="1326" on="0"/>
        <pt x="1747" y="1403" on="0"/>
        <pt x="1654" y="1445" on="0"/>
        <pt x="1598" y="1445" on="1"/>
        <pt x="1556" y="1445" on="0"/>
        <pt x="1539" y="1433" on="1"/>
        <pt x="1627" y="1396" on="0"/>
        <pt x="1627" y="1314" on="1"/>
        <pt x="1627" y="1270" on="0"/>
        <pt x="1575" y="1202" on="0"/>
        <pt x="1490" y="1165" on="0"/>
        <pt x="1444" y="1165" on="1"/>
        <pt x="1379" y="1165" on="0"/>
        <pt x="1296" y="1237" on="0"/>
        <pt x="1296" y="1295" on="1"/>
        <pt x="1296" y="1348" on="0"/>
        <pt x="1365" y="1428" on="0"/>
        <pt x="1423" y="1450" on="1"/>
        <pt x="1491" y="1479" on="0"/>
        <pt x="1589" y="1479" on="1"/>
      </contour>
    </TTGlyph>
    <TTGlyph name="ampersand.smcp" xMin="35" yMin="-29" xMax="1740" yMax="1367">
      <contour>
        <pt x="1581" y="1367" on="0"/>
        <pt x="1740" y="1239" on="0"/>
        <pt x="1740" y="1106" on="1"/>
        <pt x="1740" y="853" on="0"/>
        <pt x="1427" y="714" on="1"/>
        <pt x="1362" y="686" on="1"/>
        <pt x="1425" y="608" on="0"/>
        <pt x="1425" y="495" on="1"/>
        <pt x="1425" y="358" on="0"/>
        <pt x="1239" y="117" on="0"/>
        <pt x="893" y="-29" on="0"/>
        <pt x="663" y="-29" on="1"/>
        <pt x="483" y="-29" on="0"/>
        <pt x="198" y="64" on="0"/>
        <pt x="35" y="244" on="0"/>
        <pt x="35" y="369" on="1"/>
        <pt x="35" y="479" on="0"/>
        <pt x="161" y="659" on="0"/>
        <pt x="387" y="786" on="0"/>
        <pt x="537" y="819" on="1"/>
        <pt x="444" y="852" on="0"/>
        <pt x="356" y="960" on="0"/>
        <pt x="356" y="1024" on="1"/>
        <pt x="356" y="1101" on="0"/>
        <pt x="471" y="1215" on="0"/>
        <pt x="653" y="1274" on="0"/>
        <pt x="752" y="1274" on="1"/>
        <pt x="875" y="1274" on="0"/>
        <pt x="1008" y="1185" on="0"/>
        <pt x="1008" y="1112" on="1"/>
        <pt x="1008" y="1068" on="0"/>
        <pt x="962" y="1006" on="0"/>
        <pt x="889" y="975" on="0"/>
        <pt x="850" y="975" on="1"/>
        <pt x="849" y="1011" on="1"/>
        <pt x="898" y="1011" on="0"/>
        <pt x="962" y="1066" on="0"/>
        <pt x="962" y="1109" on="1"/>
        <pt x="962" y="1153" on="0"/>
        <pt x="884" y="1212" on="0"/>
        <pt x="816" y="1212" on="1"/>
        <pt x="743" y="1212" on="0"/>
        <pt x="619" y="1142" on="0"/>
        <pt x="545" y="1014" on="0"/>
        <pt x="545" y="932" on="1"/>
        <pt x="545" y="873" on="0"/>
        <pt x="565" y="831" on="1"/>
        <pt x="637" y="849" on="0"/>
        <pt x="686" y="849" on="1"/>
        <pt x="718" y="849" on="0"/>
        <pt x="754" y="826" on="0"/>
        <pt x="754" y="806" on="1"/>
        <pt x="754" y="784" on="0"/>
        <pt x="717" y="763" on="0"/>
        <pt x="691" y="763" on="1"/>
        <pt x="665" y="763" on="0"/>
        <pt x="611" y="781" on="0"/>
        <pt x="570" y="800" on="0"/>
        <pt x="563" y="803" on="1"/>
        <pt x="505" y="780" on="0"/>
        <pt x="412" y="681" on="0"/>
        <pt x="360" y="547" on="0"/>
        <pt x="360" y="475" on="1"/>
        <pt x="360" y="368" on="0"/>
        <pt x="470" y="221" on="0"/>
        <pt x="668" y="147" on="0"/>
        <pt x="800" y="147" on="1"/>
        <pt x="937" y="147" on="0"/>
        <pt x="1201" y="223" on="0"/>
        <pt x="1377" y="388" on="0"/>
        <pt x="1377" y="515" on="1"/>
        <pt x="1377" y="607" on="0"/>
        <pt x="1327" y="671" on="1"/>
        <pt x="1279" y="653" on="0"/>
        <pt x="1238" y="635" on="1"/>
        <pt x="1090" y="576" on="0"/>
        <pt x="989" y="532" on="1"/>
        <pt x="922" y="503" on="0"/>
        <pt x="847" y="459" on="0"/>
        <pt x="810" y="410" on="0"/>
        <pt x="810" y="377" on="1"/>
        <pt x="810" y="331" on="0"/>
        <pt x="869" y="288" on="0"/>
        <pt x="911" y="288" on="1"/>
        <pt x="979" y="288" on="0"/>
        <pt x="1019" y="331" on="1"/>
        <pt x="1039" y="306" on="1"/>
        <pt x="983" y="251" on="0"/>
        <pt x="898" y="251" on="1"/>
        <pt x="803" y="251" on="0"/>
        <pt x="677" y="356" on="0"/>
        <pt x="677" y="459" on="1"/>
        <pt x="677" y="539" on="0"/>
        <pt x="759" y="656" on="0"/>
        <pt x="900" y="741" on="0"/>
        <pt x="1010" y="787" on="1"/>
        <pt x="1144" y="842" on="1"/>
        <pt x="1373" y="937" on="0"/>
        <pt x="1425" y="960" on="1"/>
        <pt x="1535" y="1007" on="0"/>
        <pt x="1637" y="1112" on="0"/>
        <pt x="1637" y="1182" on="1"/>
        <pt x="1637" y="1255" on="0"/>
        <pt x="1543" y="1336" on="0"/>
        <pt x="1459" y="1336" on="1"/>
        <pt x="1406" y="1336" on="0"/>
        <pt x="1386" y="1323" on="1"/>
        <pt x="1474" y="1285" on="0"/>
        <pt x="1474" y="1208" on="1"/>
        <pt x="1474" y="1168" on="0"/>
        <pt x="1423" y="1103" on="0"/>
        <pt x="1339" y="1067" on="0"/>
        <pt x="1291" y="1067" on="1"/>
        <pt x="1226" y="1067" on="0"/>
        <pt x="1142" y="1130" on="0"/>
        <pt x="1142" y="1183" on="1"/>
        <pt x="1142" y="1232" on="0"/>
        <pt x="1213" y="1310" on="0"/>
        <pt x="1269" y="1333" on="1"/>
        <pt x="1350" y="1367" on="0"/>
        <pt x="1452" y="1367" on="1"/>
      </contour>
    </TTGlyph>
    <TTGlyph name="aogonek" xMin="-186" yMin="-385" xMax="1187" yMax="1260">
      <contour>
        <pt x="1025" y="-18" on="0"/>
        <pt x="904" y="-89" on="0"/>
        <pt x="838" y="-176" on="0"/>
        <pt x="838" y="-221" on="1"/>
        <pt x="838" y="-283" on="0"/>
        <pt x="907" y="-283" on="1"/>
        <pt x="939" y="-283" on="0"/>
        <pt x="1021" y="-258" on="0"/>
        <pt x="1056" y="-238" on="1"/>
        <pt x="1078" y="-273" on="1"/>
        <pt x="936" y="-385" on="0"/>
        <pt x="784" y="-385" on="1"/>
        <pt x="700" y="-385" on="0"/>
        <pt x="607" y="-320" on="0"/>
        <pt x="607" y="-263" on="1"/>
        <pt x="607" y="-169" on="0"/>
        <pt x="845" y="-30" on="0"/>
        <pt x="1041" y="4" on="1"/>
        <pt x="935" y="6" on="0"/>
        <pt x="880" y="6" on="1"/>
        <pt x="672" y="6" on="0"/>
        <pt x="573" y="0" on="1"/>
        <pt x="583" y="41" on="1"/>
        <pt x="646" y="44" on="0"/>
        <pt x="722" y="66" on="0"/>
        <pt x="762" y="121" on="0"/>
        <pt x="762" y="172" on="1"/>
        <pt x="762" y="190" on="0"/>
        <pt x="759" y="213" on="1"/>
        <pt x="728" y="467" on="1"/>
        <pt x="272" y="467" on="1"/>
        <pt x="120" y="278" on="1"/>
        <pt x="56" y="200" on="0"/>
        <pt x="56" y="146" on="1"/>
        <pt x="56" y="59" on="0"/>
        <pt x="219" y="41" on="1"/>
        <pt x="214" y="0" on="1"/>
        <pt x="81" y="6" on="0"/>
        <pt x="-35" y="6" on="1"/>
        <pt x="-126" y="6" on="0"/>
        <pt x="-186" y="0" on="1"/>
        <pt x="-181" y="41" on="1"/>
        <pt x="-126" y="61" on="0"/>
        <pt x="-25" y="159" on="0"/>
        <pt x="58" y="263" on="1"/>
        <pt x="856" y="1260" on="1"/>
        <pt x="873" y="1258" on="0"/>
        <pt x="908" y="1258" on="1"/>
        <pt x="943" y="1258" on="0"/>
        <pt x="960" y="1260" on="1"/>
        <pt x="1087" y="172" on="1"/>
        <pt x="1095" y="105" on="0"/>
        <pt x="1151" y="43" on="0"/>
        <pt x="1187" y="41" on="1"/>
        <pt x="1177" y="0" on="1"/>
        <pt x="1103" y="3" on="1"/>
      </contour>
      <contour>
        <pt x="669" y="961" on="1"/>
        <pt x="305" y="508" on="1"/>
        <pt x="723" y="508" on="1"/>
      </contour>
    </TTGlyph>
    <TTGlyph name="approxequal" xMin="69" yMin="360" xMax="1401" yMax="1121">
      <contour>
        <pt x="926" y="718" on="0"/>
        <pt x="840" y="744" on="0"/>
        <pt x="775" y="781" on="0"/>
        <pt x="728" y="812" on="1"/>
        <pt x="661" y="857" on="0"/>
        <pt x="562" y="902" on="0"/>
        <pt x="496" y="902" on="1"/>
        <pt x="319" y="902" on="0"/>
        <pt x="195" y="734" on="1"/>
        <pt x="164" y="741" on="1"/>
        <pt x="214" y="855" on="0"/>
        <pt x="362" y="1027" on="0"/>
        <pt x="533" y="1121" on="0"/>
        <pt x="616" y="1121" on="1"/>
        <pt x="690" y="1121" on="0"/>
        <pt x="801" y="1073" on="0"/>
        <pt x="871" y="1027" on="1"/>
        <pt x="939" y="982" on="0"/>
        <pt x="1041" y="938" on="0"/>
        <pt x="1108" y="938" on="1"/>
        <pt x="1260" y="938" on="0"/>
        <pt x="1369" y="1094" on="1"/>
        <pt x="1401" y="1086" on="1"/>
        <pt x="1353" y="976" on="0"/>
        <pt x="1213" y="809" on="0"/>
        <pt x="1054" y="718" on="0"/>
        <pt x="977" y="718" on="1"/>
      </contour>
      <contour>
        <pt x="779" y="360" on="0"/>
        <pt x="668" y="408" on="0"/>
        <pt x="598" y="454" on="1"/>
        <pt x="552" y="484" on="0"/>
        <pt x="489" y="519" on="0"/>
        <pt x="408" y="543" on="0"/>
        <pt x="361" y="543" on="1"/>
        <pt x="209" y="543" on="0"/>
        <pt x="100" y="387" on="1"/>
        <pt x="69" y="395" on="1"/>
        <pt x="117" y="505" on="0"/>
        <pt x="256" y="672" on="0"/>
        <pt x="415" y="763" on="0"/>
        <pt x="492" y="763" on="1"/>
        <pt x="565" y="763" on="0"/>
        <pt x="673" y="715" on="0"/>
        <pt x="741" y="669" on="1"/>
        <pt x="786" y="639" on="0"/>
        <pt x="849" y="604" on="0"/>
        <pt x="927" y="580" on="0"/>
        <pt x="973" y="580" on="1"/>
        <pt x="1152" y="580" on="0"/>
        <pt x="1274" y="748" on="1"/>
        <pt x="1305" y="740" on="1"/>
        <pt x="1255" y="626" on="0"/>
        <pt x="1107" y="454" on="0"/>
        <pt x="936" y="360" on="0"/>
        <pt x="853" y="360" on="1"/>
      </contour>
    </TTGlyph>
    <TTGlyph name="aring" xMin="-186" yMin="0" xMax="1187" yMax="1714">
      <component glyphName=".ttfautohint" x="0" y="0" flags="0x0"/>
      <component glyphName="a" x="0" y="0" flags="0x0"/>
      <component glyphName="ring.smcp" x="652" y="0" flags="0x0"/>
    </TTGlyph>
    <TTGlyph name="arrowboth" xMin="51" yMin="158" xMax="1331" yMax="924">
      <contour>
        <pt x="977" y="770" on="0"/>
        <pt x="1184" y="584" on="0"/>
        <pt x="1331" y="541" on="1"/>
        <pt x="1184" y="497" on="0"/>
        <pt x="977" y="312" on="0"/>
        <pt x="907" y="158" on="1"/>
        <pt x="872" y="158" on="1"/>
        <pt x="957" y="337" on="0"/>
        <pt x="961" y="524" on="1"/>
        <pt x="422" y="524" on="1"/>
        <pt x="426" y="339" on="0"/>
        <pt x="510" y="158" on="1"/>
        <pt x="475" y="158" on="1"/>
        <pt x="405" y="312" on="0"/>
        <pt x="198" y="497" on="0"/>
        <pt x="51" y="541" on="1"/>
        <pt x="198" y="584" on="0"/>
        <pt x="405" y="770" on="0"/>
        <pt x="475" y="924" on="1"/>
        <pt x="510" y="924" on="1"/>
        <pt x="425" y="742" on="0"/>
        <pt x="422" y="557" on="1"/>
        <pt x="961" y="557" on="1"/>
        <pt x="958" y="743" on="0"/>
        <pt x="872" y="924" on="1"/>
        <pt x="907" y="924" on="1"/>
      </contour>
    </TTGlyph>
    <TTGlyph name="arrowdown" xMin="123" yMin="-20" xMax="889" yMax="1200">
      <contour>
        <pt x="552" y="952" on="0"/>
        <pt x="734" y="1128" on="0"/>
        <pt x="889" y="1200" on="1"/>
        <pt x="889" y="1165" on="1"/>
        <pt x="735" y="1095" on="0"/>
        <pt x="549" y="888" on="0"/>
        <pt x="506" y="741" on="1"/>
        <pt x="463" y="888" on="0"/>
        <pt x="277" y="1095" on="0"/>
        <pt x="123" y="1165" on="1"/>
        <pt x="123" y="1200" on="1"/>
        <pt x="278" y="1128" on="0"/>
        <pt x="459" y="952" on="0"/>
        <pt x="506" y="829" on="1"/>
      </contour>
      <contour>
        <pt x="552" y="768" on="0"/>
        <pt x="734" y="944" on="0"/>
        <pt x="889" y="1016" on="1"/>
        <pt x="889" y="981" on="1"/>
        <pt x="748" y="917" on="0"/>
        <pt x="569" y="733" on="0"/>
        <pt x="522" y="606" on="1"/>
        <pt x="522" y="350" on="1"/>
        <pt x="707" y="353" on="0"/>
        <pt x="889" y="438" on="1"/>
        <pt x="889" y="403" on="1"/>
        <pt x="735" y="333" on="0"/>
        <pt x="549" y="127" on="0"/>
        <pt x="506" y="-20" on="1"/>
        <pt x="463" y="127" on="0"/>
        <pt x="277" y="333" on="0"/>
        <pt x="123" y="403" on="1"/>
        <pt x="123" y="438" on="1"/>
        <pt x="304" y="354" on="0"/>
        <pt x="489" y="350" on="1"/>
        <pt x="489" y="608" on="1"/>
        <pt x="442" y="734" on="0"/>
        <pt x="264" y="917" on="0"/>
        <pt x="123" y="981" on="1"/>
        <pt x="123" y="1016" on="1"/>
        <pt x="278" y="944" on="0"/>
        <pt x="459" y="768" on="0"/>
        <pt x="506" y="645" on="1"/>
      </contour>
    </TTGlyph>
    <TTGlyph name="arrowdownleft" xMin="133" yMin="-20" xMax="1268" yMax="1114">
      <contour>
        <pt x="851" y="633" on="0"/>
        <pt x="970" y="633" on="1"/>
        <pt x="1103" y="633" on="0"/>
        <pt x="1268" y="571" on="1"/>
        <pt x="1243" y="547" on="1"/>
        <pt x="1103" y="600" on="0"/>
        <pt x="976" y="600" on="1"/>
        <pt x="822" y="600" on="0"/>
        <pt x="672" y="518" on="1"/>
        <pt x="754" y="667" on="0"/>
        <pt x="754" y="821" on="1"/>
        <pt x="754" y="948" on="0"/>
        <pt x="700" y="1090" on="1"/>
        <pt x="725" y="1114" on="1"/>
        <pt x="787" y="949" on="0"/>
        <pt x="787" y="817" on="1"/>
        <pt x="787" y="695" on="0"/>
        <pt x="735" y="582" on="1"/>
      </contour>
      <contour>
        <pt x="720" y="502" on="0"/>
        <pt x="841" y="502" on="1"/>
        <pt x="972" y="502" on="0"/>
        <pt x="1137" y="442" on="1"/>
        <pt x="1112" y="418" on="1"/>
        <pt x="972" y="470" on="0"/>
        <pt x="848" y="470" on="1"/>
        <pt x="716" y="470" on="0"/>
        <pt x="590" y="413" on="1"/>
        <pt x="407" y="231" on="1"/>
        <pt x="541" y="103" on="0"/>
        <pt x="729" y="33" on="1"/>
        <pt x="705" y="8" on="1"/>
        <pt x="563" y="62" on="0"/>
        <pt x="436" y="62" on="1"/>
        <pt x="282" y="62" on="0"/>
        <pt x="133" y="-20" on="1"/>
        <pt x="215" y="130" on="0"/>
        <pt x="215" y="284" on="1"/>
        <pt x="215" y="411" on="0"/>
        <pt x="162" y="551" on="1"/>
        <pt x="186" y="575" on="1"/>
        <pt x="257" y="389" on="0"/>
        <pt x="384" y="253" on="1"/>
        <pt x="567" y="438" on="1"/>
        <pt x="624" y="563" on="0"/>
        <pt x="624" y="692" on="1"/>
        <pt x="624" y="816" on="0"/>
        <pt x="571" y="958" on="1"/>
        <pt x="596" y="983" on="1"/>
        <pt x="656" y="818" on="0"/>
        <pt x="656" y="688" on="1"/>
        <pt x="656" y="565" on="0"/>
        <pt x="604" y="451" on="1"/>
      </contour>
    </TTGlyph>
    <TTGlyph name="arrowdownright" xMin="133" yMin="-20" xMax="1268" yMax="1114">
      <component glyphName=".ttfautohint" x="133" y="0" flags="0x0"/>
      <component glyphName="arrowupleft" x="1401" y="1094" scale="-1.0" flags="0x0"/>
    </TTGlyph>
    <TTGlyph name="arrowleft" xMin="51" yMin="158" xMax="1272" yMax="924">
      <contour>
        <pt x="840" y="495" on="0"/>
        <pt x="1015" y="313" on="0"/>
        <pt x="1087" y="158" on="1"/>
        <pt x="1053" y="158" on="1"/>
        <pt x="988" y="299" on="0"/>
        <pt x="806" y="476" on="0"/>
        <pt x="680" y="524" on="1"/>
        <pt x="422" y="524" on="1"/>
        <pt x="426" y="339" on="0"/>
        <pt x="510" y="158" on="1"/>
        <pt x="475" y="158" on="1"/>
        <pt x="405" y="312" on="0"/>
        <pt x="198" y="497" on="0"/>
        <pt x="51" y="541" on="1"/>
        <pt x="198" y="584" on="0"/>
        <pt x="405" y="770" on="0"/>
        <pt x="475" y="924" on="1"/>
        <pt x="510" y="924" on="1"/>
        <pt x="425" y="742" on="0"/>
        <pt x="422" y="557" on="1"/>
        <pt x="677" y="557" on="1"/>
        <pt x="804" y="604" on="0"/>
        <pt x="988" y="783" on="0"/>
        <pt x="1053" y="924" on="1"/>
        <pt x="1087" y="924" on="1"/>
        <pt x="1015" y="768" on="0"/>
        <pt x="840" y="587" on="0"/>
        <pt x="717" y="541" on="1"/>
      </contour>
      <contour>
        <pt x="1024" y="494" on="0"/>
        <pt x="1200" y="313" on="0"/>
        <pt x="1272" y="158" on="1"/>
        <pt x="1237" y="158" on="1"/>
        <pt x="1167" y="312" on="0"/>
        <pt x="960" y="497" on="0"/>
        <pt x="813" y="541" on="1"/>
        <pt x="960" y="584" on="0"/>
        <pt x="1167" y="770" on="0"/>
        <pt x="1237" y="924" on="1"/>
        <pt x="1272" y="924" on="1"/>
        <pt x="1200" y="769" on="0"/>
        <pt x="1024" y="587" on="0"/>
        <pt x="901" y="541" on="1"/>
      </contour>
    </TTGlyph>
    <TTGlyph name="arrowright" xMin="123" yMin="158" xMax="1344" yMax="924">
      <component glyphName=".ttfautohint" x="123" y="158" flags="0x0"/>
      <component glyphName="arrowleft" x="1395" y="0" scalex="-1.0" scaley="1.0" flags="0x0"/>
    </TTGlyph>
    <TTGlyph name="arrowup" xMin="123" yMin="-20" xMax="889" yMax="1200">
      <contour>
        <pt x="710" y="826" on="0"/>
        <pt x="522" y="829" on="1"/>
        <pt x="522" y="574" on="1"/>
        <pt x="569" y="447" on="0"/>
        <pt x="748" y="263" on="0"/>
        <pt x="889" y="199" on="1"/>
        <pt x="889" y="164" on="1"/>
        <pt x="734" y="236" on="0"/>
        <pt x="552" y="412" on="0"/>
        <pt x="506" y="535" on="1"/>
        <pt x="459" y="412" on="0"/>
        <pt x="278" y="236" on="0"/>
        <pt x="123" y="164" on="1"/>
        <pt x="123" y="199" on="1"/>
        <pt x="264" y="263" on="0"/>
        <pt x="442" y="446" on="0"/>
        <pt x="489" y="572" on="1"/>
        <pt x="489" y="829" on="1"/>
        <pt x="304" y="826" on="0"/>
        <pt x="123" y="741" on="1"/>
        <pt x="123" y="776" on="1"/>
        <pt x="277" y="846" on="0"/>
        <pt x="463" y="1053" on="0"/>
        <pt x="506" y="1200" on="1"/>
        <pt x="549" y="1053" on="0"/>
        <pt x="735" y="846" on="0"/>
        <pt x="889" y="776" on="1"/>
        <pt x="889" y="741" on="1"/>
      </contour>
      <contour>
        <pt x="549" y="292" on="0"/>
        <pt x="735" y="85" on="0"/>
        <pt x="889" y="14" on="1"/>
        <pt x="889" y="-20" on="1"/>
        <pt x="733" y="52" on="0"/>
        <pt x="552" y="227" on="0"/>
        <pt x="506" y="350" on="1"/>
        <pt x="460" y="227" on="0"/>
        <pt x="278" y="52" on="0"/>
        <pt x="123" y="-20" on="1"/>
        <pt x="123" y="14" on="1"/>
        <pt x="277" y="85" on="0"/>
        <pt x="463" y="292" on="0"/>
        <pt x="506" y="438" on="1"/>
      </contour>
    </TTGlyph>
    <TTGlyph name="arrowupleft" xMin="133" yMin="-20" xMax="1268" yMax="1114">
      <contour>
        <pt x="972" y="591" on="0"/>
        <pt x="842" y="591" on="1"/>
        <pt x="718" y="591" on="0"/>
        <pt x="604" y="643" on="1"/>
        <pt x="656" y="529" on="0"/>
        <pt x="656" y="405" on="1"/>
        <pt x="656" y="276" on="0"/>
        <pt x="596" y="111" on="1"/>
        <pt x="571" y="135" on="1"/>
        <pt x="624" y="277" on="0"/>
        <pt x="624" y="401" on="1"/>
        <pt x="624" y="532" on="0"/>
        <pt x="567" y="656" on="1"/>
        <pt x="384" y="841" on="1"/>
        <pt x="257" y="706" on="0"/>
        <pt x="186" y="518" on="1"/>
        <pt x="162" y="543" on="1"/>
        <pt x="215" y="683" on="0"/>
        <pt x="215" y="810" on="1"/>
        <pt x="215" y="964" on="0"/>
        <pt x="133" y="1114" on="1"/>
        <pt x="283" y="1032" on="0"/>
        <pt x="437" y="1032" on="1"/>
        <pt x="561" y="1032" on="0"/>
        <pt x="705" y="1085" on="1"/>
        <pt x="729" y="1061" on="1"/>
        <pt x="541" y="991" on="0"/>
        <pt x="407" y="863" on="1"/>
        <pt x="591" y="681" on="1"/>
        <pt x="718" y="623" on="0"/>
        <pt x="847" y="623" on="1"/>
        <pt x="970" y="623" on="0"/>
        <pt x="1112" y="676" on="1"/>
        <pt x="1137" y="651" on="1"/>
      </contour>
      <contour>
        <pt x="1103" y="460" on="0"/>
        <pt x="971" y="460" on="1"/>
        <pt x="849" y="460" on="0"/>
        <pt x="735" y="512" on="1"/>
        <pt x="787" y="398" on="0"/>
        <pt x="787" y="277" on="1"/>
        <pt x="787" y="145" on="0"/>
        <pt x="725" y="-20" on="1"/>
        <pt x="700" y="4" on="1"/>
        <pt x="754" y="146" on="0"/>
        <pt x="754" y="272" on="1"/>
        <pt x="754" y="426" on="0"/>
        <pt x="672" y="575" on="1"/>
        <pt x="821" y="493" on="0"/>
        <pt x="975" y="493" on="1"/>
        <pt x="1101" y="493" on="0"/>
        <pt x="1243" y="547" on="1"/>
        <pt x="1268" y="522" on="1"/>
      </contour>
    </TTGlyph>
    <TTGlyph name="arrowupright" xMin="133" yMin="-20" xMax="1268" yMax="1114">
      <component glyphName=".ttfautohint" x="133" y="0" flags="0x0"/>
      <component glyphName="arrowupleft" x="1401" y="0" scalex="-1.0" scaley="1.0" flags="0x0"/>
    </TTGlyph>
    <TTGlyph name="asciicircum" xMin="138" yMin="635" xMax="983" yMax="1081">
      <contour>
        <pt x="470" y="758" on="0"/>
        <pt x="256" y="666" on="0"/>
        <pt x="147" y="635" on="1"/>
        <pt x="138" y="664" on="1"/>
        <pt x="293" y="730" on="0"/>
        <pt x="566" y="956" on="0"/>
        <pt x="650" y="1081" on="1"/>
        <pt x="687" y="1081" on="1"/>
        <pt x="706" y="954" on="0"/>
        <pt x="860" y="731" on="0"/>
        <pt x="983" y="665" on="1"/>
        <pt x="966" y="635" on="1"/>
        <pt x="852" y="661" on="0"/>
        <pt x="631" y="752" on="0"/>
        <pt x="544" y="807" on="1"/>
      </contour>
    </TTGlyph>
    <TTGlyph name="asciicircum.case" xMin="37" yMin="1045" xMax="963" yMax="1479">
      <contour>
        <pt x="406" y="1167" on="0"/>
        <pt x="167" y="1075" on="0"/>
        <pt x="45" y="1045" on="1"/>
        <pt x="37" y="1074" on="1"/>
        <pt x="209" y="1138" on="0"/>
        <pt x="512" y="1357" on="0"/>
        <pt x="605" y="1479" on="1"/>
        <pt x="642" y="1479" on="1"/>
        <pt x="664" y="1355" on="0"/>
        <pt x="829" y="1139" on="0"/>
        <pt x="963" y="1075" on="1"/>
        <pt x="945" y="1045" on="1"/>
        <pt x="826" y="1071" on="0"/>
        <pt x="591" y="1162" on="0"/>
        <pt x="499" y="1217" on="1"/>
      </contour>
    </TTGlyph>
    <TTGlyph name="asciicircum.smcp" xMin="235" yMin="1044" xMax="1160" yMax="1479">
      <contour>
        <pt x="604" y="1166" on="0"/>
        <pt x="365" y="1074" on="0"/>
        <pt x="243" y="1044" on="1"/>
        <pt x="235" y="1073" on="1"/>
        <pt x="408" y="1138" on="0"/>
        <pt x="710" y="1357" on="0"/>
        <pt x="803" y="1479" on="1"/>
        <pt x="840" y="1479" on="1"/>
        <pt x="862" y="1354" on="0"/>
        <pt x="1026" y="1138" on="0"/>
        <pt x="1160" y="1074" on="1"/>
        <pt x="1143" y="1044" on="1"/>
        <pt x="1024" y="1070" on="0"/>
        <pt x="789" y="1162" on="0"/>
        <pt x="697" y="1217" on="1"/>
      </contour>
    </TTGlyph>
    <TTGlyph name="asciitilde" xMin="100" yMin="436" xMax="1232" yMax="805">
      <contour>
        <pt x="750" y="436" on="0"/>
        <pt x="641" y="478" on="0"/>
        <pt x="567" y="519" on="1"/>
        <pt x="497" y="558" on="0"/>
        <pt x="399" y="596" on="0"/>
        <pt x="338" y="596" on="1"/>
        <pt x="203" y="596" on="0"/>
        <pt x="129" y="477" on="1"/>
        <pt x="100" y="487" on="1"/>
        <pt x="157" y="634" on="0"/>
        <pt x="377" y="805" on="0"/>
        <pt x="512" y="805" on="1"/>
        <pt x="583" y="805" on="0"/>
        <pt x="693" y="763" on="0"/>
        <pt x="766" y="722" on="1"/>
        <pt x="834" y="683" on="0"/>
        <pt x="934" y="645" on="0"/>
        <pt x="995" y="645" on="1"/>
        <pt x="1130" y="645" on="0"/>
        <pt x="1204" y="764" on="1"/>
        <pt x="1232" y="754" on="1"/>
        <pt x="1175" y="607" on="0"/>
        <pt x="956" y="436" on="0"/>
        <pt x="821" y="436" on="1"/>
      </contour>
    </TTGlyph>
    <TTGlyph name="asciitilde.case" xMin="43" yMin="575" xMax="1175" yMax="944">
      <component glyphName=".ttfautohint" x="43" y="575" flags="0x0"/>
      <component glyphName="asciitilde" x="-57" y="139" flags="0x0"/>
    </TTGlyph>
    <TTGlyph name="asciitilde.smcp" xMin="97" yMin="436" xMax="1229" yMax="805">
      <component glyphName=".ttfautohint" x="97" y="436" flags="0x0"/>
      <component glyphName="asciitilde" x="-3" y="0" flags="0x0"/>
    </TTGlyph>
    <TTGlyph name="asterisk" xMin="183" yMin="629" xMax="1044" yMax="1493">
      <contour>
        <pt x="1044" y="1262" on="0"/>
        <pt x="1044" y="1245" on="1"/>
        <pt x="1044" y="1179" on="0"/>
        <pt x="959" y="1136" on="1"/>
        <pt x="924" y="1119" on="0"/>
        <pt x="844" y="1100" on="0"/>
        <pt x="759" y="1085" on="1"/>
        <pt x="682" y="1073" on="0"/>
        <pt x="630" y="1062" on="1"/>
        <pt x="679" y="1051" on="0"/>
        <pt x="743" y="1040" on="1"/>
        <pt x="822" y="1025" on="0"/>
        <pt x="899" y="1005" on="0"/>
        <pt x="924" y="988" on="1"/>
        <pt x="967" y="960" on="0"/>
        <pt x="967" y="918" on="1"/>
        <pt x="967" y="882" on="0"/>
        <pt x="937" y="845" on="1"/>
        <pt x="898" y="795" on="0"/>
        <pt x="846" y="795" on="1"/>
        <pt x="816" y="795" on="0"/>
        <pt x="786" y="815" on="1"/>
        <pt x="760" y="833" on="0"/>
        <pt x="716" y="891" on="0"/>
        <pt x="680" y="951" on="1"/>
        <pt x="622" y="1043" on="1"/>
        <pt x="624" y="1017" on="0"/>
        <pt x="634" y="931" on="1"/>
        <pt x="646" y="842" on="0"/>
        <pt x="646" y="796" on="1"/>
        <pt x="646" y="762" on="0"/>
        <pt x="641" y="739" on="1"/>
        <pt x="626" y="682" on="0"/>
        <pt x="556" y="629" on="0"/>
        <pt x="514" y="629" on="1"/>
        <pt x="480" y="629" on="0"/>
        <pt x="436" y="664" on="0"/>
        <pt x="436" y="701" on="1"/>
        <pt x="436" y="716" on="0"/>
        <pt x="441" y="739" on="1"/>
        <pt x="449" y="776" on="0"/>
        <pt x="494" y="861" on="0"/>
        <pt x="541" y="939" on="1"/>
        <pt x="578" y="1000" on="0"/>
        <pt x="606" y="1050" on="1"/>
        <pt x="509" y="961" on="1"/>
        <pt x="438" y="895" on="0"/>
        <pt x="363" y="831" on="0"/>
        <pt x="329" y="813" on="1"/>
        <pt x="292" y="794" on="0"/>
        <pt x="259" y="794" on="1"/>
        <pt x="205" y="794" on="0"/>
        <pt x="189" y="845" on="1"/>
        <pt x="183" y="860" on="0"/>
        <pt x="183" y="876" on="1"/>
        <pt x="183" y="941" on="0"/>
        <pt x="268" y="985" on="1"/>
        <pt x="305" y="1003" on="0"/>
        <pt x="396" y="1024" on="0"/>
        <pt x="476" y="1037" on="1"/>
        <pt x="544" y="1048" on="0"/>
        <pt x="600" y="1059" on="1"/>
        <pt x="523" y="1075" on="0"/>
        <pt x="484" y="1082" on="1"/>
        <pt x="405" y="1097" on="0"/>
        <pt x="328" y="1117" on="0"/>
        <pt x="303" y="1134" on="1"/>
        <pt x="261" y="1161" on="0"/>
        <pt x="261" y="1204" on="1"/>
        <pt x="261" y="1240" on="0"/>
        <pt x="291" y="1277" on="1"/>
        <pt x="330" y="1327" on="0"/>
        <pt x="381" y="1327" on="1"/>
        <pt x="412" y="1327" on="0"/>
        <pt x="442" y="1307" on="1"/>
        <pt x="469" y="1290" on="0"/>
        <pt x="512" y="1231" on="0"/>
        <pt x="549" y="1170" on="1"/>
        <pt x="585" y="1110" on="0"/>
        <pt x="611" y="1071" on="1"/>
        <pt x="610" y="1076" on="0"/>
        <pt x="598" y="1166" on="1"/>
        <pt x="582" y="1274" on="0"/>
        <pt x="582" y="1322" on="1"/>
        <pt x="582" y="1354" on="0"/>
        <pt x="588" y="1382" on="1"/>
        <pt x="601" y="1439" on="0"/>
        <pt x="672" y="1493" on="0"/>
        <pt x="714" y="1493" on="1"/>
        <pt x="748" y="1493" on="0"/>
        <pt x="791" y="1457" on="0"/>
        <pt x="791" y="1420" on="1"/>
        <pt x="791" y="1405" on="0"/>
        <pt x="786" y="1382" on="1"/>
        <pt x="779" y="1347" on="0"/>
        <pt x="737" y="1266" on="0"/>
        <pt x="695" y="1196" on="1"/>
        <pt x="646" y="1112" on="0"/>
        <pt x="626" y="1076" on="1"/>
        <pt x="658" y="1105" on="0"/>
        <pt x="726" y="1168" on="1"/>
        <pt x="794" y="1231" on="0"/>
        <pt x="865" y="1292" on="0"/>
        <pt x="898" y="1309" on="1"/>
        <pt x="936" y="1328" on="0"/>
        <pt x="968" y="1328" on="1"/>
        <pt x="1022" y="1328" on="0"/>
        <pt x="1038" y="1277" on="1"/>
      </contour>
    </TTGlyph>
    <TTGlyph name="at" xMin="57" yMin="-305" xMax="1708" yMax="1319">
      <contour>
        <pt x="924" y="53" on="0"/>
        <pt x="924" y="194" on="1"/>
        <pt x="924" y="227" on="0"/>
        <pt x="930" y="260" on="1"/>
        <pt x="874" y="151" on="0"/>
        <pt x="731" y="53" on="0"/>
        <pt x="641" y="53" on="1"/>
        <pt x="533" y="53" on="0"/>
        <pt x="408" y="180" on="0"/>
        <pt x="408" y="304" on="1"/>
        <pt x="408" y="447" on="0"/>
        <pt x="563" y="766" on="0"/>
        <pt x="815" y="979" on="0"/>
        <pt x="952" y="979" on="1"/>
        <pt x="1025" y="979" on="0"/>
        <pt x="1094" y="909" on="0"/>
        <pt x="1097" y="839" on="1"/>
        <pt x="1130" y="950" on="1"/>
        <pt x="1292" y="950" on="0"/>
        <pt x="1389" y="979" on="1"/>
        <pt x="1172" y="240" on="1"/>
        <pt x="1158" y="192" on="0"/>
        <pt x="1158" y="167" on="1"/>
        <pt x="1158" y="119" on="0"/>
        <pt x="1205" y="119" on="1"/>
        <pt x="1272" y="119" on="0"/>
        <pt x="1495" y="272" on="0"/>
        <pt x="1666" y="562" on="0"/>
        <pt x="1666" y="760" on="1"/>
        <pt x="1666" y="937" on="0"/>
        <pt x="1510" y="1171" on="0"/>
        <pt x="1237" y="1282" on="0"/>
        <pt x="1057" y="1282" on="1"/>
        <pt x="780" y="1282" on="0"/>
        <pt x="342" y="1008" on="0"/>
        <pt x="99" y="566" on="0"/>
        <pt x="99" y="324" on="1"/>
        <pt x="99" y="119" on="0"/>
        <pt x="280" y="-147" on="0"/>
        <pt x="581" y="-270" on="0"/>
        <pt x="769" y="-270" on="1"/>
        <pt x="1044" y="-270" on="0"/>
        <pt x="1260" y="-145" on="1"/>
        <pt x="1273" y="-172" on="1"/>
        <pt x="1179" y="-233" on="0"/>
        <pt x="921" y="-305" on="0"/>
        <pt x="769" y="-305" on="1"/>
        <pt x="571" y="-305" on="0"/>
        <pt x="250" y="-177" on="0"/>
        <pt x="57" y="103" on="0"/>
        <pt x="57" y="320" on="1"/>
        <pt x="57" y="569" on="0"/>
        <pt x="305" y="1031" on="0"/>
        <pt x="761" y="1319" on="0"/>
        <pt x="1056" y="1319" on="1"/>
        <pt x="1252" y="1319" on="0"/>
        <pt x="1545" y="1197" on="0"/>
        <pt x="1708" y="947" on="0"/>
        <pt x="1708" y="761" on="1"/>
        <pt x="1708" y="546" on="0"/>
        <pt x="1508" y="224" on="0"/>
        <pt x="1216" y="53" on="0"/>
        <pt x="1085" y="53" on="1"/>
      </contour>
      <contour>
        <pt x="819" y="152" on="0"/>
        <pt x="933" y="314" on="0"/>
        <pt x="992" y="482" on="1"/>
        <pt x="1072" y="754" on="1"/>
        <pt x="1074" y="776" on="0"/>
        <pt x="1074" y="789" on="1"/>
        <pt x="1074" y="907" on="0"/>
        <pt x="996" y="907" on="1"/>
        <pt x="927" y="907" on="0"/>
        <pt x="773" y="725" on="0"/>
        <pt x="670" y="444" on="0"/>
        <pt x="670" y="305" on="1"/>
        <pt x="670" y="226" on="0"/>
        <pt x="710" y="152" on="0"/>
        <pt x="753" y="152" on="1"/>
      </contour>
    </TTGlyph>
    <TTGlyph name="at.case" xMin="104" yMin="-129" xMax="1755" yMax="1495">
      <component glyphName=".ttfautohint" x="104" y="0" flags="0x0"/>
      <component glyphName="at" x="47" y="176" flags="0x0"/>
    </TTGlyph>
    <TTGlyph name="at.smcp" xMin="67" yMin="-244" xMax="1718" yMax="1380">
      <component glyphName=".ttfautohint" x="67" y="0" flags="0x0"/>
      <component glyphName="at" x="10" y="61" flags="0x0"/>
    </TTGlyph>
    <TTGlyph name="atilde" xMin="-186" yMin="0" xMax="1376" yMax="1693">
      <component glyphName=".ttfautohint" x="0" y="0" flags="0x0"/>
      <component glyphName="a" x="0" y="0" flags="0x0"/>
      <component glyphName="tilde.smcp" x="429" y="0" flags="0x0"/>
    </TTGlyph>
    <TTGlyph name="b" xMin="-86" yMin="0" xMax="1300" yMax="1245">
      <contour>
        <pt x="1300" y="920" on="0"/>
        <pt x="1173" y="777" on="0"/>
        <pt x="941" y="680" on="0"/>
        <pt x="786" y="662" on="1"/>
        <pt x="1016" y="651" on="0"/>
        <pt x="1220" y="500" on="0"/>
        <pt x="1220" y="391" on="1"/>
        <pt x="1220" y="270" on="0"/>
        <pt x="1057" y="93" on="0"/>
        <pt x="770" y="0" on="0"/>
        <pt x="589" y="0" on="1"/>
        <pt x="518" y="0" on="0"/>
        <pt x="440" y="3" on="1"/>
        <pt x="257" y="6" on="0"/>
        <pt x="237" y="6" on="1"/>
        <pt x="22" y="6" on="0"/>
        <pt x="-86" y="0" on="1"/>
        <pt x="-78" y="41" on="1"/>
        <pt x="-4" y="44" on="0"/>
        <pt x="69" y="70" on="0"/>
        <pt x="113" y="140" on="0"/>
        <pt x="133" y="217" on="1"/>
        <pt x="350" y="1028" on="1"/>
        <pt x="368" y="1095" on="0"/>
        <pt x="368" y="1127" on="1"/>
        <pt x="368" y="1168" on="0"/>
        <pt x="307" y="1203" on="0"/>
        <pt x="229" y="1204" on="1"/>
        <pt x="239" y="1245" on="1"/>
        <pt x="344" y="1239" on="0"/>
        <pt x="557" y="1239" on="1"/>
        <pt x="603" y="1239" on="0"/>
        <pt x="695" y="1241" on="1"/>
        <pt x="793" y="1243" on="0"/>
        <pt x="845" y="1243" on="1"/>
        <pt x="1077" y="1243" on="0"/>
        <pt x="1300" y="1124" on="0"/>
        <pt x="1300" y="1006" on="1"/>
      </contour>
      <contour>
        <pt x="739" y="668" on="0"/>
        <pt x="891" y="767" on="0"/>
        <pt x="970" y="933" on="0"/>
        <pt x="970" y="1031" on="1"/>
        <pt x="970" y="1204" on="0"/>
        <pt x="811" y="1204" on="1"/>
        <pt x="773" y="1204" on="0"/>
        <pt x="730" y="1187" on="0"/>
        <pt x="704" y="1144" on="0"/>
        <pt x="693" y="1099" on="1"/>
        <pt x="578" y="668" on="1"/>
        <pt x="635" y="668" on="1"/>
      </contour>
      <contour>
        <pt x="880" y="521" on="0"/>
        <pt x="776" y="633" on="0"/>
        <pt x="662" y="633" on="1"/>
        <pt x="569" y="633" on="1"/>
        <pt x="458" y="217" on="1"/>
        <pt x="440" y="145" on="0"/>
        <pt x="440" y="115" on="1"/>
        <pt x="440" y="81" on="0"/>
        <pt x="475" y="47" on="0"/>
        <pt x="517" y="47" on="1"/>
        <pt x="880" y="47" on="0"/>
        <pt x="880" y="424" on="1"/>
      </contour>
    </TTGlyph>
</ttFont>
